<svg xmlns="http://www.w3.org/2000/svg" xmlns:xlink="http://www.w3.org/1999/xlink" viewBox="0 0 2028.46 1142.27"><defs><style>.cls-1{fill:none;}.cls-2{clip-path:url(#clip-path);}.cls-3{fill:#c5d5ee;}.cls-4{fill:#bd989a;}.cls-5{fill:#fff;}.cls-6{fill:#dce6f5;}.cls-7{opacity:0.4;}.cls-8{fill:#a36d71;}.cls-9{fill:#e4d5d6;}.cls-10{fill:#815238;opacity:0.2;}.cls-11{fill:#fdbe5b;}.cls-12{fill:#b61f24;}.cls-13{fill:#fbac38;}.cls-14{fill:#fdf496;}.cls-15{fill:#2e9ecd;}.cls-16{fill:#5ab9e8;}.cls-17{fill:#2b5d77;}.cls-18{fill:#ef4134;}.cls-19{fill:#9aaf3b;}.cls-20{fill:#678f3d;}.cls-21{fill:#d5c827;}.cls-22{fill:#9ad6d2;}.cls-22,.cls-23{opacity:0.5;}.cls-24{fill:#03b795;}.cls-25{fill:#029679;}.cls-26{fill:#087ea3;}.cls-27{fill:url(#åçûìßííûé_ãðàäèåíò_40);}.cls-28{fill:url(#åçûìßííûé_ãðàäèåíò_40-2);}.cls-29{fill:url(#åçûìßííûé_ãðàäèåíò_40-3);}.cls-30{fill:#f7934f;}.cls-31{fill:#046c7c;}.cls-32{fill:#13477a;}.cls-33{fill:#038384;}.cls-34{fill:#ea782a;}.cls-35{fill:#faac75;}.cls-36{fill:url(#åçûìßííûé_ãðàäèåíò_40-4);}.cls-37{fill:url(#åçûìßííûé_ãðàäèåíò_40-5);}.cls-38{fill:url(#åçûìßííûé_ãðàäèåíò_40-6);}.cls-39{fill:url(#åçûìßííûé_ãðàäèåíò_40-7);}</style><clipPath id="clip-path" transform="translate(76.12 45.41)"><rect class="cls-1" width="1920" height="1080"/></clipPath><linearGradient id="åçûìßííûé_ãðàäèåíò_40" x1="144.14" y1="400.27" x2="197.19" y2="400.27" gradientUnits="userSpaceOnUse"><stop offset="0" stop-color="#f9a14e"/><stop offset="1" stop-color="#f9c25e"/></linearGradient><linearGradient id="åçûìßííûé_ãðàäèåíò_40-2" x1="96.09" y1="390.77" x2="156.84" y2="390.77" xlink:href="#åçûìßííûé_ãðàäèåíò_40"/><linearGradient id="åçûìßííûé_ãðàäèåíò_40-3" x1="48.7" y1="386.9" x2="113.02" y2="386.9" xlink:href="#åçûìßííûé_ãðàäèåíò_40"/><linearGradient id="åçûìßííûé_ãðàäèåíò_40-4" x1="172.63" y1="483.82" x2="225.67" y2="483.82" xlink:href="#åçûìßííûé_ãðàäèåíò_40"/><linearGradient id="åçûìßííûé_ãðàäèåíò_40-5" x1="136.55" y1="479.11" x2="194.56" y2="479.11" xlink:href="#åçûìßííûé_ãðàäèåíò_40"/><linearGradient id="åçûìßííûé_ãðàäèåíò_40-6" x1="104.61" y1="476.94" x2="165.37" y2="476.94" xlink:href="#åçûìßííûé_ãðàäèåíò_40"/><linearGradient id="åçûìßííûé_ãðàäèåíò_40-7" x1="62.16" y1="476.49" x2="126.48" y2="476.49" xlink:href="#åçûìßííûé_ãðàäèåíò_40"/></defs><title>background</title><g id="Layer_2" data-name="Layer 2"><g id="Layer_1-2" data-name="Layer 1"><g class="cls-2"><polygon class="cls-3" points="936.64 497 981.36 495.25 1018.33 620.85 911.25 629.23 936.64 497"/><polygon class="cls-4" points="977.76 465.08 1104.22 439.45 1106.89 630.27 997.37 627.4 977.76 465.08"/><polygon class="cls-5" points="1104.3 445.23 981.94 467.44 1000.12 621.24 996.29 620.46 977.76 465.08 1104.22 439.45 1104.3 445.23"/><polygon class="cls-5" points="1106.89 493.46 985.7 509.82 985.7 514.14 1106.89 499.79 1106.89 493.46"/><polygon class="cls-5" points="991.51 561.88 1111.76 563.66 1111.76 565.85 991.51 568.16 991.51 561.88"/><polygon class="cls-6" points="2016.32 895.09 1094.39 627.46 900.85 615.99 61.34 885.51 61.34 1142.27 2016.32 1142.27 2016.32 895.09"/><g class="cls-7"><polygon class="cls-4" points="2006.23 859.33 2006.23 57.47 1091.97 330.2 1099.57 622.12 2006.23 859.33"/><polygon class="cls-5" points="2006.23 22.01 1085.11 325.32 1089.29 623.59 2006.23 888.4 2006.23 859.33 1099.57 622.12 1091.97 330.2 2006.23 57.47 2006.23 22.01"/><polygon class="cls-8" points="1099.57 622.12 1091.97 330.2 1129.42 335.04 1133.01 620.5 1099.57 622.12"/><polygon class="cls-9" points="2006.23 799.42 1133.01 620.5 1099.57 622.12 2006.23 859.33 2006.23 799.42"/><polygon class="cls-8" points="1813.83 808.85 1950.02 788.71 1945.14 141.88 1784.32 123.67 1813.83 808.85"/><polygon class="cls-8" points="1514.92 730.79 1531.53 198.97 1636.41 213.87 1636.41 728.69 1514.92 730.79"/><polygon class="cls-8" points="1361.47 690.17 1367.12 248.12 1474.98 251.82 1440.1 684.98 1361.47 690.17"/><polygon class="cls-8" points="1255.35 662.88 1227.39 289.49 1295.38 296.26 1319.81 658.77 1255.35 662.88"/><polygon class="cls-8" points="1154.2 636.41 1196.76 633.56 1217.61 331.04 1145.74 314.4 1154.2 636.41"/><polygon class="cls-10" points="1897.97 280.44 1945.14 141.88 2006.23 123.67 2006.23 57.47 1784.32 123.67 1792.06 297.34 1897.97 280.44"/><polygon class="cls-10" points="1801.24 514.86 1792.87 316.57 2006.23 286.57 2006.23 359.64 1946.48 319.33 1884.04 514.86 1801.24 514.86"/><polygon class="cls-10" points="2006.23 593.18 1948.42 576.48 1813.83 808.85 1802.18 538.29 2006.23 548.44 2006.23 593.18"/><polygon class="cls-10" points="1770.82 166.7 1636.41 213.87 1527.15 339.03 1531.78 199 1769.11 128.21 1770.82 166.7"/><polygon class="cls-10" points="1524.19 219.68 1474.98 251.82 1365.56 365.35 1367.12 248.12 1524.19 201.26 1524.19 219.68"/><polygon class="cls-10" points="1363.83 502.87 1365.42 376.29 1518.85 354.77 1463.52 394.07 1363.83 502.87"/><polygon class="cls-10" points="1777.57 318.57 1526.76 354.37 1521.91 506.81 1636.01 420.98 1778.53 340.33 1777.57 318.57"/><polygon class="cls-10" points="1787.34 538.44 1521.31 526.3 1514.92 730.79 1636.41 613.74 1788.03 553.97 1787.34 538.44"/><polygon class="cls-10" points="1507.17 526.3 1452.47 531.36 1361.47 690.17 1363.83 519.11 1507.17 526.3"/><polygon class="cls-10" points="1255.35 662.88 1244.17 513.64 1353.66 518.64 1309.5 522.34 1255.35 662.88"/><polygon class="cls-10" points="1353.66 377.89 1235.25 394.46 1243.78 500.06 1302.65 404.12 1353.66 377.89"/><polygon class="cls-10" points="1234.8 385.31 1227.39 289.49 1353.66 252.14 1296.46 303.12 1234.8 385.31"/><polygon class="cls-10" points="1221.19 291.65 1145.74 314.4 1147.98 399.71 1216.62 330.81 1223.93 324.69 1221.19 291.65"/><polygon class="cls-10" points="1229.41 395.27 1148.17 406.87 1149.43 448.52 1211.83 414.89 1231.08 416.74 1229.41 395.27"/><polygon class="cls-10" points="1154.2 636.41 1150.86 509.38 1238.48 513.64 1240.57 538.87 1204.28 529.68 1154.2 636.41"/><polygon class="cls-10" points="1099.57 622.12 1131.89 531.39 1145.73 532.57 1144.87 509.11 1096.57 506.91 1099.57 622.12"/><polygon class="cls-10" points="1096.3 496.25 1094.16 414.2 1140.85 407.73 1140.85 411.64 1130.7 431.15 1096.3 496.25"/><polygon class="cls-10" points="1137.15 316.72 1091.97 330.2 1094.03 409.03 1129.42 335.04 1137.43 321.59 1137.15 316.72"/><polygon class="cls-11" points="1520.37 508.92 1531.34 446.47 1518.49 430.35 1504.27 430.35 1491.03 444.96 1497.4 508.08 1520.37 508.92"/><polygon class="cls-12" points="1518.49 430.35 1517.77 426.41 1503.41 427.29 1504.27 430.35 1518.49 430.35"/><polygon class="cls-13" points="1511.19 430.35 1503.41 445.56 1528.47 447.16 1514.41 508.5 1497.4 508.08 1491.03 444.96 1504.27 430.35 1511.19 430.35"/><polygon class="cls-14" points="1528.91 460.33 1508.03 463.42 1508.03 477.03 1526.56 474.76 1528.91 460.33"/><polygon class="cls-11" points="1487.64 506.41 1498.14 446.67 1485.84 431.24 1472.23 431.24 1459.56 445.22 1465.66 505.61 1487.64 506.41"/><polygon class="cls-15" points="1485.84 431.24 1485.39 427.45 1471.41 428.31 1472.23 431.24 1485.84 431.24"/><polygon class="cls-13" points="1478.85 431.24 1471.41 445.79 1495.39 447.32 1481.93 506.01 1465.66 505.61 1459.56 445.22 1472.23 431.24 1478.85 431.24"/><polygon class="cls-14" points="1495.81 459.93 1468.88 458.8 1475.83 475.9 1493.56 473.73 1495.81 459.93"/><polygon class="cls-11" points="1456.99 506.63 1467.5 446.88 1455.2 431.45 1441.59 431.45 1428.92 445.43 1435.02 505.82 1456.99 506.63"/><polygon class="cls-15" points="1455.2 431.45 1454.74 427.67 1440.77 428.52 1441.59 431.45 1455.2 431.45"/><polygon class="cls-13" points="1448.21 431.45 1440.77 446 1464.75 447.53 1451.29 506.23 1435.02 505.82 1428.92 445.43 1441.59 431.45 1448.21 431.45"/><polygon class="cls-14" points="1465.16 460.14 1440.77 460.14 1435.77 475.92 1462.92 473.94 1465.16 460.14"/><polygon class="cls-11" points="1424.44 505.17 1434.31 449.03 1422.75 434.54 1409.97 434.54 1398.07 447.68 1403.79 504.42 1424.44 505.17"/><polygon class="cls-12" points="1422.75 434.54 1423.97 430.88 1409.2 431.78 1409.97 434.54 1422.75 434.54"/><polygon class="cls-13" points="1416.19 434.54 1409.2 448.21 1431.73 449.65 1419.09 504.8 1403.79 504.42 1398.07 447.68 1409.97 434.54 1416.19 434.54"/><polygon class="cls-14" points="1432.12 461.49 1401.49 456.5 1400.7 473.82 1430.01 474.46 1432.12 461.49"/><polygon class="cls-11" points="1393.21 501.85 1402.38 449.71 1391.64 436.25 1379.77 436.25 1368.71 448.45 1374.03 501.15 1393.21 501.85"/><polygon class="cls-12" points="1391.64 436.25 1392.78 432.85 1379.05 433.69 1379.77 436.25 1391.64 436.25"/><polygon class="cls-13" points="1385.55 436.25 1379.05 448.94 1399.98 450.28 1388.24 501.5 1374.03 501.15 1368.71 448.45 1379.77 436.25 1385.55 436.25"/><polygon class="cls-14" points="1400.34 461.28 1371.89 456.64 1371.16 472.73 1398.38 473.33 1400.34 461.28"/><polygon class="cls-11" points="1571.2 336.63 1583.15 268.65 1569.16 251.1 1553.68 251.1 1539.27 267.01 1546.2 335.72 1571.2 336.63"/><polygon class="cls-15" points="1569.16 251.1 1570.63 246.68 1552.74 247.76 1553.68 251.1 1569.16 251.1"/><polygon class="cls-13" points="1561.21 251.1 1552.74 267.65 1580.02 269.39 1564.72 336.18 1546.2 335.72 1539.27 267.01 1553.68 251.1 1561.21 251.1"/><polygon class="cls-14" points="1580.5 283.74 1543.41 277.69 1542.46 298.66 1577.95 299.45 1580.5 283.74"/><polygon class="cls-11" points="1593.7 331.55 1606.7 257.54 1591.47 238.44 1574.62 238.44 1558.93 255.75 1566.48 330.55 1593.7 331.55"/><polygon class="cls-15" points="1591.47 238.44 1593.08 233.62 1573.6 234.8 1574.62 238.44 1591.47 238.44"/><polygon class="cls-13" points="1582.82 238.44 1573.6 256.45 1603.3 258.35 1586.64 331.05 1566.84 334.13 1558.93 255.75 1574.62 238.44 1582.82 238.44"/><polygon class="cls-14" points="1603.82 273.97 1564.57 271.5 1562.41 290.21 1601.04 291.07 1603.82 273.97"/><polygon class="cls-11" points="1623.21 331.55 1637.05 252.8 1620.84 232.47 1602.91 232.47 1586.22 250.9 1594.25 330.49 1623.21 331.55"/><polygon class="cls-15" points="1620.84 232.47 1622.56 227.34 1601.83 228.61 1602.91 232.47 1620.84 232.47"/><polygon class="cls-13" points="1611.63 232.47 1601.83 251.65 1633.43 253.66 1615.7 331.02 1594.25 330.49 1586.22 250.9 1602.91 232.47 1611.63 232.47"/><polygon class="cls-14" points="1633.98 270.28 1595.28 271.5 1596.57 287.71 1631.03 288.47 1633.98 270.28"/><polygon class="cls-11" points="1654.94 329.75 1669.25 248.32 1652.49 227.3 1633.95 227.3 1616.68 246.35 1624.99 328.65 1654.94 329.75"/><polygon class="cls-15" points="1652.49 227.3 1654.26 222 1632.83 223.3 1633.95 227.3 1652.49 227.3"/><polygon class="cls-13" points="1642.96 227.3 1632.83 247.13 1665.5 249.21 1647.17 329.2 1624.99 328.65 1616.68 246.35 1633.95 227.3 1642.96 227.3"/><polygon class="cls-14" points="1666.07 266.39 1621.64 259.15 1626.39 284.4 1663.01 285.21 1666.07 266.39"/><polygon class="cls-11" points="1694.37 325.32 1711.35 239.76 1691.47 217.67 1669.47 217.67 1648.99 237.69 1658.84 324.18 1694.37 325.32"/><polygon class="cls-15" points="1691.47 217.67 1693.57 212.09 1668.14 213.47 1669.47 217.67 1691.47 217.67"/><polygon class="cls-13" points="1680.17 217.67 1668.14 238.5 1706.91 240.69 1685.16 324.75 1655.76 323.45 1648.99 237.69 1669.47 217.67 1680.17 217.67"/><polygon class="cls-14" points="1707.59 258.75 1654.46 259.15 1661.51 277.69 1703.96 278.52 1707.59 258.75"/><polygon class="cls-11" points="1733.88 315.2 1750.86 229.63 1730.97 207.54 1708.98 207.54 1688.49 227.56 1698.35 314.05 1733.88 315.2"/><polygon class="cls-15" points="1730.97 207.54 1733.07 201.97 1707.65 203.34 1708.98 207.54 1730.97 207.54"/><polygon class="cls-13" points="1719.68 207.54 1707.65 228.38 1746.42 230.57 1724.66 314.63 1695.75 313.99 1688.49 227.56 1708.98 207.54 1719.68 207.54"/><polygon class="cls-14" points="1747.09 248.62 1697.51 246.68 1693.03 267.41 1743.46 268.39 1747.09 248.62"/><polygon class="cls-16" points="1809.68 517.34 1811.41 437.61 1870.51 435.23 1858.42 518.12 1809.68 517.34"/><polygon class="cls-17" points="1870.51 435.23 1881.07 439.62 1870.51 513.23 1858.42 518.12 1870.51 435.23"/><polygon class="cls-14" points="1817.17 512.86 1817.93 451.95 1858.21 455.33 1850.68 511.51 1817.17 512.86"/><polygon class="cls-16" points="1845.37 434.25 1847.11 354.52 1906.2 352.14 1894.11 435.03 1845.37 434.25"/><polygon class="cls-17" points="1906.2 352.14 1916.76 356.52 1906.2 430.14 1894.11 435.03 1906.2 352.14"/><polygon class="cls-14" points="1852.87 429.77 1853.62 368.86 1893.67 373.97 1886.37 428.42 1852.87 429.77"/><polygon class="cls-16" points="1845.36 516.44 1843.3 429.4 1911.88 426.65 1898.66 517.28 1845.36 516.44"/><polygon class="cls-17" points="1911.88 426.65 1923.43 431.44 1911.88 511.94 1898.66 517.28 1911.88 426.65"/><polygon class="cls-14" points="1853.55 511.53 1854.38 444.93 1898.17 450.59 1890.19 510.06 1853.55 511.53"/><polygon class="cls-16" points="1878.84 516.37 1880.72 429.77 1948.5 422.33 1934.66 517.26 1878.84 516.37"/><polygon class="cls-17" points="1948.5 422.33 1960.6 427.36 1948.5 511.66 1934.66 517.26 1948.5 422.33"/><polygon class="cls-14" points="1887.42 511.24 1888.29 441.48 1934.23 446.77 1925.79 509.69 1887.42 511.24"/><polygon class="cls-16" points="1891.63 430.65 1893.62 339.34 1961.3 336.62 1947.46 431.54 1891.63 430.65"/><polygon class="cls-17" points="1961.3 336.62 1973.39 341.63 1961.3 425.94 1947.46 431.54 1961.3 336.62"/><polygon class="cls-14" points="1900.22 425.52 1901.09 355.76 1947.64 356.53 1938.59 423.98 1900.22 425.52"/><polygon class="cls-16" points="1923.43 518.66 1925.44 425.91 1997.19 419.09 1982.53 519.6 1923.43 518.66"/><polygon class="cls-17" points="1997.19 419.09 2010 424.4 1997.19 513.67 1982.53 519.6 1997.19 419.09"/><polygon class="cls-14" points="1932.52 513.22 1934.84 450.59 1982.72 440.18 1973.15 511.59 1932.52 513.22"/><polygon class="cls-16" points="1941.89 429.53 1943.99 332.84 2015.65 329.96 2001 430.47 1941.89 429.53"/><polygon class="cls-17" points="2015.65 329.96 2028.46 335.27 2015.66 424.54 2001 430.47 2015.65 329.96"/><polygon class="cls-14" points="1950.98 424.09 1951.9 350.23 2001.18 351.05 1991.61 422.46 1950.98 424.09"/><polygon class="cls-18" points="1580.04 426.46 1581.52 358.52 1631.88 356.5 1621.58 427.12 1580.04 426.46"/><polygon class="cls-12" points="1631.88 356.5 1666.1 359.19 1658.63 427.73 1621.58 427.12 1631.88 356.5"/><polygon class="cls-14" points="1586.43 422.64 1587.08 370.74 1621.4 373.62 1614.98 421.49 1586.43 422.64"/><polygon class="cls-18" points="1657.22 427.81 1658.92 349.34 1717.08 347.01 1705.19 428.58 1657.22 427.81"/><polygon class="cls-12" points="1717.08 347.01 1756.61 350.12 1747.98 429.28 1705.19 428.58 1717.08 347.01"/><polygon class="cls-14" points="1664.59 423.4 1665.34 363.46 1704.98 366.78 1697.57 422.08 1664.59 423.4"/><polygon class="cls-18" points="1541.2 508.02 1542.94 428.28 1602.03 425.91 1589.95 508.79 1541.2 508.02"/><polygon class="cls-12" points="1602.03 425.91 1642.2 429.07 1633.43 509.51 1589.95 508.79 1602.03 425.91"/><polygon class="cls-14" points="1548.7 503.53 1549.46 442.63 1589.74 446 1582.2 502.19 1548.7 503.53"/><polygon class="cls-18" points="1614.99 511.41 1616.86 425.4 1680.6 422.83 1667.57 512.25 1614.99 511.41"/><polygon class="cls-12" points="1680.6 422.83 1723.93 426.25 1714.48 513.02 1667.57 512.25 1680.6 422.83"/><polygon class="cls-14" points="1623.09 504.95 1623.91 439.25 1667.34 444.51 1659.22 505.12 1623.09 504.95"/><polygon class="cls-18" points="1692.57 513.02 1694.49 424.64 1758.24 422.08 1744.98 513.02 1692.57 513.02"/><polygon class="cls-12" points="1758.24 422.08 1797.39 427.12 1790.91 514.86 1744.98 513.02 1758.24 422.08"/><polygon class="cls-14" points="1700.7 505.82 1701.52 440.11 1748.42 435.23 1736.85 504.37 1700.7 505.82"/><polygon class="cls-14" points="1815.01 293.64 1799.33 147.31 1845.37 147.31 1846.78 288.47 1815.01 293.64"/><polygon class="cls-17" points="1802.55 177.41 1845.72 182.3 1845.37 147.31 1799.33 147.31 1802.55 177.41"/><polygon class="cls-14" points="1838.73 290.83 1823.05 144.51 1869.1 144.51 1870.5 285.67 1838.73 290.83"/><polygon class="cls-17" points="1826.28 174.6 1869.44 179.49 1869.1 144.51 1823.05 144.51 1826.28 174.6"/><polygon class="cls-14" points="1894.7 280.71 1879.02 134.38 1925.06 134.38 1926.47 275.54 1894.7 280.71"/><polygon class="cls-17" points="1882.24 164.47 1925.41 169.37 1925.06 134.38 1879.02 134.38 1882.24 164.47"/><polygon class="cls-14" points="1965.35 272.13 1949.67 125.8 1995.71 125.8 1997.12 266.96 1965.35 272.13"/><polygon class="cls-17" points="1952.9 155.9 1996.06 160.79 1995.71 125.8 1949.67 125.8 1952.9 155.9"/><polygon class="cls-19" points="1545.97 667.32 1547.47 598.41 1597.18 596.41 1587.78 676.46 1545.97 667.32"/><polygon class="cls-20" points="1597.18 596.41 1627.7 600.34 1622.65 668.75 1587.78 676.46 1597.18 596.41"/><polygon class="cls-18" points="1552.32 661.7 1552.95 610.47 1589.52 606.66 1584.99 656.9 1552.32 661.7"/><polygon class="cls-19" points="1607.28 677.32 1608.94 600.58 1664.3 598.35 1653.84 687.5 1607.28 677.32"/><polygon class="cls-20" points="1664.3 598.35 1698.3 602.73 1692.68 678.92 1653.84 687.5 1664.3 598.35"/><polygon class="cls-18" points="1614.47 660.67 1615.05 614.01 1655.77 609.77 1650.77 665.32 1614.47 660.67"/><polygon class="cls-19" points="1671.19 692.38 1673.05 606.7 1734.86 604.21 1723.18 703.75 1671.19 692.38"/><polygon class="cls-20" points="1734.86 604.21 1772.81 609.1 1766.53 694.16 1723.18 703.75 1734.86 604.21"/><polygon class="cls-18" points="1679.08 685.4 1679.87 621.7 1725.33 616.96 1718.14 696.84 1679.08 685.4"/><polygon class="cls-19" points="1534.18 734.13 1535.68 665.22 1585.38 663.22 1575.99 743.27 1534.18 734.13"/><polygon class="cls-20" points="1585.38 663.22 1615.91 667.15 1610.86 735.56 1575.99 743.27 1585.38 663.22"/><polygon class="cls-18" points="1540.53 728.51 1541.16 677.28 1577.29 678.38 1571.94 737.71 1540.53 728.51"/><polygon class="cls-19" points="1595.48 744.14 1597.15 667.39 1652.51 665.16 1642.05 754.32 1595.48 744.14"/><polygon class="cls-20" points="1652.51 665.16 1686.51 669.54 1680.88 745.73 1642.05 754.32 1652.51 665.16"/><polygon class="cls-18" points="1602.55 737.88 1607.28 674.9 1643.98 676.59 1637.54 748.13 1602.55 737.88"/><polygon class="cls-19" points="1659.39 759.2 1661.26 673.51 1723.06 671.02 1711.38 770.56 1659.39 759.2"/><polygon class="cls-20" points="1723.06 671.02 1761.02 675.91 1754.74 760.98 1711.38 770.56 1723.06 671.02"/><polygon class="cls-18" points="1667.28 752.21 1673.88 681.31 1713.54 683.78 1706.34 763.65 1667.28 752.21"/><polygon class="cls-21" points="1201.78 595.7 1202.82 547.72 1237.43 546.33 1230.89 602.07 1201.78 595.7"/><polygon class="cls-19" points="1237.43 546.33 1258.69 549.07 1255.17 596.7 1230.89 602.07 1237.43 546.33"/><polygon class="cls-14" points="1206.2 591.79 1206.64 556.12 1232.1 553.47 1228.95 588.45 1206.2 591.79"/><polygon class="cls-21" points="1244.47 602.67 1245.63 549.23 1284.18 547.68 1276.89 609.76 1244.47 602.67"/><polygon class="cls-19" points="1284.18 547.68 1307.85 550.73 1303.93 603.78 1276.89 609.76 1284.18 547.68"/><polygon class="cls-14" points="1249.48 591.08 1249.88 558.59 1278.24 555.63 1274.75 594.32 1249.48 591.08"/><polygon class="cls-21" points="1288.97 613.16 1290.27 553.49 1333.31 551.76 1325.17 621.07 1288.97 613.16"/><polygon class="cls-18" points="1333.31 551.76 1359.74 555.17 1355.36 614.4 1325.17 621.07 1333.31 551.76"/><polygon class="cls-14" points="1294.46 608.3 1295.02 563.94 1326.67 560.64 1321.66 616.26 1294.46 608.3"/><polygon class="cls-21" points="1193.57 642.23 1194.61 594.25 1229.22 592.85 1222.68 648.59 1193.57 642.23"/><polygon class="cls-19" points="1229.22 592.85 1250.48 595.59 1246.96 643.23 1222.68 648.59 1229.22 592.85"/><polygon class="cls-14" points="1197.99 638.32 1198.43 602.64 1223.58 603.41 1219.86 644.72 1197.99 638.32"/><polygon class="cls-21" points="1236.25 649.2 1237.42 595.75 1275.97 594.21 1268.68 656.28 1236.25 649.2"/><polygon class="cls-19" points="1275.97 594.21 1299.64 597.25 1295.72 650.31 1268.68 656.28 1275.97 594.21"/><polygon class="cls-14" points="1241.17 644.84 1244.47 600.99 1270.03 602.16 1265.54 651.98 1241.17 644.84"/><polygon class="cls-21" points="1280.76 659.68 1282.06 600.02 1325.09 598.29 1316.96 667.6 1280.76 659.68"/><polygon class="cls-18" points="1325.09 598.29 1351.53 601.69 1347.15 660.92 1316.96 667.6 1325.09 598.29"/><polygon class="cls-14" points="1286.25 654.82 1290.85 605.45 1318.46 607.17 1313.45 662.78 1286.25 654.82"/><path class="cls-12" d="M1930.11,642.11s-8.15-9-18.33-6.21-13.44,8.07-13.44,8.07-9.37-14.56-21.18-12.92-13.85,4.85-13.85,4.85-10.14-9.55-20.34-10.28-16.26,8.21-16.26,8.21-15.12-4.17-24.49,0-12.63,8.28-12.63,8.28-18.68-5.75-24-1.58-5.94,7.29-5.94,7.29-16.07-5.6-22.78-2.92-13.52,12.1-13.52,12.1l206.8,28.38Z" transform="translate(76.12 45.41)"/><path class="cls-18" d="M1784.42,650.5c25.73-.63,27,19.26,2.14,19.7C1765.19,670.57,1755.17,651.21,1784.42,650.5Z" transform="translate(76.12 45.41)"/><polygon class="cls-20" points="1870.3 696.84 1874.74 693.6 1863.83 695.89 1860.12 690.88 1860.54 695.91 1847.26 695.89 1858.16 697.63 1856.63 701.96 1863.18 698.4 1870.48 700.09 1870.3 696.84"/><path class="cls-18" d="M1825.27,659.87c25.73-.62,27,19.26,2.14,19.7C1806,680,1796,660.59,1825.27,659.87Z" transform="translate(76.12 45.41)"/><polygon class="cls-20" points="1911.14 706.22 1915.59 702.97 1904.68 705.27 1900.97 700.26 1901.39 705.28 1888.1 705.27 1899.01 707.01 1897.48 711.33 1904.03 707.77 1911.33 709.46 1911.14 706.22"/><path class="cls-18" d="M1884.23,665.44c25.73-.62,27,19.26,2.15,19.7C1865,685.52,1855,666.16,1884.23,665.44Z" transform="translate(76.12 45.41)"/><polygon class="cls-20" points="1970.11 711.79 1974.55 708.54 1963.64 710.84 1959.93 705.83 1960.35 710.85 1947.07 710.84 1957.97 712.58 1956.44 716.9 1962.99 713.34 1970.3 715.03 1970.11 711.79"/><path class="cls-18" d="M1922.52,674.39c23.16-.57,24.33,17.33,1.93,17.73C1905.21,692.45,1896.19,675,1922.52,674.39Z" transform="translate(76.12 45.41)"/><polygon class="cls-20" points="2007.42 720.64 2011.42 717.72 2001.6 719.78 1998.27 715.27 1998.64 719.8 1986.68 719.78 1996.5 721.35 1995.12 725.24 2001.01 722.04 2007.59 723.56 2007.42 720.64"/><polygon class="cls-5" points="2006.23 859.33 2006.23 730.79 1799.43 702.41 1813.83 808.85 2006.23 859.33"/><polygon class="cls-5" points="1784.32 123.67 1815.01 815.93 1799.43 810.72 1769.11 128.21 1784.32 123.67"/><polygon class="cls-5" points="1531.78 190.82 1514.71 737.58 1503.88 733.59 1525.22 193.65 1531.78 190.82"/><polygon class="cls-5" points="1367.12 241.88 1361.39 697.29 1353.66 691.91 1353.66 241.88 1367.12 241.88"/><polygon class="cls-5" points="1226.96 283.71 1255.78 668.63 1250.17 662.42 1221.19 289.41 1226.96 283.71"/><polygon class="cls-5" points="1145.63 310.33 1154.32 641.1 1149.98 637.73 1137.15 314.4 1145.63 310.33"/><polygon class="cls-5" points="1086.3 409.96 2006.23 263.16 2006.23 286.57 1089.22 414.89 1086.3 409.96"/><polygon class="cls-5" points="1086.87 496.25 2006.23 518.56 2006.23 548.44 1091.97 506.7 1086.87 496.25"/></g><polygon class="cls-22" points="250.49 15.31 326.95 54.85 1802.1 28.55 1878.6 7.31 250.49 15.31"/><polygon class="cls-22" points="386.24 102.48 1612.12 102.48 1556.64 119.11 502.7 134.89 386.24 102.48"/><polygon class="cls-22" points="654.36 205.65 701.48 224.36 1237.48 239.16 1304.55 222.41 654.36 205.65"/><polygon class="cls-5" points="61.14 721.19 242.37 704.3 235.83 823.23 64.43 881.34 61.14 721.19"/><g class="cls-23"><polygon class="cls-4" points="932.98 465.09 806.52 439.46 803.85 630.28 913.36 627.41 932.98 465.09"/><polygon class="cls-5" points="806.44 445.23 928.79 467.44 910.61 621.24 914.45 620.47 932.98 465.09 806.52 439.46 806.44 445.23"/><polygon class="cls-5" points="803.85 493.47 925.04 509.83 925.04 514.15 803.85 499.8 803.85 493.47"/><polygon class="cls-5" points="919.23 561.88 798.98 563.67 798.98 565.85 919.23 568.17 919.23 561.88"/><polygon class="cls-4" points="56.91 866.02 56.91 64.16 854.17 336.88 847.54 628.81 56.91 866.02"/><polygon class="cls-5" points="56.91 28.7 860.16 332.01 856.51 630.28 56.91 895.09 56.91 866.02 847.54 628.81 854.17 336.88 56.91 64.16 56.91 28.7"/><polygon class="cls-8" points="847.54 628.81 854.17 336.88 821.52 341.73 818.39 627.18 847.54 628.81"/><polygon class="cls-9" points="56.91 806.11 818.39 627.18 847.54 628.81 56.91 866.02 56.91 806.11"/><polygon class="cls-8" points="224.69 815.53 105.93 795.4 110.19 148.56 250.43 130.36 224.69 815.53"/><polygon class="cls-8" points="485.35 737.48 470.87 205.65 379.41 220.56 379.41 735.38 485.35 737.48"/><polygon class="cls-8" points="619.16 696.86 614.24 254.81 520.18 258.5 550.6 691.67 619.16 696.86"/><polygon class="cls-8" points="711.71 669.56 736.08 296.18 676.8 302.95 655.49 665.46 711.71 669.56"/><polygon class="cls-8" points="799.91 643.1 762.8 640.25 744.62 337.73 807.29 321.09 799.91 643.1"/><polygon class="cls-10" points="151.32 287.13 110.19 148.56 56.91 130.36 56.91 64.16 250.43 130.36 243.68 304.03 151.32 287.13"/><polygon class="cls-10" points="235.67 521.55 242.97 323.25 56.91 293.26 56.91 366.33 109.02 326.02 163.47 521.55 235.67 521.55"/><polygon class="cls-10" points="56.91 599.87 107.33 583.17 224.69 815.53 234.85 544.98 56.91 555.13 56.91 599.87"/><polygon class="cls-10" points="262.2 173.39 379.41 220.56 474.68 345.72 470.65 205.69 263.69 134.89 262.2 173.39"/><polygon class="cls-10" points="477.26 226.37 520.18 258.5 615.59 372.04 614.24 254.81 477.26 207.95 477.26 226.37"/><polygon class="cls-10" points="617.1 509.56 615.71 382.97 481.92 361.46 530.17 400.76 617.1 509.56"/><polygon class="cls-10" points="256.31 325.26 475.02 361.06 479.25 513.49 379.76 427.67 255.47 347.01 256.31 325.26"/><polygon class="cls-10" points="247.8 545.13 479.78 532.99 485.35 737.48 379.41 620.43 247.19 560.66 247.8 545.13"/><polygon class="cls-10" points="492.11 532.99 539.81 538.05 619.16 696.86 617.1 525.8 492.11 532.99"/><polygon class="cls-10" points="711.71 669.56 721.45 520.33 625.98 525.33 664.49 529.03 711.71 669.56"/><polygon class="cls-10" points="625.98 384.58 729.23 401.15 721.79 506.75 670.46 410.81 625.98 384.58"/><polygon class="cls-10" points="729.62 391.99 736.08 296.18 625.98 258.82 675.85 309.81 729.62 391.99"/><polygon class="cls-10" points="741.5 298.34 807.29 321.09 805.33 406.39 745.48 337.5 739.1 331.38 741.5 298.34"/><polygon class="cls-10" points="734.32 401.96 805.17 413.56 804.07 455.21 749.66 421.58 732.87 423.43 734.32 401.96"/><polygon class="cls-10" points="799.91 643.1 802.82 516.07 726.41 520.33 724.59 545.56 756.24 536.37 799.91 643.1"/><polygon class="cls-10" points="847.54 628.81 819.37 538.08 807.29 539.26 808.04 515.8 850.16 513.6 847.54 628.81"/><polygon class="cls-10" points="850.4 502.94 852.26 420.89 811.55 414.42 811.55 418.33 820.4 437.83 850.4 502.94"/><polygon class="cls-10" points="814.78 323.41 854.17 336.88 852.38 415.72 821.52 341.73 814.53 328.28 814.78 323.41"/><polygon class="cls-24" points="578.51 374.26 569.36 314.51 580.08 299.08 591.95 299.08 602.99 313.07 597.68 373.46 578.51 374.26"/><polygon class="cls-12" points="580.08 299.08 580.48 295.3 592.66 296.15 591.95 299.08 580.08 299.08"/><polygon class="cls-25" points="586.18 299.08 592.66 313.63 571.75 315.16 583.49 373.86 597.68 373.46 602.99 313.07 591.95 299.08 586.18 299.08"/><polygon class="cls-14" points="571.39 327.77 594.87 326.64 596.92 336.47 573.35 341.58 571.39 327.77"/><polygon class="cls-24" points="542.3 364.89 532.69 302.23 543.94 286.06 556.38 286.06 567.97 300.72 562.39 364.05 542.3 364.89"/><polygon class="cls-12" points="543.94 286.06 544.35 282.09 557.13 282.98 556.38 286.06 543.94 286.06"/><polygon class="cls-25" points="550.33 286.06 557.13 301.31 535.21 302.92 547.51 364.47 562.39 364.05 567.97 300.72 556.38 286.06 550.33 286.06"/><polygon class="cls-14" points="534.83 316.14 563.93 315.43 563.93 332.89 536.88 330.62 534.83 316.14"/><polygon class="cls-24" points="500.39 355.85 490.54 291.59 502.07 275.01 514.83 275.01 526.71 290.04 521 354.98 500.39 355.85"/><polygon class="cls-12" points="502.07 275.01 502.5 270.94 515.6 271.85 514.83 275.01 502.07 275.01"/><polygon class="cls-25" points="508.63 275.01 515.6 290.65 493.12 292.3 505.73 355.42 521 354.98 526.71 290.04 514.83 275.01 508.63 275.01"/><polygon class="cls-14" points="492.73 305.85 523.4 304.38 521.57 321.09 494.83 320.7 492.73 305.85"/><polygon class="cls-26" points="486.27 516.85 477.11 457.11 487.84 441.68 499.7 441.68 510.75 455.66 505.43 516.05 486.27 516.85"/><polygon class="cls-12" points="487.84 441.68 488.23 437.9 500.42 438.75 499.7 441.68 487.84 441.68"/><polygon class="cls-17" points="493.93 441.68 500.42 456.23 479.51 457.76 491.24 516.45 505.43 516.05 510.75 455.66 499.7 441.68 493.93 441.68"/><polygon class="cls-26" points="479.14 470.37 500.42 470.37 504.77 486.15 481.1 484.17 479.14 470.37"/><polygon class="cls-26" points="517.51 515.34 508.9 459.2 518.98 444.71 530.13 444.71 540.51 457.85 535.51 514.59 517.51 515.34"/><polygon class="cls-12" points="518.98 444.71 517.91 441.05 530.8 441.95 530.13 444.71 518.98 444.71"/><polygon class="cls-17" points="524.7 444.71 530.8 458.38 511.15 459.82 522.18 514.97 535.51 514.59 540.51 457.85 530.13 444.71 524.7 444.71"/><polygon class="cls-26" points="510.81 471.66 537.52 466.67 538.21 483.99 512.65 484.63 510.81 471.66"/><polygon class="cls-26" points="548.98 512.08 540.99 459.94 550.35 446.48 560.7 446.48 570.34 458.68 565.7 511.38 548.98 512.08"/><polygon class="cls-12" points="550.35 446.48 549.36 443.08 561.32 443.92 560.7 446.48 550.35 446.48"/><polygon class="cls-17" points="555.66 446.48 561.32 459.17 543.08 460.51 553.32 511.73 565.7 511.38 570.34 458.68 560.7 446.48 555.66 446.48"/><polygon class="cls-26" points="542.76 471.51 567.57 466.87 568.2 482.95 544.47 483.56 542.76 471.51"/><polygon class="cls-27" points="197.19 440.94 195.68 361.2 144.14 358.83 154.68 441.71 197.19 440.94"/><polygon class="cls-17" points="144.14 358.83 134.93 363.21 144.14 436.83 154.68 441.71 144.14 358.83"/><polygon class="cls-14" points="190.65 436.46 189.99 375.55 155.07 380.66 161.43 435.11 190.65 436.46"/><polygon class="cls-28" points="156.84 437.34 155.11 346.02 96.09 343.3 108.17 438.23 156.84 437.34"/><polygon class="cls-17" points="96.09 343.3 85.55 348.32 96.09 432.63 108.17 438.23 96.09 343.3"/><polygon class="cls-14" points="149.36 432.21 148.6 362.45 108.01 363.22 115.9 430.67 149.36 432.21"/><polygon class="cls-29" points="113.02 436.22 111.19 339.53 48.7 336.65 61.48 437.16 113.02 436.22"/><polygon class="cls-30" points="48.7 336.65 37.53 341.96 48.69 431.23 61.48 437.16 48.7 336.65"/><polygon class="cls-14" points="105.09 430.78 104.3 356.92 61.31 357.74 69.66 429.15 105.09 430.78"/><polygon class="cls-14" points="382.87 330.71 390.44 268.94 350.86 262.82 349.92 327.78 382.87 330.71"/><polygon class="cls-17" points="350.86 262.82 343.26 265.44 342.31 323.12 349.92 327.78 350.86 262.82"/><polygon class="cls-18" points="378.3 326.7 384.48 279.56 356.95 279.25 355.86 323.23 378.3 326.7"/><polygon class="cls-14" points="367.92 263.88 375.49 202.12 335.91 195.99 334.97 260.95 367.92 263.88"/><polygon class="cls-17" points="335.91 195.99 328.31 198.62 327.36 256.3 334.97 260.95 335.91 195.99"/><polygon class="cls-18" points="363.35 259.88 369.52 212.73 341.96 213.78 340.91 256.4 363.35 259.88"/><polygon class="cls-14" points="358.91 327.43 371.42 260.95 323.91 253.18 322.88 324.22 358.91 327.43"/><polygon class="cls-17" points="323.91 253.18 315.6 256.05 314.55 319.13 322.88 324.22 323.91 253.18"/><polygon class="cls-18" points="353.92 323.04 360.67 271.49 330.53 272.69 329.38 319.25 353.92 323.04"/><polygon class="cls-14" points="336.35 324.95 344.75 256.41 299.69 247.19 298.61 321.59 336.35 324.95"/><polygon class="cls-17" points="299.69 247.19 290.99 250.2 289.89 316.25 298.61 321.59 299.69 247.19"/><polygon class="cls-18" points="331.12 320.36 338.19 266.36 306.63 267.12 305.42 316.38 331.12 320.36"/><polygon class="cls-14" points="337.12 257.75 345.8 187.01 300.47 180 299.39 254.39 337.12 257.75"/><polygon class="cls-17" points="300.47 180 291.76 183 290.67 249.06 299.39 254.39 300.47 180"/><polygon class="cls-18" points="331.9 253.16 338.96 199.16 307.5 196.38 306.19 249.18 331.9 253.16"/><polygon class="cls-14" points="306.03 323.48 314.79 252.13 267.23 241.15 266.08 319.92 306.03 323.48"/><polygon class="cls-12" points="267.23 241.15 258.01 244.33 256.85 314.28 266.08 319.92 267.23 241.15"/><polygon class="cls-18" points="300.5 318.62 305.81 270.03 274.67 258.51 273.29 314.41 300.5 318.62"/><polygon class="cls-14" points="303.36 253.23 312.55 178.33 264.56 170.91 263.41 249.68 303.36 253.23"/><polygon class="cls-12" points="264.56 170.91 255.34 174.09 254.18 244.03 263.41 249.68 264.56 170.91"/><polygon class="cls-18" points="297.83 248.37 305.31 191.2 272 188.26 270.62 244.16 297.83 248.37"/><polygon class="cls-31" points="428.56 433.15 427.27 365.21 383.36 363.19 392.34 433.81 428.56 433.15"/><polygon class="cls-32" points="383.36 363.19 353.52 365.88 360.03 434.42 392.34 433.81 383.36 363.19"/><polygon class="cls-31" points="361.26 434.5 359.78 356.03 309.06 353.69 319.43 435.26 361.26 434.5"/><polygon class="cls-32" points="309.06 353.69 274.59 356.81 282.11 435.97 319.43 435.26 309.06 353.69"/><polygon class="cls-33" points="354.83 430.09 354.18 370.15 319.61 373.47 326.08 428.76 354.83 430.09"/><polygon class="cls-31" points="462.43 514.71 460.92 434.97 409.39 432.6 419.93 515.48 462.43 514.71"/><polygon class="cls-32" points="409.39 432.6 374.36 435.76 382 516.2 419.93 515.48 409.39 432.6"/><polygon class="cls-31" points="398.09 518.1 396.46 432.08 340.87 429.52 352.24 518.93 398.09 518.1"/><polygon class="cls-32" points="340.87 429.52 303.09 432.94 311.33 519.71 352.24 518.93 340.87 429.52"/><polygon class="cls-33" points="391.02 511.64 390.31 445.93 352.43 451.2 359.52 511.81 391.02 511.64"/><polygon class="cls-31" points="330.44 519.71 328.76 431.33 273.17 428.77 284.73 519.71 330.44 519.71"/><polygon class="cls-32" points="273.17 428.77 239.03 433.81 244.68 521.55 284.73 519.71 273.17 428.77"/><polygon class="cls-33" points="323.34 512.51 322.63 446.8 281.74 441.92 291.82 511.05 323.34 512.51"/><polygon class="cls-21" points="458.27 674 456.96 605.1 413.62 603.1 421.81 683.14 458.27 674"/><polygon class="cls-19" points="413.62 603.1 387 607.03 391.41 675.44 421.81 683.14 413.62 603.1"/><polygon class="cls-14" points="452.74 668.39 452.18 617.16 420.3 613.35 424.25 663.59 452.74 668.39"/><polygon class="cls-21" points="404.81 684.01 403.36 607.26 355.08 605.04 364.21 694.19 404.81 684.01"/><polygon class="cls-14" points="398.54 667.36 398.03 620.7 362.52 616.46 366.89 672.01 398.54 667.36"/><polygon class="cls-21" points="468.55 740.82 467.25 671.91 423.9 669.91 432.1 749.96 468.55 740.82"/><polygon class="cls-19" points="423.9 669.91 397.29 673.84 401.69 742.25 432.1 749.96 423.9 669.91"/><polygon class="cls-14" points="463.02 735.2 462.47 683.97 430.97 685.07 435.63 744.4 463.02 735.2"/><polygon class="cls-21" points="415.1 750.83 413.64 674.08 365.37 671.85 374.49 761 415.1 750.83"/><polygon class="cls-14" points="408.94 744.57 404.81 681.59 372.81 683.28 378.43 754.82 408.94 744.57"/><polygon class="cls-18" points="758.42 602.39 757.51 554.41 727.33 553.02 733.03 608.76 758.42 602.39"/><polygon class="cls-12" points="727.33 553.02 708.79 555.75 711.86 603.39 733.03 608.76 727.33 553.02"/><polygon class="cls-18" points="721.19 609.36 720.18 555.92 686.57 554.37 692.92 616.45 721.19 609.36"/><polygon class="cls-12" points="686.57 554.37 665.92 557.42 669.34 610.47 692.92 616.45 686.57 554.37"/><polygon class="cls-18" points="682.39 619.85 681.25 560.18 643.72 558.45 650.82 627.76 682.39 619.85"/><polygon class="cls-19" points="643.72 558.45 620.67 561.85 624.49 621.09 650.82 627.76 643.72 558.45"/><polygon class="cls-14" points="677.6 614.99 677.11 570.63 649.51 567.33 653.88 622.95 677.6 614.99"/><polygon class="cls-18" points="765.58 648.92 764.67 600.93 734.49 599.54 740.19 655.28 765.58 648.92"/><polygon class="cls-12" points="734.49 599.54 715.95 602.28 719.02 649.91 740.19 655.28 734.49 599.54"/><polygon class="cls-18" points="715.95 655 718.42 602.98 693.73 600.89 700.08 662.97 715.95 655"/><polygon class="cls-19" points="693.73 600.89 673.08 603.94 676.5 657 700.08 662.97 693.73 600.89"/><polygon class="cls-21" points="689.55 666.37 688.41 606.71 650.88 604.98 657.98 674.28 689.55 666.37"/><polygon class="cls-19" points="650.88 604.98 627.84 608.38 631.65 667.61 657.98 674.28 650.88 604.98"/><polygon class="cls-14" points="684.76 661.51 680.75 612.14 656.67 613.86 661.04 669.47 684.76 661.51"/><polygon class="cls-34" points="61.14 721.19 61.14 706.81 226.06 692.89 237.06 704.99 61.14 721.19"/><path class="cls-35" d="M164.08,656.85C161.32,665,37.13,646,39.49,637.32S174.49,626,164.08,656.85Z" transform="translate(76.12 45.41)"/><path class="cls-30" d="M80.35,631.57s-13.46,5.77-13,7.17S86,631.55,86,631.55Z" transform="translate(76.12 45.41)"/><path class="cls-30" d="M102.71,632s-18,6.62-16.57,9.13S112,632.67,112,632.67Z" transform="translate(76.12 45.41)"/><path class="cls-30" d="M126.65,634.33s-21.26,5.48-21.49,8.26,33.09-6.16,33.09-6.16Z" transform="translate(76.12 45.41)"/><path class="cls-35" d="M112.72,662.8C110,671-14.23,652-11.87,643.28S123.13,632,112.72,662.8Z" transform="translate(76.12 45.41)"/><path class="cls-30" d="M29,637.53s-13.46,5.76-13,7.16,18.66-7.18,18.66-7.18Z" transform="translate(76.12 45.41)"/><path class="cls-30" d="M51.35,638s-18,6.62-16.57,9.13,25.83-8.5,25.83-8.5Z" transform="translate(76.12 45.41)"/><path class="cls-30" d="M75.29,640.28S54,645.76,53.8,648.54s33.09-6.15,33.09-6.15Z" transform="translate(76.12 45.41)"/><path class="cls-35" d="M48.5,667.69c-2.76,8.16-126.95-10.86-124.59-19.52S58.91,636.84,48.5,667.69Z" transform="translate(76.12 45.41)"/><path class="cls-30" d="M-35.23,642.42s-13.46,5.76-13,7.16,18.66-7.18,18.66-7.18Z" transform="translate(76.12 45.41)"/><path class="cls-30" d="M-12.87,642.88s-18,6.62-16.57,9.13,25.83-8.5,25.83-8.5Z" transform="translate(76.12 45.41)"/><path class="cls-30" d="M11.07,645.17s-21.25,5.48-21.49,8.26,33.09-6.15,33.09-6.15Z" transform="translate(76.12 45.41)"/><polygon class="cls-14" points="705.03 388.45 711.92 303.9 690.7 303.9 690.08 385.72 705.03 388.45"/><polygon class="cls-17" points="710.43 322.15 690.54 325.12 690.7 303.9 711.92 303.9 710.43 322.15"/><polygon class="cls-14" points="679.84 383.84 686.13 297.76 664.9 297.76 664.27 381 679.84 383.84"/><polygon class="cls-17" points="684.8 315.99 664.74 318.98 664.9 297.76 686.13 297.76 684.8 315.99"/><polygon class="cls-14" points="646.62 377.76 653.56 292.56 632.34 292.56 631.72 375.04 646.62 377.76"/><polygon class="cls-17" points="652.08 310.81 632.18 313.78 632.34 292.56 653.56 292.56 652.08 310.81"/><polygon class="cls-17" points="172.63 442.38 163.42 446.76 172.63 520.37 183.17 525.26 172.63 442.38"/><polygon class="cls-36" points="225.67 524.48 224.16 444.75 172.63 442.38 183.17 525.26 225.67 524.48"/><polygon class="cls-14" points="219.14 520 218.48 459.09 183.35 462.47 189.92 518.66 219.14 520"/><polygon class="cls-17" points="136.55 433.79 126.48 438.58 136.55 519.09 148.08 524.43 136.55 433.79"/><polygon class="cls-37" points="194.56 523.58 192.91 436.39 136.55 433.79 148.08 524.43 194.56 523.58"/><polygon class="cls-14" points="187.41 518.68 186.69 452.07 148.5 457.73 155.46 517.21 187.41 518.68"/><polygon class="cls-17" points="104.61 429.48 94.07 434.5 104.61 518.81 116.69 524.4 104.61 429.48"/><polygon class="cls-38" points="165.37 523.51 163.63 432.2 104.61 429.48 116.69 524.4 165.37 523.51"/><polygon class="cls-14" points="157.88 518.38 157.12 448.62 117.06 453.91 124.42 516.84 157.88 518.38"/><polygon class="cls-30" points="62.16 426.23 50.99 431.55 62.15 520.82 74.94 526.74 62.16 426.23"/><polygon class="cls-39" points="126.48 525.8 124.65 429.11 62.16 426.23 74.94 526.74 126.48 525.8"/><polygon class="cls-14" points="118.56 520.37 116.53 457.73 74.77 447.32 83.12 518.73 118.56 520.37"/><polygon class="cls-5" points="250.43 130.36 223.66 822.62 237.25 817.41 263.69 134.89 250.43 130.36"/><polygon class="cls-5" points="470.65 197.51 485.53 744.27 494.98 740.28 476.37 200.34 470.65 197.51"/><polygon class="cls-5" points="614.24 248.57 624.82 699.53 625.98 698.6 625.98 248.57 614.24 248.57"/><polygon class="cls-5" points="736.46 290.4 711.33 675.32 716.22 669.11 741.5 296.1 736.46 290.4"/><polygon class="cls-5" points="807.38 317.02 799.8 647.78 803.59 644.42 814.78 321.09 807.38 317.02"/><polygon class="cls-5" points="859.12 416.65 56.91 269.85 56.91 293.26 856.57 421.58 859.12 416.65"/><polygon class="cls-5" points="858.62 502.94 56.91 525.25 56.91 555.13 854.17 513.38 858.62 502.94"/></g><rect class="cls-1" x="98.17" width="1894.88" height="1142.27"/></g></g></g></svg>