<svg xmlns="http://www.w3.org/2000/svg" xmlns:xlink="http://www.w3.org/1999/xlink" viewBox="0 0 742.1 543.45"><defs><style>.cls-1{mask:url(#mask);filter:url(#luminosity-noclip-3);}.cls-2,.cls-4{mix-blend-mode:multiply;}.cls-2{fill:url(#linear-gradient);}.cls-3{mask:url(#mask-2);filter:url(#luminosity-noclip-4);}.cls-4{fill:url(#linear-gradient-2);}.cls-5{isolation:isolate;}.cls-6{fill:#b8725c;}.cls-7,.cls-8{opacity:0.51;mix-blend-mode:screen;}.cls-7{fill:url(#Degradado_sin_nombre_28);}.cls-8{fill:url(#Degradado_sin_nombre_28-2);}.cls-9{fill:#9e5f4d;}.cls-10{fill:#fce385;}.cls-11,.cls-19{opacity:0.64;}.cls-11{fill:url(#linear-gradient-3);}.cls-12{fill:#ec2227;}.cls-13{opacity:0.31;}.cls-14{fill:url(#Degradado_sin_nombre_9);}.cls-15{fill:url(#Degradado_sin_nombre_9-2);}.cls-16{fill:url(#Degradado_sin_nombre_9-3);}.cls-17,.cls-21,.cls-28,.cls-34,.cls-35{fill:#fff;}.cls-17{opacity:0.14;}.cls-18{font-size:54.87px;fill:#f7f5f6;stroke-width:7px;}.cls-18,.cls-35{stroke:#fff;}.cls-18,.cls-21,.cls-35{stroke-linecap:round;stroke-linejoin:round;}.cls-18,.cls-21{font-family:iCielSoupofJustice, iCiel Soup of Justice;}.cls-20{fill:#7a481d;}.cls-21{font-size:52.1px;stroke:#f9f9fa;stroke-width:8px;}.cls-22{fill:#ef4250;}.cls-23{fill:#231f20;}.cls-24{opacity:0.62;}.cls-25{fill:#010101;opacity:0.3;}.cls-26{fill:url(#linear-gradient-4);}.cls-27{fill:url(#linear-gradient-5);}.cls-28{opacity:0.1;}.cls-29{fill:url(#linear-gradient-6);}.cls-30{mask:url(#mask-3);}.cls-31{fill:url(#linear-gradient-7);}.cls-32{mask:url(#mask-4);}.cls-33{fill:url(#linear-gradient-8);}.cls-34{opacity:0.5;}.cls-35{font-size:42.08px;stroke-width:4px;font-family:MyriadPro-Bold, Myriad Pro;font-weight:700;}.cls-36{filter:url(#luminosity-noclip-2);}.cls-37{filter:url(#luminosity-noclip);}</style><filter id="luminosity-noclip" x="317.93" y="-8637.85" width="116.05" height="32766" filterUnits="userSpaceOnUse" color-interpolation-filters="sRGB"><feFlood flood-color="#fff" result="bg"/><feBlend in="SourceGraphic" in2="bg"/></filter><mask id="mask" x="317.93" y="-8637.85" width="116.05" height="32766" maskUnits="userSpaceOnUse"><g class="cls-37"/></mask><linearGradient id="linear-gradient" x1="317.93" y1="419.01" x2="433.98" y2="419.01" gradientUnits="userSpaceOnUse"><stop offset="0"/><stop offset="0.5" stop-color="#fff"/><stop offset="0.83" stop-color="#515151"/><stop offset="1"/></linearGradient><filter id="luminosity-noclip-2" x="299.85" y="-8637.85" width="152.2" height="32766" filterUnits="userSpaceOnUse" color-interpolation-filters="sRGB"><feFlood flood-color="#fff" result="bg"/><feBlend in="SourceGraphic" in2="bg"/></filter><mask id="mask-2" x="299.85" y="-8637.85" width="152.2" height="32766" maskUnits="userSpaceOnUse"><g class="cls-36"/></mask><linearGradient id="linear-gradient-2" x1="299.85" y1="482.17" x2="452.05" y2="482.17" xlink:href="#linear-gradient"/><linearGradient id="Degradado_sin_nombre_28" x1="-2553.41" y1="3958.28" x2="-2270.86" y2="3468.89" gradientTransform="matrix(0, 1, 1, 0, -3507.15, 2523.26)" gradientUnits="userSpaceOnUse"><stop offset="0" stop-color="#d08e64"/><stop offset="0.06" stop-color="#d08e64" stop-opacity="0.93"/><stop offset="0.53" stop-color="#d08e64" stop-opacity="0.44"/><stop offset="0.85" stop-color="#d08e64" stop-opacity="0.12"/><stop offset="1" stop-color="#d08e64" stop-opacity="0"/></linearGradient><linearGradient id="Degradado_sin_nombre_28-2" x1="-7921.1" y1="3884.85" x2="-7715.99" y2="3529.59" gradientTransform="translate(-3585.15 -7592.06) rotate(-90)" xlink:href="#Degradado_sin_nombre_28"/><linearGradient id="linear-gradient-3" x1="32.74" y1="271.08" x2="709.36" y2="271.08" gradientUnits="userSpaceOnUse"><stop offset="0" stop-color="#f3eded"/><stop offset="0.18" stop-color="#ecdad2" stop-opacity="0.8"/><stop offset="0.59" stop-color="#ddb297" stop-opacity="0.37"/><stop offset="0.87" stop-color="#d49872" stop-opacity="0.1"/><stop offset="1" stop-color="#d08e64" stop-opacity="0"/></linearGradient><linearGradient id="Degradado_sin_nombre_9" x1="375.95" y1="5.84" x2="375.95" y2="104.25" gradientUnits="userSpaceOnUse"><stop offset="0" stop-color="#fff"/><stop offset="0.08" stop-color="#fff" stop-opacity="0.76"/><stop offset="0.22" stop-color="#fff" stop-opacity="0.36"/><stop offset="0.31" stop-color="#fff" stop-opacity="0.1"/><stop offset="0.36" stop-color="#fff" stop-opacity="0"/></linearGradient><linearGradient id="Degradado_sin_nombre_9-2" x1="575.19" y1="12.65" x2="575.19" y2="13.02" xlink:href="#Degradado_sin_nombre_9"/><linearGradient id="Degradado_sin_nombre_9-3" x1="176.72" y1="12.65" x2="176.72" y2="13.02" xlink:href="#Degradado_sin_nombre_9"/><linearGradient id="linear-gradient-4" x1="247.11" y1="454" x2="504.79" y2="454" gradientUnits="userSpaceOnUse"><stop offset="0" stop-color="#32823f"/><stop offset="0.5" stop-color="#7bb742"/><stop offset="1" stop-color="#32823f"/></linearGradient><linearGradient id="linear-gradient-5" x1="375.95" y1="483.88" x2="375.95" y2="417.31" gradientUnits="userSpaceOnUse"><stop offset="0" stop-color="#6daf44"/><stop offset="0.02" stop-color="#6fb044"/><stop offset="1" stop-color="#bfd730"/></linearGradient><linearGradient id="linear-gradient-6" x1="375.95" y1="483.88" x2="375.95" y2="417.31" gradientUnits="userSpaceOnUse"><stop offset="0" stop-color="#5d9a42"/><stop offset="0.18" stop-color="#6fa53f"/><stop offset="1" stop-color="#bfd730"/></linearGradient><filter id="luminosity-noclip-3" x="317.93" y="417.31" width="116.05" height="3.41" filterUnits="userSpaceOnUse" color-interpolation-filters="sRGB"><feFlood flood-color="#fff" result="bg"/><feBlend in="SourceGraphic" in2="bg"/></filter><mask id="mask-3" x="317.93" y="417.31" width="116.05" height="3.41" maskUnits="userSpaceOnUse"><g class="cls-1"><rect class="cls-2" x="317.93" y="417.31" width="116.05" height="3.41"/></g></mask><linearGradient id="linear-gradient-7" x1="317.93" y1="419.01" x2="433.98" y2="419.01" gradientUnits="userSpaceOnUse"><stop offset="0" stop-color="#dbeaba"/><stop offset="0.5" stop-color="#dbeaba"/><stop offset="1" stop-color="#dbeaba"/></linearGradient><filter id="luminosity-noclip-4" x="299.85" y="480.47" width="152.2" height="3.41" filterUnits="userSpaceOnUse" color-interpolation-filters="sRGB"><feFlood flood-color="#fff" result="bg"/><feBlend in="SourceGraphic" in2="bg"/></filter><mask id="mask-4" x="299.85" y="480.47" width="152.2" height="3.41" maskUnits="userSpaceOnUse"><g class="cls-3"><rect class="cls-4" x="299.85" y="480.47" width="152.2" height="3.41"/></g></mask><linearGradient id="linear-gradient-8" x1="299.85" y1="482.17" x2="452.05" y2="482.17" xlink:href="#linear-gradient-7"/></defs><title>chucmung_code</title><g class="cls-5"><g id="Layer_2" data-name="Layer 2"><g id="Layer_1-2" data-name="Layer 1"><path class="cls-6" d="M0,452.64V87.71A64.86,64.86,0,0,1,64.86,22.85l3.06-.46a2063.41,2063.41,0,0,1,606.26,0l3.06.46A64.86,64.86,0,0,1,742.1,87.71v373c0,31.49-25.59,60.25-56.87,63.92l-8,.94a2628.46,2628.46,0,0,1-612.38,0h0C29.19,521.38,0,488.56,0,452.64Z"/><path class="cls-7" d="M6.86,330.55S453.07,269.88,469.58,1.81c0,0-187.71-10.92-397.25,21.82,0,0-48.7-3.8-63.63,49.39,0,0-1.84,9.08-1.84,24.59Z"/><path class="cls-8" d="M0,27.68S248.8,78.54,304.84,291.17c8.69,33-17.55,64.77-51.6,62.9C198,351,117.86,346.74,65.48,338c0,0-41.47,2.18-63.64-52.8,0,0-1.84-9.08-1.84-24.59Z"/><path class="cls-9" d="M17.46,444.13V96.37A61.81,61.81,0,0,1,79.27,34.56l2.92-.43a1965.23,1965.23,0,0,1,577.72,0l2.92.43a61.81,61.81,0,0,1,61.81,61.81V451.8c0,30-24.39,57.43-54.19,60.92l-7.62.89a2504.44,2504.44,0,0,1-583.56,0h0C45.28,509.63,17.46,478.36,17.46,444.13Z"/><path class="cls-10" d="M32.74,436.68V104A59.14,59.14,0,0,1,91.88,44.81l2.79-.42a1881,1881,0,0,1,552.76,0l2.79.42A59.14,59.14,0,0,1,709.36,104V444c0,28.71-23.33,54.94-51.85,58.29l-7.29.85a2397,2397,0,0,1-558.34,0h0C59.35,499.35,32.74,469.43,32.74,436.68Z"/><path class="cls-11" d="M32.74,436V103.3A59.14,59.14,0,0,1,91.88,44.16l2.79-.41a1881,1881,0,0,1,552.76,0l2.79.41a59.14,59.14,0,0,1,59.14,59.14V443.38c0,28.71-23.33,54.94-51.85,58.29l-7.29.85a2397,2397,0,0,1-558.34,0h0C59.35,498.71,32.74,468.79,32.74,436Z"/><path class="cls-12" d="M556.84,5.92H195.06a21.67,21.67,0,0,0-9.25,1.32l-.24,0,.17,0a26.07,26.07,0,0,0-8.81,5.38c1.79-1.52,9.14-7.12,17.34-4.59a13.22,13.22,0,0,1,6.89,5.27c5.6,7.94,13.44,23.09,17.73,49.31a49.52,49.52,0,0,0,48.83,41.61H484.18A49.35,49.35,0,0,0,533,63c4.49-27.83,13-43.26,18.65-50.86a11,11,0,0,1,4.18-3.5h0c.49-.13,1-.29,1.7-.5,8.25-2.61,15.65,3,17.45,4.56C566.22,4.65,556.84,5.92,556.84,5.92Z"/><path class="cls-12" d="M575,12.65c.14.12.28.23.42.37S575.25,12.87,575,12.65Z"/><path class="cls-12" d="M176.93,12.65c-.27.22-.42.37-.42.37S176.79,12.77,176.93,12.65Z"/><g class="cls-13"><path class="cls-14" d="M556.84,5.92H195.06a21.67,21.67,0,0,0-9.25,1.32l-.24,0,.17,0a26.07,26.07,0,0,0-8.81,5.38c1.79-1.52,9.14-7.12,17.34-4.59a13.22,13.22,0,0,1,6.89,5.27c5.6,7.94,13.44,23.09,17.73,49.31a49.52,49.52,0,0,0,48.83,41.61H484.18A49.35,49.35,0,0,0,533,63c4.49-27.83,13-43.26,18.65-50.86a11,11,0,0,1,4.18-3.5h0c.49-.13,1-.29,1.7-.5,8.25-2.61,15.65,3,17.45,4.56C566.22,4.65,556.84,5.92,556.84,5.92Z"/><path class="cls-15" d="M575,12.65c.14.12.28.23.42.37S575.25,12.87,575,12.65Z"/><path class="cls-16" d="M176.93,12.65c-.27.22-.42.37-.42.37S176.79,12.77,176.93,12.65Z"/></g><path class="cls-17" d="M234.91,8.5s-10.35,0-12.93,7.77S247.85,29.21,253,24,253,8.5,234.91,8.5Z"/><path class="cls-17" d="M358.6,14.61a84.07,84.07,0,0,0-34.38-5.83c-16.67.57-42.71,2.29-47.9,7.49-7.76,7.76,13,39.11,80.22,18.11C380.2,27,370.91,19.59,358.6,14.61Z"/><text class="cls-18" transform="translate(257.09 67.01)">mini game</text><g class="cls-19"><path class="cls-20" d="M281.88,33.7l9.87-.88,1.87,34-11.85-.49L282,53.84l-2.53,8.06-5.59-.16-3-7.9-.22,12.67-11.41.39,1.37-32.81L271,33.15l5.49,13.06Z"/><path class="cls-20" d="M309.37,66.84H297.24l2-33.3,10-.61Z"/><path class="cls-20" d="M329.89,33.15l10.43.94,1.37,32.81-11.85.27-6.26-15.91L324,67l-11-.17,1.87-34,9.87.88,5.6,14.1Z"/><path class="cls-20" d="M356.73,66.84H344.6l2-33.3,10-.61Z"/><path class="cls-20" d="M401.45,62.4c-5.93,4.06-12,5.32-18.11,3.84a13.89,13.89,0,0,1-9.77-8.45,21.93,21.93,0,0,1-1.81-6.59,30.14,30.14,0,0,1,1-9.05c1.15-3.57,3.79-6.75,7.85-9.49a21.09,21.09,0,0,1,13.66-.77,23.31,23.31,0,0,1,5.82,2.41L397,44.46A9.26,9.26,0,0,0,394.59,43a8.26,8.26,0,0,0-6-.17,7.4,7.4,0,0,0-4.88,7.8c.66,4.44,2.91,6.09,6.8,5l-.55-5.38c.28-.05.77-.11,1.43-.27l8-1.48Z"/><path class="cls-20" d="M403.42,66.29l8.45-33.08L426.8,33l8,33.36-10.48,1L423,60.75h-7.68l-1.26,6.59Zm17.67-14.21L419,41.82l-1.81,10.43Z"/><path class="cls-20" d="M460.44,33.7l9.87-.88,1.87,34-11.85-.49.22-12.51L458,61.9l-5.6-.16-3-7.9-.22,12.67-11.42.39,1.38-32.81,10.42-.94,5.49,13.06Z"/><path class="cls-20" d="M500,66.57l-24.81.22,1.27-33.42,23-.16L499.18,38c-.11,2.46-.17,4.06-.17,4.77l-11.41,0v3l8.5-.11L495.34,54l-8.12.28-.17,2.63,3.35,0c1.31,0,2.3,0,3-.06,4.34,0,6.48,0,6.42-.11Z"/></g><text class="cls-21" transform="translate(235.09 172.21)">chúc mừng</text><path class="cls-22" d="M264.43,167.89c0,.52-1.72,1.41-5.21,2.71a21.38,21.38,0,0,1-12.56.88,13.06,13.06,0,0,1-9.22-8.33,21.85,21.85,0,0,1-1.67-6.52,18,18,0,0,1,.31-6.25,12.84,12.84,0,0,1,8-9.38c3.23-1.41,7.29-1.77,12.14-1.15a48.78,48.78,0,0,1,6.36,1.31l-2.92,9.64a9.14,9.14,0,0,0-2.3-1.36,7.79,7.79,0,0,0-5.73-.15,7,7,0,0,0-4.63,7.39c.41,2.77,1.56,4.43,3.43,4.9s4.28-.26,7.3-2.13Z"/><path class="cls-22" d="M283.76,140.06l9.9.89,1.3,31.16-11.25.26.21-12.66h-5.16l-.57,12.5-10.48-.15,1.77-32.31,9.38.83-.1,11.62,4.95.06Z"/><path class="cls-22" d="M322.94,161.53a10.54,10.54,0,0,1-2.55,6.77c-2.24,2.82-5.31,4-9.33,3.65-5.05-.47-8.59-2.39-10.63-5.68a11.14,11.14,0,0,1-1.61-4.9l-1.46-20.94,10.79-.58,1,19.39c.36,1.93,1.2,2.81,2.5,2.66s2-1.1,2-2.92V139.75l9.9.47Zm-14.53-24.8L306,132.82l9.64-6.72,4,4.53Z"/><path class="cls-22" d="M354.42,167.89c0,.52-1.72,1.41-5.22,2.71a21.35,21.35,0,0,1-12.55.88c-4.33-1.09-7.4-3.85-9.23-8.33a22.16,22.16,0,0,1-1.67-6.52,18,18,0,0,1,.32-6.25,12.81,12.81,0,0,1,8-9.38c3.23-1.41,7.3-1.77,12.14-1.15a48.44,48.44,0,0,1,6.36,1.31l-2.92,9.64a9.07,9.07,0,0,0-2.29-1.36,7.79,7.79,0,0,0-5.73-.15,6.49,6.49,0,0,0-3.39,2.55,6.59,6.59,0,0,0-1.25,4.84c.42,2.77,1.56,4.43,3.44,4.9s4.27-.26,7.29-2.13Z"/><path class="cls-22" d="M390.05,140.58l9.38-.83,1.78,32.31L390,171.59l.21-11.88-2.4,7.66-5.31-.16-2.87-7.5-.21,12-10.84.37,1.3-31.16,9.91-.89,5.21,12.4Z"/><path class="cls-22" d="M429.86,161.53a10.54,10.54,0,0,1-2.55,6.77c-2.24,2.82-5.32,4-9.33,3.65-5.05-.47-8.6-2.39-10.63-5.68a11,11,0,0,1-1.61-4.9l-1.46-20.94,10.78-.58,1,19.39c.37,1.93,1.2,2.81,2.51,2.66s2-1.1,2-2.92V139.75l9.9.47v.52a.19.19,0,0,1,.16-.05c.78-.21,1.25-.58,1.3-1.05s-.32-1.51-1.25-2.7l3.44-3.34c.57,0,1.19.68,1.92,2.19a9,9,0,0,1,.89,5.05,5.55,5.55,0,0,1-3.13,4.22,8.61,8.61,0,0,1-2.55.94l-1,.16Zm-4.95-29.18-2.29,4.06-10.48-5.36,2.14-5.68Z"/><path class="cls-22" d="M449.35,140.06l9.9.89,1.3,31.16-11.26.26-5.94-15.11.42,15-10.47-.15,1.77-32.31,9.38.83L449.76,154Z"/><path class="cls-22" d="M491.5,167.84q-8.44,5.78-17.2,3.64a13.17,13.17,0,0,1-9.27-8,20.43,20.43,0,0,1-1.72-6.25,28.52,28.52,0,0,1,.94-8.6c1.09-3.39,3.59-6.41,7.45-9a20.14,20.14,0,0,1,13-.73,21.65,21.65,0,0,1,5.53,2.3l-2.92,9.64a9.25,9.25,0,0,0-2.29-1.36,7.82,7.82,0,0,0-5.74-.15,6.51,6.51,0,0,0-3.38,2.55,6.59,6.59,0,0,0-1.25,4.84c.62,4.23,2.76,5.79,6.46,4.75l-.52-5.11c.26,0,.73-.1,1.35-.26l7.56-1.41Z"/><path class="cls-23" d="M76.39,204a25.29,25.29,0,0,1,4.77-.42c2.61,0,4.29.45,5.55,1.47a4.24,4.24,0,0,1,1.68,3.57A4.8,4.8,0,0,1,85,213.06v.06a5.21,5.21,0,0,1,4.17,5.07,5.45,5.45,0,0,1-1.71,4.05c-1.41,1.29-3.69,1.89-7,1.89a30.51,30.51,0,0,1-4-.24ZM79,212.28h2.37c2.76,0,4.38-1.44,4.38-3.39,0-2.37-1.8-3.3-4.44-3.3a11.2,11.2,0,0,0-2.31.18ZM79,222a14,14,0,0,0,2.19.12c2.7,0,5.19-1,5.19-3.93,0-2.76-2.37-3.9-5.22-3.9H79Z"/><path class="cls-23" d="M100.6,224l-.21-1.83h-.09a5.41,5.41,0,0,1-4.44,2.16,4.14,4.14,0,0,1-4.44-4.17c0-3.51,3.12-5.43,8.73-5.4v-.3c0-1.2-.33-3.36-3.3-3.36a7.23,7.23,0,0,0-3.78,1.08l-.6-1.74a9,9,0,0,1,4.77-1.29c4.44,0,5.52,3,5.52,5.94v5.43A20.44,20.44,0,0,0,103,224Zm-.39-7.41c-2.88-.06-6.15.45-6.15,3.27a2.34,2.34,0,0,0,2.49,2.52,3.61,3.61,0,0,0,3.51-2.43,2.76,2.76,0,0,0,.15-.84Zm-1.14,11.34a1.5,1.5,0,0,1-1.5,1.56,1.55,1.55,0,0,1,0-3.09A1.49,1.49,0,0,1,99.07,227.88Z"/><path class="cls-23" d="M107,213.36c0-1.5,0-2.73-.12-3.93h2.34l.15,2.4h.06a5.34,5.34,0,0,1,4.8-2.73c2,0,5.13,1.2,5.13,6.18V224h-2.64v-8.37c0-2.34-.87-4.29-3.36-4.29a3.75,3.75,0,0,0-3.54,2.7,3.8,3.8,0,0,0-.18,1.23V224H107Z"/><path class="cls-23" d="M145.77,207.39V220.2c0,1.29,0,2.76.12,3.75h-2.37l-.12-2.52h-.06a5.37,5.37,0,0,1-5,2.85c-3.51,0-6.21-3-6.21-7.38,0-4.83,3-7.8,6.51-7.8a4.85,4.85,0,0,1,4.38,2.22h.06v-3.93h-5.91v-1.65h5.91v-3.09h2.64v3.09h2.31v1.65Zm-2.64,8a4.66,4.66,0,0,0-.12-1.11,3.88,3.88,0,0,0-3.81-3.06c-2.73,0-4.35,2.4-4.35,5.61,0,2.94,1.44,5.37,4.29,5.37A4,4,0,0,0,143,219a4.59,4.59,0,0,0,.12-1.14Z"/><path class="cls-23" d="M158.19,224l-.21-1.83h-.09a5.41,5.41,0,0,1-4.44,2.16,4.14,4.14,0,0,1-4.44-4.17c0-3.51,3.12-5.43,8.73-5.4v-.3c0-1.2-.33-3.36-3.3-3.36a7.23,7.23,0,0,0-3.78,1.08l-.6-1.74a9,9,0,0,1,4.77-1.29c4.44,0,5.52,3,5.52,5.94v5.43a20.44,20.44,0,0,0,.24,3.48Zm-6.78-17c-.06-1.95.75-3.12,2-3.12a3.61,3.61,0,0,1,1.86.67,3.1,3.1,0,0,0,1.26.5c.48,0,.75-.27.84-1.29h1.38c.06,2-.63,3-2,3a4,4,0,0,1-1.83-.6,2.67,2.67,0,0,0-1.29-.54c-.48,0-.72.51-.78,1.35Zm6.39,9.6c-2.88-.06-6.15.45-6.15,3.27a2.34,2.34,0,0,0,2.49,2.52,3.61,3.61,0,0,0,3.51-2.43,2.76,2.76,0,0,0,.15-.84Z"/><path class="cls-23" d="M184.51,223.41a9.72,9.72,0,0,1-4.17.84c-4.38,0-7.23-3-7.23-7.41a7.38,7.38,0,0,1,7.8-7.71,8.82,8.82,0,0,1,3.66.75l-.6,2a6.12,6.12,0,0,0-3.06-.69c-3.33,0-5.13,2.46-5.13,5.49,0,3.36,2.16,5.43,5,5.43a7.5,7.5,0,0,0,3.24-.72Z"/><path class="cls-23" d="M187.6,202.65h2.64v9.06h.06a4.9,4.9,0,0,1,1.89-1.86,5.43,5.43,0,0,1,2.7-.75c2,0,5.07,1.2,5.07,6.21V224h-2.64v-8.34c0-2.34-.87-4.32-3.36-4.32a3.79,3.79,0,0,0-3.54,2.64,3.2,3.2,0,0,0-.18,1.26V224H187.6Z"/><path class="cls-23" d="M207.19,205.35a1.64,1.64,0,0,1-3.27,0,1.61,1.61,0,0,1,1.65-1.65A1.57,1.57,0,0,1,207.19,205.35ZM204.25,224V209.43h2.64V224Z"/><path class="cls-23" d="M212.74,217.17c.06,3.57,2.34,5,5,5a9.55,9.55,0,0,0,4-.75l.45,1.89a11.76,11.76,0,0,1-4.83.9c-4.47,0-7.14-2.94-7.14-7.32s2.58-7.83,6.81-7.83c4.74,0,6,4.17,6,6.84a10,10,0,0,1-.09,1.23Zm7.74-1.89c0-1.68-.69-4.29-3.66-4.29-2.67,0-3.84,2.46-4,4.29ZM218,203.16l2.61,4.29h-2l-1.53-2.82H217l-1.53,2.82h-1.92l2.52-4.29Zm6.27-2.46-3,4h-1.53l2-4Z"/><path class="cls-23" d="M226.3,213.36c0-1.5,0-2.73-.12-3.93h2.34l.15,2.4h.06a5.34,5.34,0,0,1,4.8-2.73c2,0,5.13,1.2,5.13,6.18V224H236v-8.37c0-2.34-.87-4.29-3.36-4.29a3.75,3.75,0,0,0-3.54,2.7,3.8,3.8,0,0,0-.18,1.23V224H226.3Z"/><path class="cls-23" d="M255.69,205.26v4.17h3.78v2h-3.78v7.83c0,1.8.51,2.82,2,2.82a5.87,5.87,0,0,0,1.53-.18l.12,2a6.46,6.46,0,0,1-2.34.36,3.66,3.66,0,0,1-2.85-1.11c-.75-.78-1-2.07-1-3.78v-7.92h-2.25v-2h2.25V206Z"/><path class="cls-23" d="M262.44,202.65h2.64v9.06h.06a4.9,4.9,0,0,1,1.89-1.86,5.43,5.43,0,0,1,2.7-.75c1.95,0,5.07,1.2,5.07,6.21V224h-2.64v-8.34c0-2.34-.87-4.32-3.36-4.32a3.79,3.79,0,0,0-3.54,2.64,3.2,3.2,0,0,0-.18,1.26V224h-2.64Z"/><path class="cls-23" d="M287.13,224l-.21-1.83h-.09a5.41,5.41,0,0,1-4.44,2.16,4.14,4.14,0,0,1-4.44-4.17c0-3.51,3.12-5.43,8.73-5.4v-.3c0-1.2-.33-3.36-3.3-3.36a7.23,7.23,0,0,0-3.78,1.08l-.6-1.74a9,9,0,0,1,4.77-1.29c4.44,0,5.52,3,5.52,5.94v5.43a20.44,20.44,0,0,0,.24,3.48Zm-5.49-19.71a2.33,2.33,0,0,0,2.37,2.07,2.26,2.26,0,0,0,2.4-2.07h1.47a3.87,3.87,0,0,1-7.74,0Zm5.1,12.3c-2.88-.06-6.15.45-6.15,3.27a2.34,2.34,0,0,0,2.49,2.52,3.61,3.61,0,0,0,3.51-2.43,2.76,2.76,0,0,0,.15-.84Zm1.08-15.78-3.33,3.94H282.9l2.4-3.94Z"/><path class="cls-23" d="M293.55,213.36c0-1.5,0-2.73-.12-3.93h2.34l.15,2.4H296a5.34,5.34,0,0,1,4.8-2.73c2,0,5.13,1.2,5.13,6.18V224h-2.64v-8.37c0-2.34-.87-4.29-3.36-4.29a3.75,3.75,0,0,0-3.54,2.7,3.8,3.8,0,0,0-.18,1.23V224h-2.64Z"/><path class="cls-23" d="M322.71,209.43c-.06,1-.12,2.22-.12,4v8.43c0,3.33-.66,5.37-2.07,6.63a7.7,7.7,0,0,1-5.28,1.74,9.37,9.37,0,0,1-4.83-1.2l.66-2a8.19,8.19,0,0,0,4.26,1.14c2.7,0,4.68-1.41,4.68-5.07v-1.62H320a5.18,5.18,0,0,1-4.62,2.43c-3.6,0-6.18-3.06-6.18-7.08,0-4.92,3.21-7.71,6.54-7.71a4.83,4.83,0,0,1,4.53,2.52h.06l.12-2.19ZM320,215.16a3.76,3.76,0,0,0-.15-1.2,3.8,3.8,0,0,0-3.69-2.79c-2.52,0-4.32,2.13-4.32,5.49,0,2.85,1.44,5.22,4.29,5.22a3.86,3.86,0,0,0,3.66-2.7,4.59,4.59,0,0,0,.21-1.41Z"/><path class="cls-23" d="M336.52,213.36c0-1.5,0-2.73-.12-3.93h2.31l.12,2.34h.09a5,5,0,0,1,4.56-2.67,4.29,4.29,0,0,1,4.11,2.91h.06a6,6,0,0,1,1.62-1.89,5,5,0,0,1,3.21-1c1.92,0,4.77,1.26,4.77,6.3V224h-2.58v-8.22c0-2.79-1-4.47-3.15-4.47a3.42,3.42,0,0,0-3.12,2.4,4.35,4.35,0,0,0-.21,1.32v9h-2.58v-8.7c0-2.31-1-4-3-4a3.93,3.93,0,0,0-3.48,3.93V224h-2.58Z"/><path class="cls-23" d="M364.48,205.35a1.64,1.64,0,0,1-3.27,0,1.61,1.61,0,0,1,1.65-1.65A1.57,1.57,0,0,1,364.48,205.35ZM361.54,224V209.43h2.64V224Z"/><path class="cls-23" d="M368.56,213.36c0-1.5,0-2.73-.12-3.93h2.34l.15,2.4H371a5.34,5.34,0,0,1,4.8-2.73c2,0,5.13,1.2,5.13,6.18V224h-2.64v-8.37c0-2.34-.87-4.29-3.36-4.29a3.75,3.75,0,0,0-3.54,2.7,3.8,3.8,0,0,0-.18,1.23V224h-2.64Z"/><path class="cls-23" d="M388.15,205.35a1.64,1.64,0,0,1-3.27,0,1.61,1.61,0,0,1,1.65-1.65A1.57,1.57,0,0,1,388.15,205.35ZM385.21,224V209.43h2.64V224Z"/><path class="cls-23" d="M414.3,209.43c-.06,1-.12,2.22-.12,4v8.43c0,3.33-.66,5.37-2.07,6.63a7.7,7.7,0,0,1-5.28,1.74A9.37,9.37,0,0,1,402,229l.66-2a8.19,8.19,0,0,0,4.26,1.14c2.7,0,4.68-1.41,4.68-5.07v-1.62h-.06a5.18,5.18,0,0,1-4.62,2.43c-3.6,0-6.18-3.06-6.18-7.08,0-4.92,3.21-7.71,6.54-7.71a4.83,4.83,0,0,1,4.53,2.52h.06l.12-2.19Zm-2.73,5.73a3.76,3.76,0,0,0-.15-1.2,3.8,3.8,0,0,0-3.69-2.79c-2.52,0-4.32,2.13-4.32,5.49,0,2.85,1.44,5.22,4.29,5.22a3.86,3.86,0,0,0,3.66-2.7,4.59,4.59,0,0,0,.21-1.41Z"/><path class="cls-23" d="M426.6,224l-.21-1.83h-.09a5.41,5.41,0,0,1-4.44,2.16,4.14,4.14,0,0,1-4.44-4.17c0-3.51,3.12-5.43,8.73-5.4v-.3c0-1.2-.33-3.36-3.3-3.36a7.23,7.23,0,0,0-3.78,1.08l-.6-1.74a9,9,0,0,1,4.77-1.29c4.44,0,5.52,3,5.52,5.94v5.43A20.44,20.44,0,0,0,429,224Zm-.39-7.41c-2.88-.06-6.15.45-6.15,3.27a2.34,2.34,0,0,0,2.49,2.52,3.61,3.61,0,0,0,3.51-2.43,2.76,2.76,0,0,0,.15-.84Z"/><path class="cls-23" d="M433,213.36c0-1.5,0-2.73-.12-3.93h2.31l.12,2.34h.09A5,5,0,0,1,440,209.1a4.29,4.29,0,0,1,4.11,2.91h.06a6,6,0,0,1,1.62-1.89,5,5,0,0,1,3.21-1c1.92,0,4.77,1.26,4.77,6.3V224h-2.58v-8.22c0-2.79-1-4.47-3.15-4.47a3.42,3.42,0,0,0-3.12,2.4,4.35,4.35,0,0,0-.21,1.32v9h-2.58v-8.7c0-2.31-1-4-3-4a3.93,3.93,0,0,0-3.48,3.93V224H433Z"/><path class="cls-23" d="M459.51,217.17c.06,3.57,2.34,5,5,5a9.55,9.55,0,0,0,4-.75l.45,1.89a11.76,11.76,0,0,1-4.83.9c-4.47,0-7.14-2.94-7.14-7.32s2.58-7.83,6.81-7.83c4.74,0,6,4.17,6,6.84a10,10,0,0,1-.09,1.23Zm7.74-1.89c0-1.68-.69-4.29-3.66-4.29-2.67,0-3.84,2.46-4,4.29Z"/><path class="cls-23" d="M471,227.64a43.16,43.16,0,0,0,1.8-7.17l2.94-.3a36.57,36.57,0,0,1-2.85,7.29Z"/><path class="cls-23" d="M488.47,214.17c0-1.86-.06-3.36-.12-4.74h2.37l.12,2.49h.06a5.71,5.71,0,0,1,5.16-2.82c3.51,0,6.15,3,6.15,7.38,0,5.22-3.18,7.8-6.6,7.8a5.09,5.09,0,0,1-4.47-2.28h-.06v7.89h-2.61Zm2.61,3.87a5.94,5.94,0,0,0,.12,1.08,4.07,4.07,0,0,0,4,3.09c2.79,0,4.41-2.28,4.41-5.61,0-2.91-1.53-5.4-4.32-5.4a4.21,4.21,0,0,0-4,3.27,4.28,4.28,0,0,0-.18,1.08Z"/><path class="cls-23" d="M505.54,202.65h2.64v9.06h.06a4.9,4.9,0,0,1,1.89-1.86,5.43,5.43,0,0,1,2.7-.75c1.95,0,5.07,1.2,5.07,6.21V224h-2.64v-8.34c0-2.34-.87-4.32-3.36-4.32a3.79,3.79,0,0,0-3.54,2.64,3.2,3.2,0,0,0-.18,1.26V224h-2.64Z"/><path class="cls-23" d="M530.23,224l-.21-1.83h-.09a5.41,5.41,0,0,1-4.44,2.16,4.14,4.14,0,0,1-4.44-4.17c0-3.51,3.12-5.43,8.73-5.4v-.3c0-1.2-.33-3.36-3.3-3.36a7.23,7.23,0,0,0-3.78,1.08l-.6-1.74a9,9,0,0,1,4.77-1.29c4.44,0,5.52,3,5.52,5.94v5.43a20.44,20.44,0,0,0,.24,3.48ZM528,203.16l2.58,4.29h-2L527,204.63h-.06l-1.53,2.82h-1.92l2.52-4.29Zm1.89,13.38c-2.88-.06-6.15.45-6.15,3.27a2.34,2.34,0,0,0,2.49,2.52,3.61,3.61,0,0,0,3.51-2.43,2.76,2.76,0,0,0,.15-.84Zm.72-15.84,1.92,4H531l-2.79-4Z"/><path class="cls-23" d="M536.65,213.36c0-1.5,0-2.73-.12-3.93h2.34l.15,2.4h.06a5.34,5.34,0,0,1,4.8-2.73c2,0,5.13,1.2,5.13,6.18V224h-2.64v-8.37c0-2.34-.87-4.29-3.36-4.29a3.75,3.75,0,0,0-3.54,2.7,3.8,3.8,0,0,0-.18,1.23V224h-2.64Z"/><path class="cls-23" d="M566,205.26v4.17h3.78v2H566v7.83c0,1.8.51,2.82,2,2.82a5.87,5.87,0,0,0,1.53-.18l.12,2a6.46,6.46,0,0,1-2.34.36,3.66,3.66,0,0,1-2.85-1.11c-.75-.78-1-2.07-1-3.78v-7.92H561.2v-2h2.25V206Z"/><path class="cls-23" d="M572.78,202.65h2.64v9.06h.06a4.9,4.9,0,0,1,1.89-1.86,5.43,5.43,0,0,1,2.7-.75c1.95,0,5.07,1.2,5.07,6.21V224H582.5v-8.34c0-2.34-.87-4.32-3.36-4.32a3.79,3.79,0,0,0-3.54,2.64,3.2,3.2,0,0,0-.18,1.26V224h-2.64Z"/><path class="cls-23" d="M603.92,206.2a4.45,4.45,0,0,1,.54,2.15,2.47,2.47,0,0,1-2.55,2.52l-.33,0V220c0,1.5,0,2.82.12,4h-2.34l-.15-2.37h-.06a5.46,5.46,0,0,1-4.8,2.7c-2.28,0-5-1.26-5-6.36v-8.49H592v8c0,2.76.84,4.62,3.24,4.62a3.82,3.82,0,0,0,3.48-2.4,3.86,3.86,0,0,0,.24-1.35v-8.91H601c1,0,1.41-.42,1.41-1.17a3.75,3.75,0,0,0-.51-1.74Z"/><path class="cls-23" d="M619.88,207a5,5,0,0,1,.51,2.19,2.41,2.41,0,0,1-2.79,2.61,7.58,7.58,0,0,1,1.5,4.8c0,5.37-3.72,7.71-7.23,7.71-3.93,0-7-2.88-7-7.47,0-4.86,3.18-7.71,7.2-7.71a7.61,7.61,0,0,1,2.49.42,9.07,9.07,0,0,0,2.55.78,1.08,1.08,0,0,0,1.2-1.2,3.79,3.79,0,0,0-.48-1.77Zm-12.3,9.75c0,3.18,1.83,5.58,4.41,5.58s4.41-2.37,4.41-5.64c0-2.46-1.23-5.58-4.35-5.58S607.58,214,607.58,216.72Zm3.42-9c.36-1.32,1.71-1.71,1.71-2.82a1,1,0,0,0-1-1,1.8,1.8,0,0,0-1.44,1.05l-1-.6a3.14,3.14,0,0,1,2.91-2,2.35,2.35,0,0,1,2.55,2.25c0,1.68-1.59,2.16-2.28,3.51Z"/><path class="cls-23" d="M622.55,213.36c0-1.5,0-2.73-.12-3.93h2.34l.15,2.4H625a5.34,5.34,0,0,1,4.8-2.73c2,0,5.13,1.2,5.13,6.18V224h-2.64v-8.37c0-2.34-.87-4.29-3.36-4.29a3.75,3.75,0,0,0-3.54,2.7,3.8,3.8,0,0,0-.18,1.23V224h-2.64Z"/><path class="cls-23" d="M651.71,209.43c-.06,1-.12,2.22-.12,4v8.43c0,3.33-.66,5.37-2.07,6.63a7.7,7.7,0,0,1-5.28,1.74,9.37,9.37,0,0,1-4.83-1.2l.66-2a8.19,8.19,0,0,0,4.26,1.14c2.7,0,4.68-1.41,4.68-5.07v-1.62H649a5.18,5.18,0,0,1-4.62,2.43c-3.6,0-6.18-3.06-6.18-7.08,0-4.92,3.21-7.71,6.54-7.71a4.83,4.83,0,0,1,4.53,2.52h.06l.12-2.19ZM649,215.16a3.76,3.76,0,0,0-.15-1.2,3.8,3.8,0,0,0-3.69-2.79c-2.52,0-4.32,2.13-4.32,5.49,0,2.85,1.44,5.22,4.29,5.22a3.86,3.86,0,0,0,3.66-2.7,4.59,4.59,0,0,0,.21-1.41Z"/><path class="cls-23" d="M86.65,259.41a9.72,9.72,0,0,1-4.17.84c-4.38,0-7.23-3-7.23-7.41a7.38,7.38,0,0,1,7.8-7.71,8.82,8.82,0,0,1,3.66.75l-.6,2a6.12,6.12,0,0,0-3.06-.69c-3.33,0-5.13,2.46-5.13,5.49,0,3.36,2.16,5.43,5,5.43a7.5,7.5,0,0,0,3.24-.72Z"/><path class="cls-23" d="M89.74,238.65h2.64v9.06h.06a4.9,4.9,0,0,1,1.89-1.86,5.43,5.43,0,0,1,2.7-.75c2,0,5.07,1.2,5.07,6.21V260H99.46v-8.34c0-2.34-.87-4.32-3.36-4.32a3.79,3.79,0,0,0-3.54,2.64,3.2,3.2,0,0,0-.18,1.26V260H89.74Z"/><path class="cls-23" d="M119.53,252.57c0,5.37-3.72,7.71-7.23,7.71-3.93,0-7-2.88-7-7.47,0-4.86,3.18-7.71,7.2-7.71S119.53,248.13,119.53,252.57Zm-11.52.15c0,3.18,1.83,5.58,4.41,5.58s4.41-2.37,4.41-5.64c0-2.46-1.23-5.58-4.35-5.58S108,250,108,252.72Z"/><path class="cls-23" d="M129.3,260c.06-1,.12-2.46.12-3.75V238.65H132v9.12h.06A5.41,5.41,0,0,1,137,245.1c3.6,0,6.15,3,6.12,7.41,0,5.19-3.27,7.77-6.51,7.77a5.17,5.17,0,0,1-4.86-2.73h-.09l-.12,2.4Zm2.73-5.82a4.94,4.94,0,0,0,.12,1,4.07,4.07,0,0,0,4,3.09c2.76,0,4.41-2.25,4.41-5.58,0-2.91-1.5-5.4-4.32-5.4a4.21,4.21,0,0,0-4,3.24,5.2,5.2,0,0,0-.15,1.08Z"/><path class="cls-23" d="M154.52,260l-.2-1.83h-.09a5.42,5.42,0,0,1-4.44,2.16,4.14,4.14,0,0,1-4.45-4.17c0-3.51,3.13-5.43,8.74-5.4v-.3c0-1.2-.33-3.36-3.31-3.36a7.17,7.17,0,0,0-3.77,1.08l-.6-1.74a9,9,0,0,1,4.77-1.29c4.43,0,5.51,3,5.51,5.94v5.43a21.52,21.52,0,0,0,.24,3.48Zm-.38-7.41c-2.89-.06-6.15.45-6.15,3.27a2.34,2.34,0,0,0,2.49,2.52A3.61,3.61,0,0,0,154,255.9a2.76,2.76,0,0,0,.15-.84ZM153,263.88a1.5,1.5,0,0,1-1.5,1.56,1.55,1.55,0,0,1,0-3.09A1.49,1.49,0,0,1,153,263.88Z"/><path class="cls-23" d="M161,249.36c0-1.5,0-2.73-.12-3.93h2.34l.15,2.4h.06a5.31,5.31,0,0,1,4.79-2.73c2,0,5.13,1.2,5.13,6.18V260h-2.63v-8.37c0-2.34-.88-4.29-3.36-4.29a3.77,3.77,0,0,0-3.55,2.7,4.09,4.09,0,0,0-.18,1.23V260H161Z"/><path class="cls-23" d="M184.15,238.65h2.64V260h-2.64Z"/><path class="cls-23" d="M199.27,260l-.21-1.83H199a5.41,5.41,0,0,1-4.44,2.16,4.14,4.14,0,0,1-4.44-4.17c0-3.51,3.12-5.43,8.73-5.4v-.3c0-1.2-.33-3.36-3.3-3.36a7.23,7.23,0,0,0-3.78,1.08l-.6-1.74a9,9,0,0,1,4.77-1.29c4.44,0,5.52,3,5.52,5.94v5.43a20.44,20.44,0,0,0,.24,3.48Zm-4.47-20.79,2.61,4.29h-1.86l-3.66-4.29Zm4.08,13.38c-2.88-.06-6.15.45-6.15,3.27a2.34,2.34,0,0,0,2.49,2.52,3.61,3.61,0,0,0,3.51-2.43,2.76,2.76,0,0,0,.15-.84Z"/><path class="cls-23" d="M212.24,249.36c0-1.5,0-2.73-.12-3.93h2.31l.12,2.34h.09a5,5,0,0,1,4.56-2.67,4.29,4.29,0,0,1,4.11,2.91h.06a6,6,0,0,1,1.62-1.89,5,5,0,0,1,3.21-1c1.92,0,4.77,1.26,4.77,6.3V260h-2.58v-8.22c0-2.79-1-4.47-3.15-4.47a3.42,3.42,0,0,0-3.12,2.4,4.35,4.35,0,0,0-.21,1.32v9h-2.58v-8.7c0-2.31-1-4-3-4a3.93,3.93,0,0,0-3.48,3.93V260h-2.58Z"/><path class="cls-23" d="M245.3,260l-.21-1.83H245a5.41,5.41,0,0,1-4.44,2.16,4.14,4.14,0,0,1-4.44-4.17c0-3.51,3.12-5.43,8.73-5.4v-.3c0-1.2-.33-3.36-3.3-3.36a7.23,7.23,0,0,0-3.78,1.08l-.6-1.74a9,9,0,0,1,4.77-1.29c4.44,0,5.52,3,5.52,5.94v5.43a20.44,20.44,0,0,0,.24,3.48Zm-6.78-17c-.06-1.95.75-3.12,2-3.12a3.61,3.61,0,0,1,1.86.67,3.1,3.1,0,0,0,1.26.5c.48,0,.75-.27.84-1.29h1.38c.06,2-.63,3-2,3a4,4,0,0,1-1.83-.6,2.67,2.67,0,0,0-1.29-.54c-.48,0-.72.51-.78,1.35Zm6.39,9.6c-2.88-.06-6.15.45-6.15,3.27a2.34,2.34,0,0,0,2.49,2.52,3.61,3.61,0,0,0,3.51-2.43,2.76,2.76,0,0,0,.15-.84Z"/><path class="cls-23" d="M270.78,245.43c0,1-.11,2.22-.11,4v8.43c0,3.33-.67,5.37-2.08,6.63a7.67,7.67,0,0,1-5.27,1.74,9.37,9.37,0,0,1-4.83-1.2l.66-2a8.16,8.16,0,0,0,4.26,1.14c2.69,0,4.67-1.41,4.67-5.07v-1.62H268a5.17,5.17,0,0,1-4.61,2.43c-3.6,0-6.18-3.06-6.18-7.08,0-4.92,3.2-7.71,6.53-7.71a4.81,4.81,0,0,1,4.53,2.52h.06l.13-2.19Zm-2.72,5.73a4.07,4.07,0,0,0-.15-1.2,3.81,3.81,0,0,0-3.69-2.79c-2.52,0-4.32,2.13-4.32,5.49,0,2.85,1.43,5.22,4.28,5.22a3.85,3.85,0,0,0,3.66-2.7,4.32,4.32,0,0,0,.22-1.41Z"/><path class="cls-23" d="M277.81,241.35a1.64,1.64,0,0,1-3.27,0,1.61,1.61,0,0,1,1.64-1.65A1.58,1.58,0,0,1,277.81,241.35ZM274.87,260V245.43h2.63V260Z"/><path class="cls-23" d="M289.92,260l-.21-1.83h-.08a5.43,5.43,0,0,1-4.45,2.16,4.13,4.13,0,0,1-4.43-4.17c0-3.51,3.12-5.43,8.73-5.4v-.3c0-1.2-.33-3.36-3.31-3.36a7.23,7.23,0,0,0-3.77,1.08l-.6-1.74a9,9,0,0,1,4.77-1.29c4.43,0,5.51,3,5.51,5.94v5.43a20.38,20.38,0,0,0,.25,3.48Zm-.39-7.41c-2.87-.06-6.14.45-6.14,3.27a2.33,2.33,0,0,0,2.49,2.52,3.61,3.61,0,0,0,3.5-2.43,2.48,2.48,0,0,0,.15-.84Zm-3.6-8.85c.36-1.32,1.72-1.71,1.72-2.82a1,1,0,0,0-1-1,1.86,1.86,0,0,0-1.45,1.05l-1-.6a3.15,3.15,0,0,1,2.91-2,2.35,2.35,0,0,1,2.55,2.25c0,1.68-1.59,2.16-2.29,3.51Z"/><path class="cls-23" d="M296.34,249.36c0-1.5,0-2.73-.11-3.93h2.31l.12,2.34h.09a5,5,0,0,1,4.55-2.67,4.31,4.31,0,0,1,4.12,2.91h.05a6.11,6.11,0,0,1,1.62-1.89,5,5,0,0,1,3.21-1c1.92,0,4.77,1.26,4.77,6.3V260H314.5v-8.22c0-2.79-1-4.47-3.16-4.47a3.42,3.42,0,0,0-3.12,2.4A4.35,4.35,0,0,0,308,251v9h-2.58v-8.7c0-2.31-1-4-3-4a3.6,3.6,0,0,0-3.27,2.64,3.64,3.64,0,0,0-.22,1.29V260h-2.58Z"/><path class="cls-23" d="M340.43,245.43c-.06,1-.12,2.22-.12,4v8.43c0,3.33-.66,5.37-2.07,6.63a7.7,7.7,0,0,1-5.28,1.74,9.37,9.37,0,0,1-4.83-1.2l.66-2a8.19,8.19,0,0,0,4.26,1.14c2.7,0,4.68-1.41,4.68-5.07v-1.62h-.06a5.18,5.18,0,0,1-4.62,2.43c-3.6,0-6.18-3.06-6.18-7.08,0-4.92,3.21-7.71,6.54-7.71a4.83,4.83,0,0,1,4.53,2.52H338l.12-2.19Zm-2.73,5.73a3.76,3.76,0,0,0-.15-1.2,3.8,3.8,0,0,0-3.69-2.79c-2.52,0-4.32,2.13-4.32,5.49,0,2.85,1.44,5.22,4.29,5.22a3.86,3.86,0,0,0,3.66-2.7,4.59,4.59,0,0,0,.21-1.41Z"/><path class="cls-23" d="M347.45,241.35a1.64,1.64,0,0,1-3.27,0,1.61,1.61,0,0,1,1.65-1.65A1.57,1.57,0,0,1,347.45,241.35ZM344.51,260V245.43h2.64V260Z"/><path class="cls-23" d="M359.57,260l-.21-1.83h-.09a5.41,5.41,0,0,1-4.44,2.16,4.14,4.14,0,0,1-4.44-4.17c0-3.51,3.12-5.43,8.73-5.4v-.3c0-1.2-.33-3.36-3.3-3.36a7.23,7.23,0,0,0-3.78,1.08l-.6-1.74a9,9,0,0,1,4.77-1.29c4.44,0,5.52,3,5.52,5.94v5.43A20.44,20.44,0,0,0,362,260Zm-.39-7.41c-2.88-.06-6.15.45-6.15,3.27a2.34,2.34,0,0,0,2.49,2.52A3.61,3.61,0,0,0,359,255.9a2.76,2.76,0,0,0,.15-.84Zm1.32-13.38-3.66,4.29H355l2.64-4.29Z"/><path class="cls-23" d="M371.7,260v-1.62l2.07-2c5-4.74,7.23-7.26,7.26-10.2,0-2-1-3.81-3.87-3.81A6.64,6.64,0,0,0,373,244l-.84-1.86a8.56,8.56,0,0,1,5.52-2c4.2,0,6,2.88,6,5.67,0,3.6-2.61,6.51-6.72,10.47l-1.56,1.44v.06h8.76V260Z"/><path class="cls-23" d="M400.05,250c0,6.63-2.46,10.29-6.78,10.29-3.81,0-6.39-3.57-6.45-10s2.82-10.14,6.78-10.14S400.05,243.78,400.05,250Zm-10.59.3c0,5.07,1.56,8,4,8,2.7,0,4-3.15,4-8.13,0-4.8-1.23-8-4-8C391.14,242.16,389.46,245,389.46,250.29Z"/><path class="cls-23" d="M405.93,252.09H406c.36-.51.87-1.14,1.29-1.65l4.26-5h3.18l-5.61,6L415.5,260h-3.21l-5-7-1.35,1.5V260h-2.61v-21.3h2.61Z"/><path class="cls-23" d="M434.29,259.41a9.67,9.67,0,0,1-4.16.84c-4.38,0-7.23-3-7.23-7.41a7.37,7.37,0,0,1,7.79-7.71,8.79,8.79,0,0,1,3.66.75l-.6,2a6.09,6.09,0,0,0-3.06-.69c-3.33,0-5.12,2.46-5.12,5.49,0,3.36,2.16,5.43,5,5.43a7.5,7.5,0,0,0,3.24-.72Z"/><path class="cls-23" d="M437.38,238.65H440v9.06h.06a5,5,0,0,1,1.89-1.86,5.43,5.43,0,0,1,2.7-.75c1.95,0,5.08,1.2,5.08,6.21V260H447.1v-8.34c0-2.34-.86-4.32-3.35-4.32a3.8,3.8,0,0,0-3.55,2.64,3.2,3.2,0,0,0-.18,1.26V260h-2.64Z"/><path class="cls-23" d="M467.17,252.57c0,5.37-3.72,7.71-7.23,7.71-3.93,0-7-2.88-7-7.47,0-4.86,3.19-7.71,7.2-7.71C464.35,245.1,467.17,248.13,467.17,252.57Zm-11.52.15c0,3.18,1.83,5.58,4.41,5.58s4.41-2.37,4.41-5.64c0-2.46-1.23-5.58-4.35-5.58S455.65,250,455.65,252.72Z"/><path class="cls-23" d="M489.6,243.39V256.2c0,1.29,0,2.76.12,3.75h-2.37l-.12-2.52h-.06a5.37,5.37,0,0,1-4.95,2.85c-3.51,0-6.21-3-6.21-7.38,0-4.83,3-7.8,6.51-7.8a4.85,4.85,0,0,1,4.38,2.22H487v-3.93h-5.91v-1.65H487v-3.09h2.64v3.09h2.31v1.65Zm-2.64,8a4.66,4.66,0,0,0-.12-1.11,3.88,3.88,0,0,0-3.81-3.06c-2.73,0-4.35,2.4-4.35,5.61,0,2.94,1.44,5.37,4.29,5.37a4,4,0,0,0,3.87-3.15,4.59,4.59,0,0,0,.12-1.14Z"/><path class="cls-23" d="M507.9,243a5,5,0,0,1,.51,2.19,2.41,2.41,0,0,1-2.79,2.61,7.58,7.58,0,0,1,1.5,4.8c0,5.37-3.72,7.71-7.23,7.71-3.93,0-7-2.88-7-7.47,0-4.86,3.18-7.71,7.2-7.71a7.61,7.61,0,0,1,2.49.42,9.07,9.07,0,0,0,2.55.78,1.08,1.08,0,0,0,1.2-1.2,3.79,3.79,0,0,0-.48-1.77Zm-12.3,9.75c0,3.18,1.83,5.58,4.41,5.58s4.41-2.37,4.41-5.64c0-2.46-1.23-5.58-4.35-5.58S495.6,250,495.6,252.72Z"/><path class="cls-23" d="M510.57,249.36c0-1.5,0-2.73-.12-3.93h2.34l.15,2.4H513a5.34,5.34,0,0,1,4.8-2.73c2,0,5.13,1.2,5.13,6.18V260h-2.64v-8.37c0-2.34-.87-4.29-3.36-4.29a3.75,3.75,0,0,0-3.54,2.7,3.8,3.8,0,0,0-.18,1.23V260h-2.64Z"/><path class="cls-23" d="M533.77,238.65h2.64v9.06h.06a4.9,4.9,0,0,1,1.89-1.86,5.43,5.43,0,0,1,2.7-.75c2,0,5.07,1.2,5.07,6.21V260h-2.64v-8.34c0-2.34-.87-4.32-3.36-4.32a3.79,3.79,0,0,0-3.54,2.64,3.2,3.2,0,0,0-.18,1.26V260h-2.64Z"/><path class="cls-23" d="M558.46,260l-.21-1.83h-.09a5.41,5.41,0,0,1-4.44,2.16,4.14,4.14,0,0,1-4.44-4.17c0-3.51,3.12-5.43,8.73-5.4v-.3c0-1.2-.33-3.36-3.3-3.36a7.23,7.23,0,0,0-3.78,1.08l-.6-1.74a9,9,0,0,1,4.77-1.29c4.44,0,5.52,3,5.52,5.94v5.43a20.44,20.44,0,0,0,.24,3.48ZM554,239.16l2.61,4.29h-1.86l-3.66-4.29Zm4.08,13.38c-2.88-.06-6.15.45-6.15,3.27a2.34,2.34,0,0,0,2.49,2.52,3.61,3.61,0,0,0,3.51-2.43,2.76,2.76,0,0,0,.15-.84Z"/><path class="cls-23" d="M564.88,249.36c0-1.5,0-2.73-.12-3.93h2.34l.15,2.4h.06a5.34,5.34,0,0,1,4.8-2.73c2,0,5.13,1.2,5.13,6.18V260H574.6v-8.37c0-2.34-.87-4.29-3.36-4.29a3.75,3.75,0,0,0-3.54,2.7,3.8,3.8,0,0,0-.18,1.23V260h-2.64Z"/><path class="cls-23" d="M594,245.43c-.06,1-.12,2.22-.12,4v8.43c0,3.33-.66,5.37-2.07,6.63a7.7,7.7,0,0,1-5.28,1.74,9.37,9.37,0,0,1-4.83-1.2l.66-2a8.19,8.19,0,0,0,4.26,1.14c2.7,0,4.68-1.41,4.68-5.07v-1.62h-.06a5.18,5.18,0,0,1-4.62,2.43c-3.6,0-6.18-3.06-6.18-7.08,0-4.92,3.21-7.71,6.54-7.71a4.83,4.83,0,0,1,4.53,2.52h.06l.12-2.19Zm-2.73,5.73a3.76,3.76,0,0,0-.15-1.2,3.8,3.8,0,0,0-3.69-2.79c-2.52,0-4.32,2.13-4.32,5.49,0,2.85,1.44,5.22,4.29,5.22a3.86,3.86,0,0,0,3.66-2.7,4.59,4.59,0,0,0,.21-1.41Z"/><path class="cls-23" d="M608,241.26v4.17h3.78v2H608v7.83c0,1.8.51,2.82,2,2.82a5.87,5.87,0,0,0,1.53-.18l.12,2a6.46,6.46,0,0,1-2.34.36,3.66,3.66,0,0,1-2.85-1.11c-.75-.78-1-2.07-1-3.78v-7.92H603.2v-2h2.25V242Z"/><path class="cls-23" d="M614.78,250c0-1.71,0-3.18-.12-4.53H617l.09,2.85h.12a4.36,4.36,0,0,1,4-3.18,2.86,2.86,0,0,1,.75.09v2.49a4,4,0,0,0-.9-.09c-1.86,0-3.18,1.41-3.54,3.39a7.43,7.43,0,0,0-.12,1.23V260h-2.61Z"/><path class="cls-23" d="M625.76,253.17c.06,3.57,2.34,5,5,5a9.55,9.55,0,0,0,4-.75l.45,1.89a11.76,11.76,0,0,1-4.83.9c-4.47,0-7.14-2.94-7.14-7.32s2.58-7.83,6.81-7.83c4.74,0,6,4.17,6,6.84a10,10,0,0,1-.09,1.23Zm7.74-1.89c0-1.68-.69-4.29-3.66-4.29-2.67,0-3.84,2.46-4.05,4.29Zm-2.64-12.12,2.88,4.29h-2L630,240.6h-.06l-1.74,2.85h-2l2.85-4.29Z"/><path class="cls-23" d="M639.32,249.36c0-1.5,0-2.73-.12-3.93h2.34l.15,2.4h.06a5.34,5.34,0,0,1,4.8-2.73c2,0,5.13,1.2,5.13,6.18V260H649v-8.37c0-2.34-.87-4.29-3.36-4.29a3.75,3.75,0,0,0-3.54,2.7,3.8,3.8,0,0,0-.18,1.23V260h-2.64Z"/><path class="cls-23" d="M81.19,278.91h-.06l-3.39,1.83-.51-2,4.26-2.28h2.25V296H81.19Z"/><path class="cls-23" d="M103.81,286c0,6.63-2.46,10.29-6.78,10.29-3.81,0-6.39-3.57-6.45-10s2.82-10.14,6.78-10.14C101.47,276.12,103.81,279.78,103.81,286Zm-10.59.3c0,5.07,1.56,7.95,4,7.95,2.7,0,4-3.15,4-8.13,0-4.8-1.23-7.95-4-7.95C94.9,278.16,93.22,281,93.22,286.29Z"/><path class="cls-23" d="M119.2,286c0,6.63-2.46,10.29-6.78,10.29-3.81,0-6.39-3.57-6.45-10s2.82-10.14,6.78-10.14C116.86,276.12,119.2,279.78,119.2,286Zm-10.59.3c0,5.07,1.56,7.95,4,7.95,2.7,0,4-3.15,4-8.13,0-4.8-1.23-7.95-4-7.95C110.29,278.16,108.61,281,108.61,286.29Z"/><path class="cls-23" d="M125.08,288.09h.06c.36-.51.87-1.14,1.29-1.65l4.26-5h3.18l-5.61,6,6.39,8.55h-3.21l-5-7-1.35,1.5V296h-2.61v-21.3h2.61Z"/><path class="cls-23" d="M147.73,277.26v4.17h3.77v2h-3.77v7.83c0,1.8.51,2.82,2,2.82a5.87,5.87,0,0,0,1.53-.18l.11,2a6.42,6.42,0,0,1-2.34.36,3.65,3.65,0,0,1-2.84-1.11c-.75-.78-1-2.07-1-3.78v-7.92H142.9v-2h2.25V278Z"/><path class="cls-23" d="M162.51,296l-.21-1.83h-.09a5.39,5.39,0,0,1-4.44,2.16,4.14,4.14,0,0,1-4.44-4.17c0-3.51,3.13-5.43,8.74-5.4v-.3c0-1.2-.33-3.36-3.31-3.36a7.2,7.2,0,0,0-3.77,1.08l-.6-1.74a9,9,0,0,1,4.77-1.29c4.43,0,5.51,3,5.51,5.94v5.43a20.38,20.38,0,0,0,.25,3.48Zm-.39-7.41c-2.87-.06-6.14.45-6.14,3.27a2.33,2.33,0,0,0,2.48,2.52A3.61,3.61,0,0,0,162,291.9a2.48,2.48,0,0,0,.15-.84ZM161,299.88a1.5,1.5,0,1,1-1.48-1.53A1.51,1.51,0,0,1,161,299.88Z"/><path class="cls-23" d="M171.88,277.35a1.64,1.64,0,0,1-3.28,0,1.61,1.61,0,0,1,1.65-1.65A1.57,1.57,0,0,1,171.88,277.35ZM168.93,296V281.43h2.65V296Z"/><path class="cls-23" d="M196.47,281.43c-.06,1.05-.12,2.22-.12,4v8.43c0,3.33-.66,5.37-2.07,6.63a7.7,7.7,0,0,1-5.28,1.74,9.37,9.37,0,0,1-4.83-1.2l.66-2a8.19,8.19,0,0,0,4.26,1.14c2.7,0,4.68-1.41,4.68-5.07v-1.62h-.06a5.18,5.18,0,0,1-4.62,2.43c-3.6,0-6.18-3.06-6.18-7.08,0-4.92,3.21-7.71,6.54-7.71a4.83,4.83,0,0,1,4.53,2.52H194l.12-2.19Zm-2.73,5.73a3.76,3.76,0,0,0-.15-1.2,3.8,3.8,0,0,0-3.69-2.79c-2.52,0-4.32,2.13-4.32,5.49,0,2.85,1.44,5.22,4.29,5.22a3.86,3.86,0,0,0,3.66-2.7,4.59,4.59,0,0,0,.21-1.41Z"/><path class="cls-23" d="M203.49,277.35a1.64,1.64,0,0,1-3.27,0,1.61,1.61,0,0,1,1.65-1.65A1.57,1.57,0,0,1,203.49,277.35ZM200.55,296V281.43h2.64V296Z"/><path class="cls-23" d="M215.61,296l-.21-1.83h-.09a5.41,5.41,0,0,1-4.44,2.16,4.14,4.14,0,0,1-4.44-4.17c0-3.51,3.12-5.43,8.73-5.4v-.3c0-1.2-.33-3.36-3.3-3.36a7.23,7.23,0,0,0-3.78,1.08l-.6-1.74a9,9,0,0,1,4.77-1.29c4.44,0,5.52,3,5.52,5.94v5.43A20.44,20.44,0,0,0,218,296Zm-.39-7.41c-2.88-.06-6.15.45-6.15,3.27a2.34,2.34,0,0,0,2.49,2.52,3.61,3.61,0,0,0,3.51-2.43,2.76,2.76,0,0,0,.15-.84Z"/><path class="cls-23" d="M222,285.36c0-1.5,0-2.73-.12-3.93h2.34l.15,2.4h.06a5.34,5.34,0,0,1,4.8-2.73c2,0,5.13,1.2,5.13,6.18V296h-2.64v-8.37c0-2.34-.87-4.29-3.36-4.29a3.75,3.75,0,0,0-3.54,2.7,3.8,3.8,0,0,0-.18,1.23V296H222Z"/><path class="cls-23" d="M246.68,274.65h2.64v9.06h.06a4.9,4.9,0,0,1,1.89-1.86,5.43,5.43,0,0,1,2.7-.75c1.95,0,5.07,1.2,5.07,6.21V296H256.4v-8.34c0-2.34-.87-4.32-3.36-4.32a3.79,3.79,0,0,0-3.54,2.64,3.2,3.2,0,0,0-.18,1.26V296h-2.64Z"/><path class="cls-23" d="M271.37,296l-.21-1.83h-.09a5.41,5.41,0,0,1-4.44,2.16,4.14,4.14,0,0,1-4.44-4.17c0-3.51,3.12-5.43,8.73-5.4v-.3c0-1.2-.33-3.36-3.3-3.36a7.23,7.23,0,0,0-3.78,1.08l-.6-1.74A9,9,0,0,1,268,281.1c4.44,0,5.52,3,5.52,5.94v5.43a20.44,20.44,0,0,0,.24,3.48Zm-4.47-20.79,2.61,4.29h-1.86L264,275.16ZM271,288.54c-2.88-.06-6.15.45-6.15,3.27a2.34,2.34,0,0,0,2.49,2.52,3.61,3.61,0,0,0,3.51-2.43,2.76,2.76,0,0,0,.15-.84Z"/><path class="cls-23" d="M277.79,285.36c0-1.5,0-2.73-.12-3.93H280l.15,2.4h.06a5.34,5.34,0,0,1,4.8-2.73c2,0,5.13,1.2,5.13,6.18V296h-2.64v-8.37c0-2.34-.87-4.29-3.36-4.29a3.75,3.75,0,0,0-3.54,2.7,3.8,3.8,0,0,0-.18,1.23V296h-2.64Z"/><path class="cls-23" d="M307,281.43c-.06,1.05-.12,2.22-.12,4v8.43c0,3.33-.66,5.37-2.07,6.63a7.7,7.7,0,0,1-5.28,1.74,9.37,9.37,0,0,1-4.83-1.2l.66-2a8.19,8.19,0,0,0,4.26,1.14c2.7,0,4.68-1.41,4.68-5.07v-1.62h-.06a5.18,5.18,0,0,1-4.62,2.43c-3.6,0-6.18-3.06-6.18-7.08,0-4.92,3.21-7.71,6.54-7.71a4.83,4.83,0,0,1,4.53,2.52h.06l.12-2.19Zm-2.73,5.73a3.76,3.76,0,0,0-.15-1.2,3.8,3.8,0,0,0-3.69-2.79c-2.52,0-4.32,2.13-4.32,5.49,0,2.85,1.44,5.22,4.29,5.22a3.86,3.86,0,0,0,3.66-2.7,4.59,4.59,0,0,0,.21-1.41Z"/><path class="cls-23" d="M329.57,295.41a9.76,9.76,0,0,1-4.17.84c-4.39,0-7.23-3-7.23-7.41a7.37,7.37,0,0,1,7.79-7.71,8.88,8.88,0,0,1,3.67.75l-.61,2a6.06,6.06,0,0,0-3.06-.69c-3.32,0-5.13,2.46-5.13,5.49,0,3.36,2.17,5.43,5.05,5.43a7.45,7.45,0,0,0,3.23-.72Z"/><path class="cls-23" d="M332.66,274.65h2.63v9.06h.06a4.86,4.86,0,0,1,1.9-1.86,5.4,5.4,0,0,1,2.69-.75c2,0,5.07,1.2,5.07,6.21V296h-2.63v-8.34c0-2.34-.88-4.32-3.37-4.32a3.79,3.79,0,0,0-3.53,2.64,3.19,3.19,0,0,0-.19,1.26V296h-2.63Z"/><path class="cls-23" d="M354.67,275.16,351,279.45h-1.88l2.63-4.29ZM349.31,296V281.43h2.63V296Z"/><path class="cls-23" d="M356.33,285.36c0-1.5,0-2.73-.12-3.93h2.33l.15,2.4h.06a5.36,5.36,0,0,1,4.8-2.73c2,0,5.13,1.2,5.13,6.18V296H366v-8.37c0-2.34-.87-4.29-3.36-4.29a3.73,3.73,0,0,0-3.53,2.7,3.53,3.53,0,0,0-.19,1.23V296h-2.63Z"/><path class="cls-23" d="M373,274.65h2.63v9.06h.06a4.86,4.86,0,0,1,1.9-1.86,5.37,5.37,0,0,1,2.69-.75c1.95,0,5.07,1.2,5.07,6.21V296h-2.64v-8.34c0-2.34-.86-4.32-3.36-4.32a3.8,3.8,0,0,0-3.54,2.64,3.39,3.39,0,0,0-.18,1.26V296H373Z"/><path class="cls-23" d="M397.63,274.65h2.64v9.06h.06a4.9,4.9,0,0,1,1.89-1.86,5.43,5.43,0,0,1,2.7-.75c1.95,0,5.07,1.2,5.07,6.21V296h-2.64v-8.34c0-2.34-.87-4.32-3.36-4.32a3.79,3.79,0,0,0-3.54,2.64,3.2,3.2,0,0,0-.18,1.26V296h-2.64Z"/><path class="cls-23" d="M422.32,296l-.21-1.83H422a5.41,5.41,0,0,1-4.44,2.16,4.14,4.14,0,0,1-4.44-4.17c0-3.51,3.12-5.43,8.73-5.4v-.3c0-1.2-.33-3.36-3.3-3.36a7.23,7.23,0,0,0-3.78,1.08l-.6-1.74A9,9,0,0,1,419,281.1c4.44,0,5.52,3,5.52,5.94v5.43a20.44,20.44,0,0,0,.24,3.48Zm-6.78-17c-.06-1.95.75-3.12,2-3.12a3.61,3.61,0,0,1,1.86.67,3.1,3.1,0,0,0,1.26.5c.48,0,.75-.27.84-1.29h1.38c.06,2-.63,3-2,3a4,4,0,0,1-1.83-.6,2.67,2.67,0,0,0-1.29-.54c-.48,0-.72.51-.78,1.35Zm6.39,9.6c-2.88-.06-6.15.45-6.15,3.27a2.34,2.34,0,0,0,2.49,2.52,3.61,3.61,0,0,0,3.51-2.43,2.76,2.76,0,0,0,.15-.84Z"/><path class="cls-23" d="M428.74,285.36c0-1.5,0-2.73-.12-3.93H431l.15,2.4h.06a5.34,5.34,0,0,1,4.8-2.73c2,0,5.13,1.2,5.13,6.18V296h-2.64v-8.37c0-2.34-.87-4.29-3.36-4.29a3.75,3.75,0,0,0-3.54,2.7,3.8,3.8,0,0,0-.18,1.23V296h-2.64Z"/><path class="cls-23" d="M457.9,281.43c-.06,1.05-.12,2.22-.12,4v8.43c0,3.33-.66,5.37-2.07,6.63a7.7,7.7,0,0,1-5.28,1.74,9.37,9.37,0,0,1-4.83-1.2l.66-2a8.19,8.19,0,0,0,4.26,1.14c2.7,0,4.68-1.41,4.68-5.07v-1.62h-.06a5.18,5.18,0,0,1-4.62,2.43c-3.6,0-6.18-3.06-6.18-7.08,0-4.92,3.21-7.71,6.54-7.71a4.83,4.83,0,0,1,4.53,2.52h.06l.12-2.19Zm-2.73,5.73A3.76,3.76,0,0,0,455,286a3.8,3.8,0,0,0-3.69-2.79c-2.52,0-4.32,2.13-4.32,5.49,0,2.85,1.44,5.22,4.29,5.22a3.86,3.86,0,0,0,3.66-2.7,4.59,4.59,0,0,0,.21-1.41Z"/><path class="cls-23" d="M480.51,295.41a9.72,9.72,0,0,1-4.17.84c-4.38,0-7.23-3-7.23-7.41a7.38,7.38,0,0,1,7.8-7.71,8.82,8.82,0,0,1,3.66.75l-.6,2a6.12,6.12,0,0,0-3.06-.69c-3.33,0-5.13,2.46-5.13,5.49,0,3.36,2.16,5.43,5,5.43a7.5,7.5,0,0,0,3.24-.72Z"/><path class="cls-23" d="M495.75,292c0,1.5,0,2.82.12,4h-2.34l-.15-2.37h-.06a5.46,5.46,0,0,1-4.8,2.7c-2.28,0-5-1.26-5-6.36v-8.49h2.64v8c0,2.76.84,4.62,3.24,4.62a3.82,3.82,0,0,0,3.48-2.4,3.86,3.86,0,0,0,.24-1.35v-8.91h2.64Zm-7.08-12.3c.36-1.32,1.71-1.71,1.71-2.82a1,1,0,0,0-1-1,1.84,1.84,0,0,0-1.44,1l-1-.6a3.18,3.18,0,0,1,2.94-2,2.34,2.34,0,0,1,2.52,2.25c0,1.68-1.59,2.16-2.28,3.51Z"/><path class="cls-23" d="M508.17,296l-.21-1.83h-.09a5.41,5.41,0,0,1-4.44,2.16,4.14,4.14,0,0,1-4.44-4.17c0-3.51,3.12-5.43,8.73-5.4v-.3c0-1.2-.33-3.36-3.3-3.36a7.23,7.23,0,0,0-3.78,1.08l-.6-1.74a9,9,0,0,1,4.77-1.29c4.44,0,5.52,3,5.52,5.94v5.43a20.44,20.44,0,0,0,.24,3.48Zm-.39-7.41c-2.88-.06-6.15.45-6.15,3.27a2.34,2.34,0,0,0,2.49,2.52,3.61,3.61,0,0,0,3.51-2.43,2.76,2.76,0,0,0,.15-.84Z"/><path class="cls-23" d="M526,289.59l-2.1,6.36h-2.69L528,275.74h3.15l6.9,20.21h-2.79l-2.16-6.36Zm6.63-2-2-5.82c-.44-1.32-.75-2.52-1.05-3.69h0c-.31,1.2-.64,2.43-1,3.66l-2,5.85Z"/><path class="cls-23" d="M537.3,300.15a4.23,4.23,0,0,0,2.87-1.11c.73-.84,1-2,1-5.46V281.43h2.64V294.6c0,2.82-.46,4.65-1.74,6a6.7,6.7,0,0,1-4.5,1.65Zm6.8-22.8a1.54,1.54,0,0,1-1.65,1.62,1.58,1.58,0,0,1-1.62-1.62,1.62,1.62,0,0,1,1.68-1.65A1.55,1.55,0,0,1,544.1,277.35Z"/><path class="cls-23" d="M551.07,277.35a1.64,1.64,0,0,1-3.27,0,1.61,1.61,0,0,1,1.64-1.65A1.58,1.58,0,0,1,551.07,277.35Zm-3,18.6V281.43h2.64V296Z"/><path class="cls-23" d="M555.14,285.36c0-1.5,0-2.73-.12-3.93h2.34l.15,2.4h.07a5.31,5.31,0,0,1,4.79-2.73c2,0,5.13,1.2,5.13,6.18V296h-2.64v-8.37c0-2.34-.86-4.29-3.36-4.29a3.87,3.87,0,0,0-3.72,3.93V296h-2.64Z"/><path class="cls-23" d="M584.93,288.57c0,5.37-3.72,7.71-7.23,7.71-3.93,0-7-2.88-7-7.47,0-4.86,3.18-7.71,7.2-7.71S584.93,284.13,584.93,288.57Zm-11.52.15c0,3.18,1.83,5.58,4.41,5.58s4.41-2.37,4.41-5.64c0-2.46-1.23-5.58-4.35-5.58S573.41,286,573.41,288.72Z"/><path class="cls-23" d="M588.26,285.36c0-1.5,0-2.73-.12-3.93h2.31l.12,2.34h.09a5,5,0,0,1,4.56-2.67,4.29,4.29,0,0,1,4.11,2.91h.06a6,6,0,0,1,1.62-1.89,5,5,0,0,1,3.21-1c1.92,0,4.77,1.26,4.77,6.3V296h-2.58v-8.22c0-2.79-1-4.47-3.15-4.47a3.42,3.42,0,0,0-3.12,2.4,4.35,4.35,0,0,0-.21,1.32v9h-2.58v-8.7c0-2.31-1-4-3-4a3.93,3.93,0,0,0-3.48,3.93V296h-2.58Z"/><path class="cls-23" d="M626.42,288.57c0,5.37-3.72,7.71-7.23,7.71-3.93,0-7-2.88-7-7.47,0-4.86,3.18-7.71,7.2-7.71C623.6,281.1,626.42,284.13,626.42,288.57Zm-11.52.15c0,3.18,1.83,5.58,4.41,5.58s4.41-2.37,4.41-5.64c0-2.46-1.23-5.58-4.35-5.58S614.9,286,614.9,288.72Z"/><path class="cls-23" d="M632.93,277.26v4.17h3.78v2h-3.78v7.83c0,1.8.51,2.82,2,2.82a5.87,5.87,0,0,0,1.53-.18l.12,2a6.46,6.46,0,0,1-2.34.36,3.66,3.66,0,0,1-2.85-1.11c-.75-.78-1-2.07-1-3.78v-7.92H628.1v-2h2.25V278Z"/><path class="cls-23" d="M652.64,288.57c0,5.37-3.72,7.71-7.23,7.71-3.93,0-7-2.88-7-7.47,0-4.86,3.18-7.71,7.2-7.71C649.82,281.1,652.64,284.13,652.64,288.57Zm-11.52.15c0,3.18,1.83,5.58,4.41,5.58s4.41-2.37,4.41-5.64c0-2.46-1.23-5.58-4.35-5.58S641.12,286,641.12,288.72Z"/><path class="cls-23" d="M79.48,313.26v4.17h3.78v2H79.48v7.83c0,1.8.51,2.82,2,2.82a5.87,5.87,0,0,0,1.53-.18l.12,2a6.46,6.46,0,0,1-2.34.36,3.66,3.66,0,0,1-2.85-1.11c-.75-.78-1-2.07-1-3.78v-7.92H74.65v-2H76.9V314Z"/><path class="cls-23" d="M86.23,322c0-1.71,0-3.18-.12-4.53h2.31l.09,2.85h.12a4.36,4.36,0,0,1,4-3.18,2.86,2.86,0,0,1,.75.09v2.49a4,4,0,0,0-.9-.09c-1.86,0-3.18,1.41-3.54,3.39a7.43,7.43,0,0,0-.12,1.23V332H86.23Z"/><path class="cls-23" d="M97.21,325.17c.06,3.57,2.34,5,5,5a9.55,9.55,0,0,0,4-.75l.45,1.89a11.76,11.76,0,0,1-4.83.9c-4.47,0-7.14-2.94-7.14-7.32s2.58-7.83,6.81-7.83c4.74,0,6,4.17,6,6.84a10,10,0,0,1-.09,1.23Zm7.74-1.89c0-1.68-.69-4.29-3.66-4.29-2.67,0-3.84,2.46-4.05,4.29Zm-2.64-12.12,2.88,4.29h-2l-1.74-2.85h-.06l-1.74,2.85h-2l2.85-4.29Z"/><path class="cls-23" d="M110.77,321.36c0-1.5,0-2.73-.12-3.93H113l.15,2.4h.06a5.34,5.34,0,0,1,4.8-2.73c2,0,5.13,1.2,5.13,6.18V332h-2.64v-8.37c0-2.34-.87-4.29-3.36-4.29a3.75,3.75,0,0,0-3.54,2.7,3.8,3.8,0,0,0-.18,1.23V332h-2.64Z"/><path class="cls-23" d="M136.48,314h-6.15v-2.21h15V314h-6.18v18h-2.64Z"/><path class="cls-23" d="M150,313.35a1.64,1.64,0,0,1-3.27,0,1.61,1.61,0,0,1,1.65-1.65A1.57,1.57,0,0,1,150,313.35ZM147.1,332V317.43h2.64V332Z"/><path class="cls-23" d="M156.73,324.09h.06c.36-.51.87-1.14,1.29-1.65l4.26-5h3.18l-5.61,6L166.3,332h-3.21l-5-7-1.35,1.5V332h-2.61v-21.3h2.61Z"/><path class="cls-23" d="M171.64,313.35a1.64,1.64,0,0,1-3.27,0A1.61,1.61,0,0,1,170,311.7,1.57,1.57,0,0,1,171.64,313.35ZM168.7,332V317.43h2.64V332Z"/><path class="cls-23" d="M174,335.64a43.16,43.16,0,0,0,1.8-7.17l2.94-.3a36.57,36.57,0,0,1-2.85,7.29Z"/><path class="cls-23" d="M188,328.77a9.25,9.25,0,0,0,4.68,1.32c2.67,0,4.23-1.41,4.23-3.45,0-1.89-1.08-3-3.81-4-3.3-1.17-5.34-2.88-5.34-5.73,0-3.15,2.61-5.49,6.54-5.49a9.19,9.19,0,0,1,4.47,1l-.72,2.13a8.05,8.05,0,0,0-3.84-1c-2.76,0-3.81,1.65-3.81,3,0,1.89,1.23,2.82,4,3.9,3.42,1.32,5.16,3,5.16,5.94s-2.31,5.82-7.08,5.82a10.45,10.45,0,0,1-5.16-1.29Z"/><path class="cls-23" d="M203.08,310.65h2.64v9.06h.06a4.9,4.9,0,0,1,1.89-1.86,5.43,5.43,0,0,1,2.7-.75c1.95,0,5.07,1.2,5.07,6.21V332H212.8v-8.34c0-2.34-.87-4.32-3.36-4.32a3.79,3.79,0,0,0-3.54,2.64,3.2,3.2,0,0,0-.18,1.26V332h-2.64Z"/><path class="cls-23" d="M232.87,324.57c0,5.37-3.72,7.71-7.23,7.71-3.93,0-7-2.88-7-7.47,0-4.86,3.18-7.71,7.2-7.71C230.05,317.1,232.87,320.13,232.87,324.57Zm-11.52.15c0,3.18,1.83,5.58,4.41,5.58s4.41-2.37,4.41-5.64c0-2.46-1.23-5.58-4.35-5.58S221.35,322,221.35,324.72Z"/><path class="cls-23" d="M236.2,322.17c0-1.86-.06-3.36-.12-4.74h2.37l.12,2.49h.06a5.71,5.71,0,0,1,5.16-2.82c3.51,0,6.15,3,6.15,7.38,0,5.22-3.18,7.8-6.6,7.8a5.09,5.09,0,0,1-4.47-2.28h-.06v7.89H236.2Zm2.61,3.87a5.94,5.94,0,0,0,.12,1.08,4.07,4.07,0,0,0,4,3.09c2.79,0,4.41-2.28,4.41-5.61,0-2.91-1.53-5.4-4.32-5.4a4.21,4.21,0,0,0-4,3.27,4.28,4.28,0,0,0-.18,1.08Z"/><path class="cls-23" d="M254.74,325.17c.06,3.57,2.34,5,5,5a9.55,9.55,0,0,0,4-.75l.45,1.89a11.76,11.76,0,0,1-4.83.9c-4.47,0-7.14-2.94-7.14-7.32s2.58-7.83,6.81-7.83c4.74,0,6,4.17,6,6.84a10,10,0,0,1-.09,1.23Zm7.74-1.89c0-1.68-.69-4.29-3.66-4.29-2.67,0-3.84,2.46-4,4.29Z"/><path class="cls-23" d="M269.77,325.17c.06,3.57,2.34,5,5,5a9.55,9.55,0,0,0,4-.75l.45,1.89a11.76,11.76,0,0,1-4.83.9c-4.47,0-7.14-2.94-7.14-7.32s2.58-7.83,6.81-7.83c4.74,0,6,4.17,6,6.84a10,10,0,0,1-.09,1.23Zm7.74-1.89c0-1.68-.69-4.29-3.66-4.29-2.67,0-3.84,2.46-4.05,4.29Z"/><path class="cls-23" d="M281.26,335.64a43.16,43.16,0,0,0,1.8-7.17l2.94-.3a36.57,36.57,0,0,1-2.85,7.29Z"/><path class="cls-23" d="M295.63,311.74h2.61v18h8.64V332H295.63Z"/><path class="cls-23" d="M317.74,332l-.21-1.83h-.09a5.41,5.41,0,0,1-4.44,2.16,4.14,4.14,0,0,1-4.44-4.17c0-3.51,3.12-5.43,8.73-5.4v-.3c0-1.2-.33-3.36-3.3-3.36a7.23,7.23,0,0,0-3.78,1.08l-.6-1.74a9,9,0,0,1,4.77-1.29c4.44,0,5.52,3,5.52,5.94v5.43a20.44,20.44,0,0,0,.24,3.48Zm-.39-7.41c-2.88-.06-6.15.45-6.15,3.27a2.34,2.34,0,0,0,2.49,2.52,3.61,3.61,0,0,0,3.51-2.43,2.76,2.76,0,0,0,.15-.84Z"/><path class="cls-23" d="M322.51,330.42l6.57-8.55c.63-.78,1.23-1.47,1.89-2.25v-.06h-7.86v-2.13h11.07l0,1.65-6.48,8.43c-.6.81-1.2,1.53-1.86,2.28v.06h8.49V332H322.51Z"/><path class="cls-23" d="M345,332l-.21-1.83h-.09a5.41,5.41,0,0,1-4.44,2.16,4.14,4.14,0,0,1-4.44-4.17c0-3.51,3.12-5.43,8.73-5.4v-.3c0-1.2-.33-3.36-3.3-3.36a7.23,7.23,0,0,0-3.78,1.08l-.6-1.74a9,9,0,0,1,4.77-1.29c4.44,0,5.52,3,5.52,5.94v5.43a20.44,20.44,0,0,0,.24,3.48Zm-.39-7.41c-2.88-.06-6.15.45-6.15,3.27a2.34,2.34,0,0,0,2.49,2.52,3.61,3.61,0,0,0,3.51-2.43,2.76,2.76,0,0,0,.15-.84Z"/><path class="cls-23" d="M364,310.65V328.2c0,1.29,0,2.76.12,3.75h-2.37l-.12-2.52h-.06a5.37,5.37,0,0,1-4.95,2.85c-3.51,0-6.21-3-6.21-7.38,0-4.83,3-7.8,6.51-7.8a4.85,4.85,0,0,1,4.38,2.22h.06v-8.67Zm-2.64,12.69a4.66,4.66,0,0,0-.12-1.11,3.88,3.88,0,0,0-3.81-3.06c-2.73,0-4.35,2.4-4.35,5.61,0,2.94,1.44,5.37,4.29,5.37a4,4,0,0,0,3.87-3.15,4.59,4.59,0,0,0,.12-1.14Z"/><path class="cls-23" d="M376.42,332l-.21-1.83h-.09a5.41,5.41,0,0,1-4.44,2.16,4.14,4.14,0,0,1-4.44-4.17c0-3.51,3.12-5.43,8.73-5.4v-.3c0-1.2-.33-3.36-3.3-3.36a7.23,7.23,0,0,0-3.78,1.08l-.6-1.74a9,9,0,0,1,4.77-1.29c4.44,0,5.52,3,5.52,5.94v5.43a20.44,20.44,0,0,0,.24,3.48Zm-.39-7.41c-2.88-.06-6.15.45-6.15,3.27a2.34,2.34,0,0,0,2.49,2.52,3.61,3.61,0,0,0,3.51-2.43,2.76,2.76,0,0,0,.15-.84Z"/><g id="green_button" class="cls-24"><rect id="shadow" class="cls-25" x="247.11" y="423.46" width="257.68" height="66.57" rx="33.28"/><g id="button"><rect class="cls-26" x="247.11" y="420.71" width="257.68" height="66.57" rx="33.28"/><rect class="cls-27" x="247.11" y="417.31" width="257.68" height="66.57" rx="33.28"/><path class="cls-28" d="M455.26,417.31H296.65c-27.36,0-49.54,14.9-49.54,33.28h0a23.94,23.94,0,0,0,3.25,11.87c7.12-12.53,25.15-21.42,46.29-21.42H455.26c21.13,0,39.17,8.89,46.28,21.42a23.94,23.94,0,0,0,3.25-11.87h0C504.79,432.21,482.61,417.31,455.26,417.31Z"/><path class="cls-28" d="M296.65,441H455.26c18.91,0,35.32,7.12,43.67,17.59-8.35-11.91-24.77-20-43.67-20H296.65c-18.9,0-35.32,8.1-43.68,20C261.32,448.16,277.74,441,296.65,441Z"/><path class="cls-29" d="M455.26,420.71c24.52,0,44.46,13.41,44.46,29.88s-19.94,29.88-44.46,29.88H296.65c-24.52,0-44.47-13.4-44.47-29.88s19.95-29.88,44.47-29.88H455.26m0-3.4H296.65c-27.36,0-49.54,14.9-49.54,33.28h0c0,18.38,22.18,33.29,49.54,33.29H455.26c27.35,0,49.53-14.91,49.53-33.29h0c0-18.38-22.18-33.28-49.53-33.28Z"/><g class="cls-30"><rect class="cls-31" x="317.93" y="417.31" width="116.05" height="3.41"/></g><g class="cls-32"><rect class="cls-33" x="299.85" y="480.47" width="152.2" height="3.41"/></g><ellipse class="cls-34" cx="284.2" cy="425.83" rx="7.25" ry="2.02" transform="translate(-71.75 57.86) rotate(-10.33)"/><ellipse class="cls-34" cx="273.16" cy="429.31" rx="2.9" ry="1.95"/><ellipse class="cls-34" cx="467.11" cy="425.83" rx="2.9" ry="1.95"/><path class="cls-34" d="M477.29,427.78c0,.76-.9,1.36-2,1.36s-2-.6-2-1.36.9-1.36,2-1.36S477.29,427,477.29,427.78Z"/></g></g><text class="cls-35" transform="translate(306.91 466)">VR1208</text><path class="cls-23" d="M316.38,466l-9.09-28.36h7l3.45,12c1,3.37,1.85,6.61,2.52,10.14h.13c.72-3.41,1.6-6.77,2.57-10l3.62-12.12h6.81L323.87,466Z"/><path class="cls-23" d="M336.45,438a56,56,0,0,1,8.55-.59c4.2,0,7.15.63,9.17,2.23a7.19,7.19,0,0,1,2.61,5.93,7.54,7.54,0,0,1-5,7v.12c2,.8,3.07,2.7,3.79,5.31.88,3.19,1.77,6.9,2.31,8h-6.56a34.62,34.62,0,0,1-2-6.61c-.76-3.53-2-4.5-4.59-4.54h-1.93V466h-6.36Zm6.36,12.2h2.52c3.2,0,5.09-1.6,5.09-4.08s-1.76-3.92-4.71-4a16.33,16.33,0,0,0-2.9.21Z"/><path class="cls-23" d="M368.56,444.33h-.08l-5.22,2.48-1.05-4.8,7.23-3.36h5.31V466h-6.19Z"/><path class="cls-23" d="M383.75,466v-3.87l3.54-3.2c6-5.34,8.88-8.42,9-11.61,0-2.23-1.34-4-4.5-4a9.93,9.93,0,0,0-5.85,2.27L384.09,441a15.18,15.18,0,0,1,9-2.82c6.19,0,9.6,3.62,9.6,8.59,0,4.59-3.33,8.25-7.28,11.78l-2.53,2.11v.08h10.31V466Z"/><path class="cls-23" d="M427.31,452.2c0,8.46-3.41,14.26-10.4,14.26s-10.18-6.35-10.22-14.09c0-7.92,3.36-14.19,10.43-14.19C424.45,438.18,427.31,444.71,427.31,452.2Zm-14.18.17c-.05,6.27,1.47,9.25,3.95,9.25s3.83-3.11,3.83-9.34c0-6.06-1.3-9.26-3.87-9.26C414.68,443,413.08,446,413.13,452.37Z"/><path class="cls-23" d="M430,458.85c0-3.29,1.9-5.56,4.88-6.86v-.13a6.64,6.64,0,0,1-3.95-6c0-4.62,4.16-7.7,9.64-7.7,6.39,0,9,3.71,9,7a6.67,6.67,0,0,1-3.95,6v.13a7.24,7.24,0,0,1,5,6.81c0,5-4.17,8.29-10.53,8.29C433.24,466.46,430,462.55,430,458.85Zm14.14-.21c0-2.4-1.76-3.83-4.29-4.51a4.16,4.16,0,0,0-3.32,4.09,3.74,3.74,0,0,0,3.87,3.83A3.44,3.44,0,0,0,444.18,458.64Zm-7.19-13c0,1.85,1.68,3,3.87,3.7a3.76,3.76,0,0,0,2.78-3.5,3.14,3.14,0,0,0-3.33-3.36A3,3,0,0,0,437,445.68Z"/><path class="cls-23" d="M183.08,368.49v7.77h7.53v-7.77h4.56v20.22h-4.56v-8.46h-7.53v8.46h-4.59V368.49Z"/><path class="cls-23" d="M207.35,388.71l-.27-1.47H207a5.29,5.29,0,0,1-4.2,1.8,4.5,4.5,0,0,1-4.74-4.5c0-3.81,3.42-5.64,8.61-5.61v-.21c0-.78-.42-1.89-2.67-1.89a8.25,8.25,0,0,0-4.05,1.11L199.1,375a12.11,12.11,0,0,1,5.7-1.29c4.89,0,6.45,2.88,6.45,6.33v5.1a22.73,22.73,0,0,0,.21,3.57ZM200.57,372c-.09-2.52.93-3.93,2.46-3.93a4.25,4.25,0,0,1,1.95.6,3,3,0,0,0,1.26.6c.51,0,.72-.27.78-1.35h2.1c.09,2.76-.87,3.87-2.46,3.87a4.23,4.23,0,0,1-2.07-.66c-.54-.3-.75-.48-1.14-.48s-.69.45-.72,1.35Zm6.24,9.81c-2.4,0-4.26.54-4.26,2.31a1.64,1.64,0,0,0,1.8,1.74,2.49,2.49,0,0,0,2.37-1.68,3.27,3.27,0,0,0,.09-.78Z"/><path class="cls-23" d="M217.91,374l2.19,7.2c.24.87.54,1.95.72,2.73h.09c.21-.78.45-1.89.66-2.73l1.8-7.2h4.89l-3.42,9.66c-2.1,5.82-3.51,8.16-5.16,9.63a8.41,8.41,0,0,1-4.41,2l-1-3.87a5.75,5.75,0,0,0,2-.78,5.24,5.24,0,0,0,1.89-1.83,1.19,1.19,0,0,0,.24-.66,1.66,1.66,0,0,0-.21-.75L212.84,374Z"/><path class="cls-23" d="M236.24,367.41h4.55v21.3h-4.55Z"/><path class="cls-23" d="M260.63,370.29a6.36,6.36,0,0,1,.68,2.73,2.94,2.94,0,0,1-2.76,3.06l-.24,0V384c0,1.92.07,3.48.12,4.71h-4l-.21-2.07h-.09a5.23,5.23,0,0,1-4.59,2.4c-3,0-5.16-1.86-5.16-6.39V374H249v7.89c0,2.13.7,3.42,2.28,3.42a2.48,2.48,0,0,0,2.29-1.59,2.55,2.55,0,0,0,.14-1V374h2.79c1.24,0,1.56-.54,1.56-1.23a4,4,0,0,0-.63-2Z"/><path class="cls-23" d="M275.8,384c0,1.92.07,3.48.12,4.71h-4l-.21-2.07h-.08a5.26,5.26,0,0,1-4.59,2.4c-3,0-5.16-1.86-5.16-6.39V374h4.58v7.89c0,2.13.7,3.42,2.29,3.42a2.48,2.48,0,0,0,2.28-1.59,2.55,2.55,0,0,0,.14-1V374h4.59Z"/><path class="cls-23" d="M285.53,367.41h4.55v21.3h-4.55Z"/><path class="cls-23" d="M302.12,388.71l-.28-1.47h-.09a5.29,5.29,0,0,1-4.2,1.8,4.49,4.49,0,0,1-4.73-4.5c0-3.81,3.42-5.64,8.6-5.61v-.21c0-.78-.42-1.89-2.67-1.89a8.21,8.21,0,0,0-4,1.11l-.84-2.94a12.08,12.08,0,0,1,5.7-1.29c4.89,0,6.44,2.88,6.44,6.33v5.1a24,24,0,0,0,.21,3.57Zm-.54-6.93c-2.41,0-4.26.54-4.26,2.31a1.63,1.63,0,0,0,1.8,1.74,2.51,2.51,0,0,0,2.37-1.68,3.88,3.88,0,0,0,.09-.78Zm.35,11.46a2,2,0,0,1-2.06,2.1,2.12,2.12,0,1,1,.05-4.23A2,2,0,0,1,301.93,393.24Z"/><path class="cls-23" d="M314.33,370a2.29,2.29,0,0,1-2.46,2.28,2.3,2.3,0,1,1,0-4.59A2.3,2.3,0,0,1,314.33,370Zm-4.71,18.75V374h4.55v14.67Z"/><path class="cls-23" d="M323.89,378.72c0-1.83-.06-3.39-.12-4.68h3.84l.21,2h.09a5.09,5.09,0,0,1,4.44-2.31,4.16,4.16,0,0,1,4,2.49h.06a6.57,6.57,0,0,1,1.89-1.77,5.29,5.29,0,0,1,2.79-.72c2.82,0,4.95,2,4.95,6.36v8.64h-4.44v-8c0-2.13-.69-3.36-2.16-3.36a2.23,2.23,0,0,0-2.1,1.59,3.82,3.82,0,0,0-.18,1.17v8.58h-4.44v-8.22c0-1.86-.66-3.12-2.1-3.12a2.32,2.32,0,0,0-2.13,1.65,3,3,0,0,0-.18,1.14v8.55h-4.44Z"/><path class="cls-23" d="M358,388.71l-.27-1.47h-.09a5.29,5.29,0,0,1-4.2,1.8,4.5,4.5,0,0,1-4.74-4.5c0-3.81,3.42-5.64,8.61-5.61v-.21c0-.78-.42-1.89-2.67-1.89a8.25,8.25,0,0,0-4.05,1.11l-.84-2.94a12.11,12.11,0,0,1,5.7-1.29c4.89,0,6.45,2.88,6.45,6.33v5.1a22.73,22.73,0,0,0,.21,3.57ZM351.25,372c-.09-2.52.93-3.93,2.46-3.93a4.25,4.25,0,0,1,2,.6,3,3,0,0,0,1.26.6c.51,0,.72-.27.78-1.35h2.1c.09,2.76-.87,3.87-2.46,3.87a4.23,4.23,0,0,1-2.07-.66c-.54-.3-.75-.48-1.14-.48s-.69.45-.72,1.35Zm6.24,9.81c-2.4,0-4.26.54-4.26,2.31a1.64,1.64,0,0,0,1.8,1.74,2.49,2.49,0,0,0,2.37-1.68,3.27,3.27,0,0,0,.09-.78Z"/><path class="cls-23" d="M375,374l2,6.81a33.91,33.91,0,0,1,.84,3.57h.09c.24-1.2.48-2.31.81-3.57l1.89-6.81h4.8l-5.46,14.67h-4.56L370,374Z"/><path class="cls-23" d="M395.62,388.71l-.27-1.47h-.09a5.29,5.29,0,0,1-4.2,1.8,4.5,4.5,0,0,1-4.74-4.5c0-3.81,3.42-5.64,8.61-5.61v-.21c0-.78-.42-1.89-2.67-1.89a8.25,8.25,0,0,0-4.05,1.11l-.84-2.94a12.11,12.11,0,0,1,5.7-1.29c4.89,0,6.45,2.88,6.45,6.33v5.1a22.73,22.73,0,0,0,.21,3.57Zm-2.94-21.06,2.58,4.56h-3.12l-3.69-4.56Zm2.4,14.13c-2.4,0-4.26.54-4.26,2.31a1.64,1.64,0,0,0,1.8,1.74,2.49,2.49,0,0,0,2.37-1.68,3.27,3.27,0,0,0,.09-.78Z"/><path class="cls-23" d="M409.18,378.72c0-1.83-.06-3.39-.12-4.68h3.84l.21,2h.09a5.09,5.09,0,0,1,4.44-2.31,4.16,4.16,0,0,1,4,2.49h.06a6.57,6.57,0,0,1,1.89-1.77,5.29,5.29,0,0,1,2.79-.72c2.82,0,5,2,5,6.36v8.64h-4.44v-8c0-2.13-.69-3.36-2.16-3.36a2.23,2.23,0,0,0-2.1,1.59,3.82,3.82,0,0,0-.18,1.17v8.58H418v-8.22c0-1.86-.66-3.12-2.1-3.12A2.32,2.32,0,0,0,413.8,379a3,3,0,0,0-.18,1.14v8.55h-4.44Z"/><path class="cls-23" d="M448.81,384c0,1.92.06,3.48.12,4.71h-4l-.21-2.07h-.09a5.23,5.23,0,0,1-4.59,2.4c-3,0-5.16-1.86-5.16-6.39V374h4.59v7.89c0,2.13.69,3.42,2.28,3.42a2.45,2.45,0,0,0,2.28-1.59,2.55,2.55,0,0,0,.15-1V374h4.59Z"/><path class="cls-23" d="M460.81,388.71l-.27-1.47h-.09a5.29,5.29,0,0,1-4.2,1.8,4.5,4.5,0,0,1-4.74-4.5c0-3.81,3.42-5.64,8.61-5.61v-.21c0-.78-.42-1.89-2.67-1.89a8.25,8.25,0,0,0-4.05,1.11l-.84-2.94a12.11,12.11,0,0,1,5.7-1.29c4.89,0,6.45,2.88,6.45,6.33v5.1a22.73,22.73,0,0,0,.21,3.57Zm-.54-6.93c-2.4,0-4.26.54-4.26,2.31a1.64,1.64,0,0,0,1.8,1.74,2.49,2.49,0,0,0,2.37-1.68,3.27,3.27,0,0,0,.09-.78Z"/><path class="cls-23" d="M474.34,384.72a8.91,8.91,0,0,0,3.93,1.11c1.38,0,2-.48,2-1.23s-.45-1.11-2.16-1.68c-3-1-4.2-2.67-4.17-4.41,0-2.73,2.34-4.8,6-4.8a9.84,9.84,0,0,1,4.14.84l-.81,3.15a7.2,7.2,0,0,0-3.18-.84c-1.11,0-1.74.45-1.74,1.2s.57,1.05,2.37,1.68c2.79,1,4,2.37,4,4.53,0,2.73-2.16,4.74-6.36,4.74a10.39,10.39,0,0,1-4.74-1Z"/><path class="cls-23" d="M495.73,388.71l-.27-1.47h-.09a5.29,5.29,0,0,1-4.2,1.8,4.5,4.5,0,0,1-4.74-4.5c0-3.81,3.42-5.64,8.61-5.61v-.21c0-.78-.42-1.89-2.67-1.89a8.25,8.25,0,0,0-4.05,1.11l-.84-2.94a12.11,12.11,0,0,1,5.7-1.29c4.89,0,6.45,2.88,6.45,6.33v5.1a22.73,22.73,0,0,0,.21,3.57Zm-5-20.13a2.23,2.23,0,0,0,2.4,1.8c1.47,0,2.31-.84,2.37-1.8h2.19a4.24,4.24,0,0,1-4.59,4.2,4.19,4.19,0,0,1-4.53-4.2Zm4.41,13.2c-2.4,0-4.26.54-4.26,2.31a1.64,1.64,0,0,0,1.8,1.74,2.49,2.49,0,0,0,2.37-1.68,3.27,3.27,0,0,0,.09-.78Zm2.61-17.34-3.72,4.41h-2.37l2.58-4.41Z"/><path class="cls-23" d="M503.23,378.72c0-1.83-.06-3.39-.12-4.68H507l.21,2h.09a5.09,5.09,0,0,1,4.44-2.31,4.16,4.16,0,0,1,4,2.49h.06a6.57,6.57,0,0,1,1.89-1.77,5.29,5.29,0,0,1,2.79-.72c2.82,0,4.95,2,4.95,6.36v8.64H521v-8c0-2.13-.69-3.36-2.16-3.36a2.23,2.23,0,0,0-2.1,1.59,3.82,3.82,0,0,0-.18,1.17v8.58h-4.44v-8.22c0-1.86-.66-3.12-2.1-3.12a2.32,2.32,0,0,0-2.13,1.65,3,3,0,0,0-.18,1.14v8.55h-4.44Z"/><path class="cls-23" d="M535.09,378.72c0-1.83-.06-3.39-.12-4.68h4l.21,2h.09a5.37,5.37,0,0,1,4.53-2.34c3,0,5.25,2,5.25,6.3v8.7h-4.56v-8.13c0-1.89-.66-3.18-2.31-3.18a2.43,2.43,0,0,0-2.31,1.71,3.13,3.13,0,0,0-.18,1.14v8.46h-4.56Z"/><path class="cls-23" d="M552.67,367.41h4.56v8.37h.06a5.48,5.48,0,0,1,1.8-1.5,5.12,5.12,0,0,1,2.37-.57c2.91,0,5.13,2,5.13,6.42v8.58H562v-8.07c0-1.92-.66-3.24-2.37-3.24a2.43,2.43,0,0,0-2.28,1.59,2.9,2.9,0,0,0-.15,1v8.7h-4.56Z"/><path class="cls-23" d="M573.76,382.83c.15,1.89,2,2.79,4.14,2.79A12.92,12.92,0,0,0,582,385l.6,3.09a14.48,14.48,0,0,1-5.31.9c-5,0-7.83-2.88-7.83-7.47,0-3.72,2.31-7.83,7.41-7.83,4.74,0,6.54,3.69,6.54,7.32a10.83,10.83,0,0,1-.15,1.8Zm5.37-3.12c0-1.11-.48-3-2.58-3a3,3,0,0,0-2.82,3Zm2.52-12.06L578,372.21h-3.15l2.58-4.56Z"/><path class="cls-23" d="M585.58,386.31a2.69,2.69,0,1,1,2.7,2.73A2.61,2.61,0,0,1,585.58,386.31Zm1-4.23-.69-13.59h4.77L590,382.08Z"/></g></g></g></svg>