<svg xmlns="http://www.w3.org/2000/svg" xmlns:xlink="http://www.w3.org/1999/xlink" viewBox="0 0 742.1 543.45"><defs><style>.cls-1{mask:url(#mask);filter:url(#luminosity-noclip-3);}.cls-2,.cls-4{mix-blend-mode:multiply;}.cls-2{fill:url(#linear-gradient);}.cls-3{mask:url(#mask-2);filter:url(#luminosity-noclip-4);}.cls-4{fill:url(#linear-gradient-2);}.cls-5{isolation:isolate;}.cls-6{fill:#b8725c;}.cls-7,.cls-8{opacity:0.51;mix-blend-mode:screen;}.cls-7{fill:url(#Degradado_sin_nombre_28);}.cls-8{fill:url(#Degradado_sin_nombre_28-2);}.cls-9{fill:#9e5f4d;}.cls-10{fill:#fce385;}.cls-11,.cls-19{opacity:0.64;}.cls-11{fill:url(#linear-gradient-3);}.cls-12{fill:#ec2227;}.cls-13{opacity:0.31;}.cls-14{fill:url(#Degradado_sin_nombre_9);}.cls-15{fill:url(#Degradado_sin_nombre_9-2);}.cls-16{fill:url(#Degradado_sin_nombre_9-3);}.cls-17,.cls-21,.cls-28,.cls-34,.cls-35{fill:#fff;}.cls-17{opacity:0.14;}.cls-18{font-size:54.87px;fill:#f7f5f6;stroke-width:7px;}.cls-18,.cls-35{stroke:#fff;}.cls-18,.cls-21,.cls-35{stroke-linecap:round;stroke-linejoin:round;}.cls-18,.cls-21{font-family:iCielSoupofJustice, iCiel Soup of Justice;}.cls-20{fill:#7a481d;}.cls-21{font-size:52.1px;stroke:#f9f9fa;stroke-width:8px;}.cls-22{fill:#ef4250;}.cls-23{fill:#231f20;}.cls-24{opacity:0.62;}.cls-25{fill:#010101;opacity:0.3;}.cls-26{fill:url(#linear-gradient-4);}.cls-27{fill:url(#linear-gradient-5);}.cls-28{opacity:0.1;}.cls-29{fill:url(#linear-gradient-6);}.cls-30{mask:url(#mask-3);}.cls-31{fill:url(#linear-gradient-7);}.cls-32{mask:url(#mask-4);}.cls-33{fill:url(#linear-gradient-8);}.cls-34{opacity:0.5;}.cls-35{font-size:32.48px;stroke-width:4px;font-family:MyriadPro-Bold, Myriad Pro;font-weight:700;}.cls-36{filter:url(#luminosity-noclip-2);}.cls-37{filter:url(#luminosity-noclip);}</style><filter id="luminosity-noclip" x="275.65" y="-7341.79" width="192.22" height="32766" filterUnits="userSpaceOnUse" color-interpolation-filters="sRGB"><feFlood flood-color="#fff" result="bg"/><feBlend in="SourceGraphic" in2="bg"/></filter><mask id="mask" x="275.65" y="-7341.79" width="192.22" height="32766" maskUnits="userSpaceOnUse"><g class="cls-37"/></mask><linearGradient id="linear-gradient" x1="275.65" y1="338.17" x2="467.87" y2="338.17" gradientUnits="userSpaceOnUse"><stop offset="0"/><stop offset="0.5" stop-color="#fff"/><stop offset="0.83" stop-color="#515151"/><stop offset="1"/></linearGradient><filter id="luminosity-noclip-2" x="245.72" y="-7341.79" width="252.09" height="32766" filterUnits="userSpaceOnUse" color-interpolation-filters="sRGB"><feFlood flood-color="#fff" result="bg"/><feBlend in="SourceGraphic" in2="bg"/></filter><mask id="mask-2" x="245.72" y="-7341.79" width="252.09" height="32766" maskUnits="userSpaceOnUse"><g class="cls-36"/></mask><linearGradient id="linear-gradient-2" x1="245.72" y1="406.56" x2="497.81" y2="406.56" xlink:href="#linear-gradient"/><linearGradient id="Degradado_sin_nombre_28" x1="830.29" y1="574.58" x2="1112.84" y2="85.19" gradientTransform="matrix(0, 1, 1, 0, -123.46, -860.44)" gradientUnits="userSpaceOnUse"><stop offset="0" stop-color="#d08e64"/><stop offset="0.06" stop-color="#d08e64" stop-opacity="0.93"/><stop offset="0.53" stop-color="#d08e64" stop-opacity="0.44"/><stop offset="0.85" stop-color="#d08e64" stop-opacity="0.12"/><stop offset="1" stop-color="#d08e64" stop-opacity="0"/></linearGradient><linearGradient id="Degradado_sin_nombre_28-2" x1="-7129.52" y1="501.16" x2="-6924.41" y2="145.89" gradientTransform="translate(-201.46 -6800.48) rotate(-90)" xlink:href="#Degradado_sin_nombre_28"/><linearGradient id="linear-gradient-3" x1="32.74" y1="271.08" x2="709.36" y2="271.08" gradientUnits="userSpaceOnUse"><stop offset="0" stop-color="#f3eded"/><stop offset="0.18" stop-color="#ecdad2" stop-opacity="0.8"/><stop offset="0.59" stop-color="#ddb297" stop-opacity="0.37"/><stop offset="0.87" stop-color="#d49872" stop-opacity="0.1"/><stop offset="1" stop-color="#d08e64" stop-opacity="0"/></linearGradient><linearGradient id="Degradado_sin_nombre_9" x1="375.95" y1="5.84" x2="375.95" y2="104.25" gradientUnits="userSpaceOnUse"><stop offset="0" stop-color="#fff"/><stop offset="0.08" stop-color="#fff" stop-opacity="0.76"/><stop offset="0.22" stop-color="#fff" stop-opacity="0.36"/><stop offset="0.31" stop-color="#fff" stop-opacity="0.1"/><stop offset="0.36" stop-color="#fff" stop-opacity="0"/></linearGradient><linearGradient id="Degradado_sin_nombre_9-2" x1="575.19" y1="12.65" x2="575.19" y2="13.02" xlink:href="#Degradado_sin_nombre_9"/><linearGradient id="Degradado_sin_nombre_9-3" x1="176.72" y1="12.65" x2="176.72" y2="13.02" xlink:href="#Degradado_sin_nombre_9"/><linearGradient id="linear-gradient-4" x1="158.36" y1="376.05" x2="585.17" y2="376.05" gradientUnits="userSpaceOnUse"><stop offset="0" stop-color="#32823f"/><stop offset="0.5" stop-color="#7bb742"/><stop offset="1" stop-color="#32823f"/></linearGradient><linearGradient id="linear-gradient-5" x1="371.76" y1="408.4" x2="371.76" y2="336.33" gradientUnits="userSpaceOnUse"><stop offset="0" stop-color="#6daf44"/><stop offset="0.02" stop-color="#6fb044"/><stop offset="1" stop-color="#bfd730"/></linearGradient><linearGradient id="linear-gradient-6" x1="371.76" y1="408.4" x2="371.76" y2="336.33" gradientUnits="userSpaceOnUse"><stop offset="0" stop-color="#5d9a42"/><stop offset="0.18" stop-color="#6fa53f"/><stop offset="1" stop-color="#bfd730"/></linearGradient><filter id="luminosity-noclip-3" x="275.65" y="336.33" width="192.22" height="3.69" filterUnits="userSpaceOnUse" color-interpolation-filters="sRGB"><feFlood flood-color="#fff" result="bg"/><feBlend in="SourceGraphic" in2="bg"/></filter><mask id="mask-3" x="275.65" y="336.33" width="192.22" height="3.69" maskUnits="userSpaceOnUse"><g class="cls-1"><rect class="cls-2" x="275.65" y="336.33" width="192.22" height="3.69"/></g></mask><linearGradient id="linear-gradient-7" x1="275.65" y1="338.17" x2="467.87" y2="338.17" gradientUnits="userSpaceOnUse"><stop offset="0" stop-color="#dbeaba"/><stop offset="0.5" stop-color="#dbeaba"/><stop offset="1" stop-color="#dbeaba"/></linearGradient><filter id="luminosity-noclip-4" x="245.72" y="404.72" width="252.09" height="3.69" filterUnits="userSpaceOnUse" color-interpolation-filters="sRGB"><feFlood flood-color="#fff" result="bg"/><feBlend in="SourceGraphic" in2="bg"/></filter><mask id="mask-4" x="245.72" y="404.72" width="252.09" height="3.69" maskUnits="userSpaceOnUse"><g class="cls-3"><rect class="cls-4" x="245.72" y="404.72" width="252.09" height="3.69"/></g></mask><linearGradient id="linear-gradient-8" x1="245.72" y1="406.56" x2="497.81" y2="406.56" xlink:href="#linear-gradient-7"/></defs><title>chucmung_email</title><g class="cls-5"><g id="Layer_2" data-name="Layer 2"><g id="Layer_1-2" data-name="Layer 1"><path class="cls-6" d="M0,452.64V87.71A64.86,64.86,0,0,1,64.86,22.85l3.06-.46a2063.41,2063.41,0,0,1,606.26,0l3.06.46A64.86,64.86,0,0,1,742.1,87.71v373c0,31.49-25.59,60.25-56.87,63.92l-8,.94a2628.46,2628.46,0,0,1-612.38,0h0C29.19,521.38,0,488.56,0,452.64Z"/><path class="cls-7" d="M6.86,330.55S453.07,269.88,469.58,1.81c0,0-187.71-10.92-397.25,21.82,0,0-48.7-3.8-63.63,49.39,0,0-1.84,9.08-1.84,24.59Z"/><path class="cls-8" d="M0,27.68S248.8,78.54,304.84,291.17c8.69,33-17.55,64.77-51.6,62.9C198,351,117.86,346.74,65.48,338c0,0-41.47,2.18-63.64-52.8,0,0-1.84-9.08-1.84-24.59Z"/><path class="cls-9" d="M17.46,444.13V96.37A61.81,61.81,0,0,1,79.27,34.56l2.92-.43a1965.23,1965.23,0,0,1,577.72,0l2.92.43a61.81,61.81,0,0,1,61.81,61.81V451.8c0,30-24.39,57.43-54.19,60.92l-7.62.89a2504.44,2504.44,0,0,1-583.56,0h0C45.28,509.63,17.46,478.36,17.46,444.13Z"/><path class="cls-10" d="M32.74,436.68V104A59.14,59.14,0,0,1,91.88,44.81l2.79-.42a1881,1881,0,0,1,552.76,0l2.79.42A59.14,59.14,0,0,1,709.36,104V444c0,28.71-23.33,54.94-51.85,58.29l-7.29.85a2397,2397,0,0,1-558.34,0h0C59.35,499.35,32.74,469.43,32.74,436.68Z"/><path class="cls-11" d="M32.74,436V103.3A59.14,59.14,0,0,1,91.88,44.16l2.79-.41a1881,1881,0,0,1,552.76,0l2.79.41a59.14,59.14,0,0,1,59.14,59.14V443.38c0,28.71-23.33,54.94-51.85,58.29l-7.29.85a2397,2397,0,0,1-558.34,0h0C59.35,498.71,32.74,468.79,32.74,436Z"/><path class="cls-12" d="M556.84,5.92H195.06a21.67,21.67,0,0,0-9.25,1.32l-.24,0,.17,0a26.07,26.07,0,0,0-8.81,5.38c1.79-1.52,9.14-7.12,17.34-4.59a13.22,13.22,0,0,1,6.89,5.27c5.6,7.94,13.44,23.09,17.73,49.31a49.52,49.52,0,0,0,48.83,41.61H484.18A49.35,49.35,0,0,0,533,63c4.49-27.83,13-43.26,18.65-50.86a11,11,0,0,1,4.18-3.5h0c.49-.13,1-.29,1.7-.5,8.25-2.61,15.65,3,17.45,4.56C566.22,4.65,556.84,5.92,556.84,5.92Z"/><path class="cls-12" d="M575,12.65c.14.12.28.23.42.37S575.25,12.87,575,12.65Z"/><path class="cls-12" d="M176.93,12.65c-.27.22-.42.37-.42.37S176.79,12.77,176.93,12.65Z"/><g class="cls-13"><path class="cls-14" d="M556.84,5.92H195.06a21.67,21.67,0,0,0-9.25,1.32l-.24,0,.17,0a26.07,26.07,0,0,0-8.81,5.38c1.79-1.52,9.14-7.12,17.34-4.59a13.22,13.22,0,0,1,6.89,5.27c5.6,7.94,13.44,23.09,17.73,49.31a49.52,49.52,0,0,0,48.83,41.61H484.18A49.35,49.35,0,0,0,533,63c4.49-27.83,13-43.26,18.65-50.86a11,11,0,0,1,4.18-3.5h0c.49-.13,1-.29,1.7-.5,8.25-2.61,15.65,3,17.45,4.56C566.22,4.65,556.84,5.92,556.84,5.92Z"/><path class="cls-15" d="M575,12.65c.14.12.28.23.42.37S575.25,12.87,575,12.65Z"/><path class="cls-16" d="M176.93,12.65c-.27.22-.42.37-.42.37S176.79,12.77,176.93,12.65Z"/></g><path class="cls-17" d="M234.91,8.5s-10.35,0-12.93,7.77S247.85,29.21,253,24,253,8.5,234.91,8.5Z"/><path class="cls-17" d="M358.6,14.61a84.07,84.07,0,0,0-34.38-5.83c-16.67.57-42.71,2.29-47.9,7.49-7.76,7.76,13,39.11,80.22,18.11C380.2,27,370.91,19.59,358.6,14.61Z"/><text class="cls-18" transform="translate(257.09 67.01)">mini game</text><g class="cls-19"><path class="cls-20" d="M281.88,33.7l9.87-.88,1.87,34-11.85-.49L282,53.84l-2.53,8.07-5.59-.17-3-7.9-.22,12.67-11.41.39,1.37-32.81L271,33.15l5.49,13.06Z"/><path class="cls-20" d="M309.37,66.84H297.24l2-33.3,10-.61Z"/><path class="cls-20" d="M329.89,33.15l10.43.94,1.37,32.81-11.85.27-6.26-15.91L324,67l-11-.17,1.87-34,9.87.88,5.6,14.1Z"/><path class="cls-20" d="M356.72,66.84H344.6l2-33.3,10-.61Z"/><path class="cls-20" d="M401.45,62.4c-5.93,4.06-12,5.32-18.11,3.84a13.89,13.89,0,0,1-9.77-8.45,21.94,21.94,0,0,1-1.81-6.58,30.17,30.17,0,0,1,1-9.06c1.15-3.57,3.79-6.75,7.85-9.49a21.09,21.09,0,0,1,13.66-.77,23.1,23.1,0,0,1,5.81,2.41L397,44.46A9.26,9.26,0,0,0,394.59,43a8.21,8.21,0,0,0-6-.16,7.35,7.35,0,0,0-4.88,7.79c.66,4.44,2.91,6.09,6.8,5l-.55-5.38c.28-.05.77-.11,1.43-.27l8-1.48Z"/><path class="cls-20" d="M403.42,66.29l8.45-33.08L426.8,33l8,33.36-10.48,1L423,60.75h-7.68l-1.26,6.59Zm17.67-14.21L419,41.82l-1.81,10.43Z"/><path class="cls-20" d="M460.44,33.7l9.87-.88,1.87,34-11.85-.49.22-12.51L458,61.91l-5.6-.17-3-7.9-.22,12.67-11.42.39,1.38-32.81,10.42-.94,5.49,13.06Z"/><path class="cls-20" d="M500,66.57l-24.81.22,1.27-33.42,23-.16L499.18,38c-.11,2.46-.17,4.06-.17,4.77l-11.41.06v3l8.5-.11L495.34,54l-8.12.28-.17,2.63,3.35,0c1.32,0,2.3,0,3-.06,4.34,0,6.48,0,6.42-.11Z"/></g><text class="cls-21" transform="translate(242.34 165.3)">chúc mừng</text><path class="cls-22" d="M271.68,161c0,.52-1.72,1.41-5.21,2.71a21.39,21.39,0,0,1-12.56.89,13.11,13.11,0,0,1-9.23-8.34,21.86,21.86,0,0,1-1.66-6.52,17.79,17.79,0,0,1,.31-6.25,12.83,12.83,0,0,1,8-9.38c3.23-1.41,7.3-1.77,12.14-1.14a48.3,48.3,0,0,1,6.36,1.3l-2.92,9.64a9.07,9.07,0,0,0-2.29-1.36,7.79,7.79,0,0,0-5.73-.15,7,7,0,0,0-4.64,7.4c.42,2.76,1.56,4.43,3.44,4.89s4.27-.26,7.29-2.13Z"/><path class="cls-22" d="M291,133.15l9.9.89,1.3,31.16-11.26.26.21-12.66H286l-.57,12.5L275,165.15l1.77-32.31,9.38.83L286,145.29l4.95.06Z"/><path class="cls-22" d="M330.19,154.62a10.64,10.64,0,0,1-2.55,6.78c-2.25,2.81-5.32,4-9.33,3.64-5.06-.46-8.6-2.39-10.63-5.68a11.12,11.12,0,0,1-1.62-4.89l-1.46-20.95,10.79-.57,1,19.38c.37,1.93,1.2,2.81,2.5,2.66s2-1.1,2-2.92V132.84l9.9.47Zm-14.54-24.8-2.45-3.91,9.64-6.72,4,4.53Z"/><path class="cls-22" d="M361.66,161c0,.52-1.72,1.41-5.21,2.71a21.39,21.39,0,0,1-12.56.89,13.09,13.09,0,0,1-9.22-8.34,21.56,21.56,0,0,1-1.67-6.52,17.79,17.79,0,0,1,.31-6.25,12.86,12.86,0,0,1,8-9.38c3.23-1.41,7.29-1.77,12.14-1.14a48.51,48.51,0,0,1,6.35,1.3l-2.91,9.64a9.14,9.14,0,0,0-2.3-1.36,7.79,7.79,0,0,0-5.73-.15,7,7,0,0,0-4.64,7.4c.42,2.76,1.57,4.43,3.44,4.89s4.28-.26,7.3-2.13Z"/><path class="cls-22" d="M397.3,133.67l9.38-.83,1.77,32.31-11.26-.47.21-11.88L395,160.46l-5.32-.16-2.87-7.5-.2,12-10.84.36,1.3-31.16,9.9-.89,5.21,12.41Z"/><path class="cls-22" d="M437.11,154.62a10.6,10.6,0,0,1-2.56,6.78c-2.24,2.81-5.31,4-9.33,3.64-5.05-.46-8.59-2.39-10.62-5.68a11.12,11.12,0,0,1-1.62-4.89l-1.46-20.95,10.79-.57,1,19.38c.36,1.93,1.2,2.81,2.5,2.66s2-1.1,2-2.92V132.84l9.9.47v.52a.22.22,0,0,1,.16-.05c.78-.21,1.25-.57,1.3-1s-.31-1.51-1.25-2.71l3.44-3.34c.57,0,1.2.68,1.93,2.19a9.12,9.12,0,0,1,.88,5.06,5.57,5.57,0,0,1-3.12,4.22,8.57,8.57,0,0,1-2.56.93l-1,.16Zm-4.95-29.18-2.3,4.07-10.47-5.37,2.13-5.68Z"/><path class="cls-22" d="M456.59,133.15l9.9.89,1.31,31.16-11.26.26-5.94-15.11.42,15-10.48-.15,1.77-32.31,9.38.83,5.32,13.4Z"/><path class="cls-22" d="M498.74,160.93c-5.62,3.85-11.35,5-17.19,3.65a13.22,13.22,0,0,1-9.28-8,20.72,20.72,0,0,1-1.72-6.25,28.85,28.85,0,0,1,.94-8.6c1.1-3.39,3.6-6.41,7.45-9a20.11,20.11,0,0,1,13-.72,21.55,21.55,0,0,1,5.52,2.29l-2.92,9.64a8.89,8.89,0,0,0-2.29-1.36,7.79,7.79,0,0,0-5.73-.15,7,7,0,0,0-4.64,7.4c.63,4.22,2.76,5.78,6.46,4.74l-.52-5.11c.26,0,.73-.1,1.36-.26l7.55-1.41Z"/><path class="cls-23" d="M100.6,200.74a25.29,25.29,0,0,1,4.77-.42c2.61,0,4.29.45,5.55,1.47a4.24,4.24,0,0,1,1.68,3.57,4.8,4.8,0,0,1-3.42,4.44v.06a5.21,5.21,0,0,1,4.17,5.07,5.45,5.45,0,0,1-1.71,4c-1.41,1.29-3.69,1.89-7,1.89a30.51,30.51,0,0,1-4.05-.24Zm2.61,8.28h2.37c2.76,0,4.38-1.44,4.38-3.39,0-2.37-1.8-3.3-4.44-3.3a11.2,11.2,0,0,0-2.31.18Zm0,9.69a14,14,0,0,0,2.19.12c2.7,0,5.19-1,5.19-3.93,0-2.76-2.37-3.9-5.22-3.9h-2.16Z"/><path class="cls-23" d="M124.81,220.69l-.21-1.83h-.09a5.41,5.41,0,0,1-4.44,2.16,4.14,4.14,0,0,1-4.44-4.17c0-3.51,3.12-5.43,8.73-5.4v-.3c0-1.2-.33-3.36-3.3-3.36a7.23,7.23,0,0,0-3.78,1.08l-.6-1.74a9,9,0,0,1,4.77-1.29c4.44,0,5.52,3,5.52,5.94v5.43a20.44,20.44,0,0,0,.24,3.48Zm-.39-7.41c-2.88-.06-6.15.45-6.15,3.27a2.34,2.34,0,0,0,2.49,2.52,3.61,3.61,0,0,0,3.51-2.43,2.76,2.76,0,0,0,.15-.84Zm-1.14,11.34a1.5,1.5,0,0,1-1.5,1.56,1.55,1.55,0,0,1,0-3.09A1.49,1.49,0,0,1,123.28,224.62Z"/><path class="cls-23" d="M131.23,210.1c0-1.5,0-2.73-.12-3.93h2.34l.15,2.4h.06a5.34,5.34,0,0,1,4.8-2.73c2,0,5.13,1.2,5.13,6.18v8.67H141v-8.37c0-2.34-.87-4.29-3.36-4.29a3.75,3.75,0,0,0-3.54,2.7,3.8,3.8,0,0,0-.18,1.23v8.73h-2.64Z"/><path class="cls-23" d="M166.4,204.13v12.81c0,1.29,0,2.76.12,3.75h-2.37l-.12-2.52H164A5.37,5.37,0,0,1,159,221c-3.51,0-6.21-3-6.21-7.38,0-4.83,3-7.8,6.51-7.8a4.85,4.85,0,0,1,4.38,2.22h.06v-3.93h-5.91v-1.65h5.91v-3.09h2.64v3.09h2.31v1.65Zm-2.64,8a4.66,4.66,0,0,0-.12-1.11,3.88,3.88,0,0,0-3.81-3.06c-2.73,0-4.35,2.4-4.35,5.61,0,2.94,1.44,5.37,4.29,5.37a4,4,0,0,0,3.87-3.15,4.59,4.59,0,0,0,.12-1.14Z"/><path class="cls-23" d="M178.82,220.69l-.21-1.83h-.09a5.41,5.41,0,0,1-4.44,2.16,4.14,4.14,0,0,1-4.44-4.17c0-3.51,3.12-5.43,8.73-5.4v-.3c0-1.2-.33-3.36-3.3-3.36a7.23,7.23,0,0,0-3.78,1.08l-.6-1.74a9,9,0,0,1,4.77-1.29c4.44,0,5.52,3,5.52,5.94v5.43a20.44,20.44,0,0,0,.24,3.48Zm-6.78-17c-.06-2,.75-3.12,2-3.12a3.69,3.69,0,0,1,1.86.66,3,3,0,0,0,1.26.51c.48,0,.75-.27.84-1.29h1.38c.06,2-.63,3-2,3a4,4,0,0,1-1.83-.6,2.67,2.67,0,0,0-1.29-.54c-.48,0-.72.51-.78,1.35Zm6.39,9.6c-2.88-.06-6.15.45-6.15,3.27a2.34,2.34,0,0,0,2.49,2.52,3.61,3.61,0,0,0,3.51-2.43,2.76,2.76,0,0,0,.15-.84Z"/><path class="cls-23" d="M201.56,220.15a9.65,9.65,0,0,1-4.17.84c-4.37,0-7.22-3-7.22-7.41a7.37,7.37,0,0,1,7.8-7.71,8.9,8.9,0,0,1,3.66.75l-.61,2A6.11,6.11,0,0,0,198,208c-3.33,0-5.13,2.46-5.13,5.49,0,3.36,2.16,5.43,5,5.43a7.45,7.45,0,0,0,3.23-.72Z"/><path class="cls-23" d="M204.66,199.39h2.64v9.06h0a4.86,4.86,0,0,1,1.9-1.86,5.4,5.4,0,0,1,2.69-.75c1.95,0,5.08,1.2,5.08,6.21v8.64h-2.64v-8.34c0-2.34-.87-4.32-3.36-4.32a3.82,3.82,0,0,0-3.55,2.64,3.4,3.4,0,0,0-.17,1.26v8.76h-2.64Z"/><path class="cls-23" d="M224.25,202.09a1.64,1.64,0,0,1-3.28,0,1.62,1.62,0,0,1,1.66-1.65A1.57,1.57,0,0,1,224.25,202.09Zm-2.94,18.6V206.17h2.63v14.52Z"/><path class="cls-23" d="M229.8,213.91c0,3.57,2.34,5,5,5a9.56,9.56,0,0,0,4-.75l.44,1.89a11.74,11.74,0,0,1-4.82.9c-4.47,0-7.14-2.94-7.14-7.32s2.57-7.83,6.81-7.83c4.73,0,6,4.17,6,6.84a10,10,0,0,1-.09,1.23Zm7.73-1.89c0-1.68-.68-4.29-3.65-4.29-2.67,0-3.84,2.46-4,4.29Zm-2.46-12.12,2.61,4.29h-2l-1.54-2.82h0l-1.53,2.82h-1.92l2.51-4.29Zm6.28-2.46-3,4h-1.53l2-4Z"/><path class="cls-23" d="M243.35,210.1c0-1.5,0-2.73-.12-3.93h2.34l.15,2.4h.06a5.35,5.35,0,0,1,4.8-2.73c2,0,5.13,1.2,5.13,6.18v8.67h-2.64v-8.37c0-2.34-.87-4.29-3.35-4.29a3.74,3.74,0,0,0-3.54,2.7A3.78,3.78,0,0,0,246,212v8.73h-2.64Z"/><path class="cls-23" d="M269.16,202v4.17h3.78v2h-3.78V216c0,1.8.51,2.82,2,2.82a5.87,5.87,0,0,0,1.53-.18l.12,2a6.46,6.46,0,0,1-2.34.36,3.66,3.66,0,0,1-2.85-1.11c-.75-.78-1-2.07-1-3.78v-7.92h-2.25v-2h2.25v-3.48Z"/><path class="cls-23" d="M275.91,199.39h2.64v9.06h.06a4.9,4.9,0,0,1,1.89-1.86,5.43,5.43,0,0,1,2.7-.75c1.95,0,5.07,1.2,5.07,6.21v8.64h-2.64v-8.34c0-2.34-.87-4.32-3.36-4.32a3.79,3.79,0,0,0-3.54,2.64,3.2,3.2,0,0,0-.18,1.26v8.76h-2.64Z"/><path class="cls-23" d="M300.6,220.69l-.21-1.83h-.09a5.41,5.41,0,0,1-4.44,2.16,4.14,4.14,0,0,1-4.44-4.17c0-3.51,3.12-5.43,8.73-5.4v-.3c0-1.2-.33-3.36-3.3-3.36a7.23,7.23,0,0,0-3.78,1.08l-.6-1.74a9,9,0,0,1,4.77-1.29c4.44,0,5.52,3,5.52,5.94v5.43a20.44,20.44,0,0,0,.24,3.48ZM295.11,201a2.33,2.33,0,0,0,2.37,2.07,2.26,2.26,0,0,0,2.4-2.07h1.47a3.87,3.87,0,0,1-7.74,0Zm5.1,12.3c-2.88-.06-6.15.45-6.15,3.27a2.34,2.34,0,0,0,2.49,2.52,3.61,3.61,0,0,0,3.51-2.43,2.76,2.76,0,0,0,.15-.84Zm1.08-15.78L298,201.43h-1.59l2.4-3.93Z"/><path class="cls-23" d="M307,210.1c0-1.5,0-2.73-.12-3.93h2.34l.15,2.4h.06a5.34,5.34,0,0,1,4.8-2.73c2,0,5.13,1.2,5.13,6.18v8.67h-2.64v-8.37c0-2.34-.87-4.29-3.36-4.29a3.75,3.75,0,0,0-3.54,2.7,3.8,3.8,0,0,0-.18,1.23v8.73H307Z"/><path class="cls-23" d="M336.18,206.17c-.06,1.05-.12,2.22-.12,4v8.43c0,3.33-.66,5.37-2.07,6.63a7.7,7.7,0,0,1-5.28,1.74,9.37,9.37,0,0,1-4.83-1.2l.66-2a8.19,8.19,0,0,0,4.26,1.14c2.7,0,4.68-1.41,4.68-5.07V218.2h-.06a5.18,5.18,0,0,1-4.62,2.43c-3.6,0-6.18-3.06-6.18-7.08,0-4.92,3.21-7.71,6.54-7.71a4.83,4.83,0,0,1,4.53,2.52h.06l.12-2.19Zm-2.73,5.73a3.76,3.76,0,0,0-.15-1.2,3.8,3.8,0,0,0-3.69-2.79c-2.52,0-4.32,2.13-4.32,5.49,0,2.85,1.44,5.22,4.29,5.22a3.86,3.86,0,0,0,3.66-2.7,4.59,4.59,0,0,0,.21-1.41Z"/><path class="cls-23" d="M346.42,210.1c0-1.5,0-2.73-.12-3.93h2.31l.12,2.34h.09a5,5,0,0,1,4.56-2.67,4.29,4.29,0,0,1,4.1,2.91h.07a5.86,5.86,0,0,1,1.62-1.89,5,5,0,0,1,3.21-1c1.92,0,4.76,1.26,4.76,6.3v8.55h-2.58v-8.22c0-2.79-1-4.47-3.14-4.47a3.42,3.42,0,0,0-3.12,2.4,4.35,4.35,0,0,0-.21,1.32v9h-2.58V212c0-2.31-1-4-3-4a3.94,3.94,0,0,0-3.47,3.93v8.76h-2.58Z"/><path class="cls-23" d="M374.38,202.09a1.64,1.64,0,0,1-3.27,0,1.61,1.61,0,0,1,1.65-1.65A1.57,1.57,0,0,1,374.38,202.09Zm-2.94,18.6V206.17h2.64v14.52Z"/><path class="cls-23" d="M378.46,210.1c0-1.5,0-2.73-.12-3.93h2.34l.15,2.4h.06a5.33,5.33,0,0,1,4.79-2.73c2,0,5.13,1.2,5.13,6.18v8.67h-2.63v-8.37c0-2.34-.87-4.29-3.36-4.29a3.75,3.75,0,0,0-3.54,2.7,3.8,3.8,0,0,0-.18,1.23v8.73h-2.64Z"/><path class="cls-23" d="M398.05,202.09a1.64,1.64,0,0,1-3.27,0,1.61,1.61,0,0,1,1.65-1.65A1.57,1.57,0,0,1,398.05,202.09Zm-2.94,18.6V206.17h2.64v14.52Z"/><path class="cls-23" d="M420.61,206.17c-.06,1.05-.12,2.22-.12,4v8.43c0,3.33-.66,5.37-2.07,6.63a7.7,7.7,0,0,1-5.28,1.74,9.37,9.37,0,0,1-4.83-1.2l.66-2a8.19,8.19,0,0,0,4.26,1.14c2.7,0,4.68-1.41,4.68-5.07V218.2h-.06a5.18,5.18,0,0,1-4.62,2.43c-3.6,0-6.18-3.06-6.18-7.08,0-4.92,3.21-7.71,6.54-7.71a4.83,4.83,0,0,1,4.53,2.52h.06l.12-2.19Zm-2.73,5.73a3.76,3.76,0,0,0-.15-1.2,3.8,3.8,0,0,0-3.69-2.79c-2.52,0-4.32,2.13-4.32,5.49,0,2.85,1.44,5.22,4.29,5.22a3.86,3.86,0,0,0,3.66-2.7,4.59,4.59,0,0,0,.21-1.41Z"/><path class="cls-23" d="M432.91,220.69l-.21-1.83h-.09a5.41,5.41,0,0,1-4.44,2.16,4.14,4.14,0,0,1-4.44-4.17c0-3.51,3.12-5.43,8.73-5.4v-.3c0-1.2-.33-3.36-3.3-3.36a7.23,7.23,0,0,0-3.78,1.08l-.6-1.74a9,9,0,0,1,4.77-1.29c4.44,0,5.52,3,5.52,5.94v5.43a20.44,20.44,0,0,0,.24,3.48Zm-.39-7.41c-2.88-.06-6.15.45-6.15,3.27a2.34,2.34,0,0,0,2.49,2.52,3.61,3.61,0,0,0,3.51-2.43,2.76,2.76,0,0,0,.15-.84Z"/><path class="cls-23" d="M439.33,210.1c0-1.5,0-2.73-.12-3.93h2.31l.12,2.34h.09a5,5,0,0,1,4.56-2.67,4.29,4.29,0,0,1,4.11,2.91h.06a6,6,0,0,1,1.62-1.89,5,5,0,0,1,3.21-1c1.92,0,4.77,1.26,4.77,6.3v8.55h-2.58v-8.22c0-2.79-1-4.47-3.15-4.47a3.42,3.42,0,0,0-3.12,2.4,4.35,4.35,0,0,0-.21,1.32v9h-2.58V212c0-2.31-1-4-3-4a3.93,3.93,0,0,0-3.48,3.93v8.76h-2.58Z"/><path class="cls-23" d="M465.82,213.91c.06,3.57,2.34,5,5,5a9.55,9.55,0,0,0,4-.75l.45,1.89a11.76,11.76,0,0,1-4.83.9c-4.47,0-7.14-2.94-7.14-7.32s2.58-7.83,6.81-7.83c4.74,0,6,4.17,6,6.84a10,10,0,0,1-.09,1.23Zm7.74-1.89c0-1.68-.69-4.29-3.66-4.29-2.67,0-3.84,2.46-4,4.29Z"/><path class="cls-23" d="M477.31,224.38a43.16,43.16,0,0,0,1.8-7.17l2.94-.3a36.57,36.57,0,0,1-2.85,7.29Z"/><path class="cls-23" d="M491.21,210.91c0-1.86-.06-3.36-.12-4.74h2.37l.12,2.49h.06a5.71,5.71,0,0,1,5.16-2.82c3.51,0,6.15,3,6.15,7.38,0,5.22-3.18,7.8-6.6,7.8a5.09,5.09,0,0,1-4.47-2.28h-.06v7.89h-2.61Zm2.61,3.87a5.94,5.94,0,0,0,.12,1.08,4.07,4.07,0,0,0,4,3.09c2.79,0,4.41-2.28,4.41-5.61,0-2.91-1.53-5.4-4.32-5.4a4.21,4.21,0,0,0-4,3.27,4.28,4.28,0,0,0-.18,1.08Z"/><path class="cls-23" d="M508.28,199.39h2.64v9.06H511a4.9,4.9,0,0,1,1.89-1.86,5.43,5.43,0,0,1,2.7-.75c1.95,0,5.07,1.2,5.07,6.21v8.64H518v-8.34c0-2.34-.87-4.32-3.36-4.32a3.79,3.79,0,0,0-3.54,2.64,3.2,3.2,0,0,0-.18,1.26v8.76h-2.64Z"/><path class="cls-23" d="M533,220.69l-.21-1.83h-.09a5.42,5.42,0,0,1-4.44,2.16,4.14,4.14,0,0,1-4.44-4.17c0-3.51,3.12-5.43,8.73-5.4v-.3c0-1.2-.34-3.36-3.3-3.36a7.23,7.23,0,0,0-3.78,1.08l-.6-1.74a9,9,0,0,1,4.77-1.29c4.44,0,5.52,3,5.52,5.94v5.43a19.47,19.47,0,0,0,.24,3.48Zm-2.29-20.79,2.59,4.29h-2l-1.54-2.82h-.05l-1.53,2.82h-1.92l2.52-4.29Zm1.9,13.38c-2.88-.06-6.15.45-6.15,3.27a2.34,2.34,0,0,0,2.49,2.52,3.61,3.61,0,0,0,3.51-2.43,2.76,2.76,0,0,0,.15-.84Zm.72-15.84,1.92,4h-1.54l-2.78-4Z"/><path class="cls-23" d="M539.39,210.1c0-1.5,0-2.73-.12-3.93h2.34l.15,2.4h.06a5.34,5.34,0,0,1,4.8-2.73c2,0,5.13,1.2,5.13,6.18v8.67H549.1v-8.37c0-2.34-.86-4.29-3.35-4.29a3.75,3.75,0,0,0-3.54,2.7A3.8,3.8,0,0,0,542,212v8.73h-2.64Z"/><path class="cls-23" d="M571.91,218.44h-.06a5.17,5.17,0,0,1-4.74,2.58c-3.39,0-6.15-2.94-6.15-7.35,0-5.43,3.51-7.83,6.57-7.83a4.77,4.77,0,0,1,4.47,2.52h.06l.09-2.19h2.49c-.06,1.23-.09,2.49-.09,4v16.47h-2.64Zm0-6.39a4.5,4.5,0,0,0-.12-1.11,3.86,3.86,0,0,0-3.78-3c-2.73,0-4.38,2.31-4.38,5.58,0,2.88,1.38,5.4,4.29,5.4A3.93,3.93,0,0,0,571.7,216a4.43,4.43,0,0,0,.21-1.26Z"/><path class="cls-23" d="M591.05,216.73c0,1.5,0,2.82.12,4h-2.34l-.15-2.37h-.06a5.46,5.46,0,0,1-4.8,2.7c-2.28,0-5-1.26-5-6.36v-8.49h2.64v8c0,2.76.84,4.62,3.24,4.62a3.82,3.82,0,0,0,3.48-2.4,3.86,3.86,0,0,0,.24-1.35v-8.91h2.64Z"/><path class="cls-23" d="M603.47,220.69l-.21-1.83h-.09a5.41,5.41,0,0,1-4.44,2.16,4.14,4.14,0,0,1-4.44-4.17c0-3.51,3.12-5.43,8.73-5.4v-.3c0-1.2-.33-3.36-3.3-3.36a7.23,7.23,0,0,0-3.78,1.08l-.6-1.74a9,9,0,0,1,4.77-1.29c4.44,0,5.52,3,5.52,5.94v5.43a20.44,20.44,0,0,0,.24,3.48ZM599,199.9l2.61,4.29h-1.86l-3.66-4.29Zm4.08,13.38c-2.88-.06-6.15.45-6.15,3.27a2.34,2.34,0,0,0,2.49,2.52,3.61,3.61,0,0,0,3.51-2.43,2.76,2.76,0,0,0,.15-.84Z"/><path class="cls-23" d="M626.21,220.15a9.71,9.71,0,0,1-4.16.84c-4.38,0-7.24-3-7.24-7.41a7.38,7.38,0,0,1,7.8-7.71,8.75,8.75,0,0,1,3.66.75l-.59,2a6.17,6.17,0,0,0-3.07-.69c-3.33,0-5.13,2.46-5.13,5.49,0,3.36,2.16,5.43,5,5.43a7.55,7.55,0,0,0,3.25-.72Z"/><path class="cls-23" d="M629.3,199.39h2.64v9.06H632a4.9,4.9,0,0,1,1.89-1.86,5.43,5.43,0,0,1,2.7-.75c1.95,0,5.07,1.2,5.07,6.21v8.64H639v-8.34c0-2.34-.87-4.32-3.36-4.32a3.79,3.79,0,0,0-3.54,2.64,3.2,3.2,0,0,0-.18,1.26v8.76H629.3Z"/><path class="cls-23" d="M659.09,213.31c0,5.37-3.72,7.71-7.23,7.71-3.93,0-7-2.88-7-7.47,0-4.86,3.18-7.71,7.2-7.71S659.09,208.87,659.09,213.31Zm-11.52.15c0,3.18,1.83,5.58,4.41,5.58s4.41-2.37,4.41-5.64c0-2.46-1.23-5.58-4.35-5.58S647.57,210.7,647.57,213.46Z"/><path class="cls-23" d="M100.39,256.69c.06-1,.12-2.46.12-3.75V235.39h2.61v9.12h.06a5.41,5.41,0,0,1,4.95-2.67c3.6,0,6.15,3,6.12,7.41,0,5.19-3.27,7.77-6.51,7.77a5.17,5.17,0,0,1-4.86-2.73h-.09l-.12,2.4Zm2.73-5.82a4.94,4.94,0,0,0,.12,1,4.07,4.07,0,0,0,4,3.09c2.76,0,4.41-2.25,4.41-5.58,0-2.91-1.5-5.4-4.32-5.4a4.21,4.21,0,0,0-4,3.24,5.2,5.2,0,0,0-.15,1.08Z"/><path class="cls-23" d="M125.62,256.69l-.21-1.83h-.09a5.41,5.41,0,0,1-4.44,2.16,4.14,4.14,0,0,1-4.44-4.17c0-3.51,3.12-5.43,8.73-5.4v-.3c0-1.2-.33-3.36-3.3-3.36a7.23,7.23,0,0,0-3.78,1.08l-.6-1.74a9,9,0,0,1,4.77-1.29c4.44,0,5.52,3,5.52,5.94v5.43a20.44,20.44,0,0,0,.24,3.48Zm-.39-7.41c-2.88-.06-6.15.45-6.15,3.27a2.34,2.34,0,0,0,2.49,2.52,3.61,3.61,0,0,0,3.51-2.43,2.76,2.76,0,0,0,.15-.84Zm-1.14,11.34a1.5,1.5,0,0,1-1.5,1.56,1.55,1.55,0,0,1,0-3.09A1.49,1.49,0,0,1,124.09,260.62Z"/><path class="cls-23" d="M132,246.1c0-1.5,0-2.73-.12-3.93h2.34l.15,2.4h.06a5.34,5.34,0,0,1,4.8-2.73c2,0,5.13,1.2,5.13,6.18v8.67h-2.64v-8.37c0-2.34-.87-4.29-3.36-4.29a3.75,3.75,0,0,0-3.54,2.7,3.8,3.8,0,0,0-.18,1.23v8.73H132Z"/><path class="cls-23" d="M157,235.39h2.64v21.3H157Z"/><path class="cls-23" d="M172.07,256.69l-.21-1.83h-.09a5.41,5.41,0,0,1-4.44,2.16,4.14,4.14,0,0,1-4.44-4.17c0-3.51,3.12-5.43,8.73-5.4v-.3c0-1.2-.33-3.36-3.3-3.36a7.23,7.23,0,0,0-3.78,1.08l-.6-1.74a9,9,0,0,1,4.77-1.29c4.44,0,5.52,3,5.52,5.94v5.43a20.44,20.44,0,0,0,.24,3.48ZM167.6,235.9l2.61,4.29h-1.86l-3.66-4.29Zm4.08,13.38c-2.88-.06-6.15.45-6.15,3.27a2.34,2.34,0,0,0,2.49,2.52,3.61,3.61,0,0,0,3.51-2.43,2.76,2.76,0,0,0,.15-.84Z"/><path class="cls-23" d="M186.84,236.74a25.29,25.29,0,0,1,4.77-.42c2.61,0,4.29.45,5.55,1.47a4.24,4.24,0,0,1,1.68,3.57,4.8,4.8,0,0,1-3.42,4.44v.06a5.21,5.21,0,0,1,4.17,5.07,5.45,5.45,0,0,1-1.71,4c-1.41,1.29-3.69,1.89-7,1.89a30.51,30.51,0,0,1-4-.24Zm2.61,8.28h2.37c2.76,0,4.38-1.44,4.38-3.39,0-2.37-1.8-3.3-4.44-3.3a11.2,11.2,0,0,0-2.31.18Zm0,9.69a14,14,0,0,0,2.19.12c2.7,0,5.19-1,5.19-3.93,0-2.76-2.37-3.9-5.22-3.9h-2.16Z"/><path class="cls-23" d="M216.27,249.31c0,5.37-3.72,7.71-7.23,7.71-3.93,0-7-2.88-7-7.47,0-4.86,3.18-7.71,7.2-7.71S216.27,244.87,216.27,249.31Zm-11.52.15c0,3.18,1.83,5.58,4.41,5.58s4.41-2.37,4.41-5.64c0-2.46-1.23-5.58-4.35-5.58S204.75,246.7,204.75,249.46Zm5.31-13.56,2.85,4.29h-2l-1.74-2.85h-.06l-1.74,2.85h-2l2.82-4.29Zm.6,24.72a1.52,1.52,0,1,1-3,0,1.54,1.54,0,0,1,1.56-1.53A1.51,1.51,0,0,1,210.66,260.62Z"/><path class="cls-23" d="M238.21,256.15A9.72,9.72,0,0,1,234,257c-4.38,0-7.23-3-7.23-7.41a7.38,7.38,0,0,1,7.8-7.71,8.82,8.82,0,0,1,3.66.75l-.6,2a6.12,6.12,0,0,0-3.06-.69c-3.33,0-5.13,2.46-5.13,5.49,0,3.36,2.16,5.43,5,5.43a7.5,7.5,0,0,0,3.24-.72Z"/><path class="cls-23" d="M254.26,249.31c0,5.37-3.72,7.71-7.23,7.71-3.93,0-7-2.88-7-7.47,0-4.86,3.18-7.71,7.2-7.71S254.26,244.87,254.26,249.31Zm-11.52.15c0,3.18,1.83,5.58,4.41,5.58s4.41-2.37,4.41-5.64c0-2.46-1.23-5.58-4.35-5.58S242.74,246.7,242.74,249.46Zm5.31-13.56,2.88,4.29h-2l-1.74-2.85h-.06l-1.74,2.85H243.4l2.82-4.29Z"/><path class="cls-23" d="M257.59,246.1c0-1.5,0-2.73-.12-3.93h2.34l.15,2.4H260a5.34,5.34,0,0,1,4.8-2.73c2,0,5.13,1.2,5.13,6.18v8.67h-2.64v-8.37c0-2.34-.87-4.29-3.36-4.29a3.75,3.75,0,0,0-3.54,2.7,3.8,3.8,0,0,0-.18,1.23v8.73h-2.64Z"/><path class="cls-23" d="M286.75,242.17c-.06,1.05-.12,2.22-.12,4v8.43c0,3.33-.66,5.37-2.07,6.63a7.7,7.7,0,0,1-5.28,1.74,9.37,9.37,0,0,1-4.83-1.2l.66-2a8.19,8.19,0,0,0,4.26,1.14c2.7,0,4.68-1.41,4.68-5.07V254.2H284a5.18,5.18,0,0,1-4.62,2.43c-3.6,0-6.18-3.06-6.18-7.08,0-4.92,3.21-7.71,6.54-7.71a4.83,4.83,0,0,1,4.53,2.52h.06l.12-2.19ZM284,247.9a3.76,3.76,0,0,0-.15-1.2,3.8,3.8,0,0,0-3.69-2.79c-2.52,0-4.32,2.13-4.32,5.49,0,2.85,1.44,5.22,4.29,5.22a3.86,3.86,0,0,0,3.66-2.7,4.59,4.59,0,0,0,.21-1.41Z"/><path class="cls-23" d="M302.45,238v4.17h3.78v2h-3.78V252c0,1.8.51,2.82,2,2.82a5.87,5.87,0,0,0,1.53-.18l.12,2a6.46,6.46,0,0,1-2.34.36,3.66,3.66,0,0,1-2.85-1.11c-.75-.78-1-2.07-1-3.78v-7.92h-2.25v-2h2.25v-3.48Z"/><path class="cls-23" d="M309.2,235.39h2.64v9.06h.06a4.9,4.9,0,0,1,1.89-1.86,5.43,5.43,0,0,1,2.7-.75c1.95,0,5.07,1.2,5.07,6.21v8.64h-2.64v-8.34c0-2.34-.87-4.32-3.36-4.32a3.79,3.79,0,0,0-3.54,2.64,3.2,3.2,0,0,0-.18,1.26v8.76H309.2Z"/><path class="cls-23" d="M340.34,238.93a4.52,4.52,0,0,1,.54,2.16,2.47,2.47,0,0,1-2.55,2.52l-.33,0v9.09c0,1.5,0,2.82.12,4h-2.34l-.15-2.37h-.06a5.46,5.46,0,0,1-4.8,2.7c-2.28,0-5-1.26-5-6.36v-8.49h2.64v8c0,2.76.84,4.62,3.24,4.62a3.82,3.82,0,0,0,3.48-2.4,3.86,3.86,0,0,0,.24-1.35v-8.91h2.07c1.05,0,1.41-.42,1.41-1.17a3.75,3.75,0,0,0-.51-1.74Zm-3.84-3-3.66,4.29H331l2.64-4.29Z"/><path class="cls-23" d="M352.73,256.15a9.72,9.72,0,0,1-4.17.84c-4.38,0-7.23-3-7.23-7.41a7.38,7.38,0,0,1,7.8-7.71,8.82,8.82,0,0,1,3.66.75l-.6,2a6.12,6.12,0,0,0-3.06-.69c-3.33,0-5.13,2.46-5.13,5.49,0,3.36,2.16,5.43,5,5.43a7.5,7.5,0,0,0,3.24-.72Z"/><path class="cls-23" d="M364.08,246.1c0-1.5,0-2.73-.12-3.93h2.34l.15,2.4h.06a5.34,5.34,0,0,1,4.8-2.73c2,0,5.13,1.2,5.13,6.18v8.67H373.8v-8.37c0-2.34-.87-4.29-3.36-4.29a3.75,3.75,0,0,0-3.54,2.7,3.8,3.8,0,0,0-.18,1.23v8.73h-2.64Z"/><path class="cls-23" d="M388.77,256.69l-.21-1.83h-.09A5.41,5.41,0,0,1,384,257a4.14,4.14,0,0,1-4.44-4.17c0-3.51,3.12-5.43,8.73-5.4v-.3c0-1.2-.33-3.36-3.3-3.36a7.23,7.23,0,0,0-3.78,1.08l-.6-1.74a9,9,0,0,1,4.77-1.29c4.44,0,5.52,3,5.52,5.94v5.43a20.44,20.44,0,0,0,.24,3.48Zm-2.25-20.79,2.58,4.29h-2l-1.5-2.82h-.09L384,240.19h-1.92l2.52-4.29Zm1.86,13.38c-2.88-.06-6.15.45-6.15,3.27a2.34,2.34,0,0,0,2.49,2.52,3.61,3.61,0,0,0,3.51-2.43,2.76,2.76,0,0,0,.15-.84Zm4.41-15.84-3,4h-1.53l2.07-4Z"/><path class="cls-23" d="M407.34,252.73c0,1.5,0,2.82.12,4h-2.34l-.15-2.37h-.06a5.46,5.46,0,0,1-4.8,2.7c-2.28,0-5-1.26-5-6.36v-8.49h2.64v8c0,2.76.84,4.62,3.24,4.62a3.82,3.82,0,0,0,3.48-2.4,3.86,3.86,0,0,0,.24-1.35v-8.91h2.64Z"/><path class="cls-23" d="M428,256.69l-.21-1.83h-.09a5.41,5.41,0,0,1-4.44,2.16,4.14,4.14,0,0,1-4.44-4.17c0-3.51,3.12-5.43,8.73-5.4v-.3c0-1.2-.33-3.36-3.3-3.36a7.23,7.23,0,0,0-3.78,1.08l-.6-1.74a9,9,0,0,1,4.77-1.29c4.44,0,5.52,3,5.52,5.94v5.43a20.44,20.44,0,0,0,.24,3.48Zm-5.16-20.46A2.19,2.19,0,0,0,425,238.3a2.13,2.13,0,0,0,2.16-2.07h1.56a3.72,3.72,0,0,1-7.44,0Zm4.77,13.05c-2.88-.06-6.15.45-6.15,3.27a2.34,2.34,0,0,0,2.49,2.52,3.61,3.61,0,0,0,3.51-2.43,2.76,2.76,0,0,0,.15-.84Z"/><path class="cls-23" d="M434.44,246.1c0-1.5,0-2.73-.12-3.93h2.34l.15,2.4h.06a5.34,5.34,0,0,1,4.8-2.73c2,0,5.13,1.2,5.13,6.18v8.67h-2.64v-8.37c0-2.34-.87-4.29-3.36-4.29a3.75,3.75,0,0,0-3.54,2.7,3.8,3.8,0,0,0-.18,1.23v8.73h-2.64Z"/><path class="cls-23" d="M471.86,242.17c-.05,1.05-.12,2.22-.12,4v8.43c0,3.33-.65,5.37-2.06,6.63a7.72,7.72,0,0,1-5.29,1.74,9.36,9.36,0,0,1-4.82-1.2l.65-2a8.19,8.19,0,0,0,4.26,1.14c2.7,0,4.69-1.41,4.69-5.07V254.2h-.07a5.17,5.17,0,0,1-4.62,2.43c-3.59,0-6.17-3.06-6.17-7.08,0-4.92,3.21-7.71,6.54-7.71a4.85,4.85,0,0,1,4.53,2.52h.05l.13-2.19Zm-2.72,5.73a3.9,3.9,0,0,0-3.84-4c-2.53,0-4.33,2.13-4.33,5.49,0,2.85,1.45,5.22,4.3,5.22a3.87,3.87,0,0,0,3.66-2.7,4.92,4.92,0,0,0,.21-1.41Z"/><path class="cls-23" d="M489.26,249.31c0,5.37-3.72,7.71-7.23,7.71-3.93,0-7-2.88-7-7.47,0-4.86,3.19-7.71,7.2-7.71C486.44,241.84,489.26,244.87,489.26,249.31Zm-11.52.15c0,3.18,1.83,5.58,4.41,5.58s4.41-2.37,4.41-5.64c0-2.46-1.23-5.58-4.35-5.58S477.74,246.7,477.74,249.46Zm5.53-13.56,2.57,4.29h-2l-1.5-2.82h-.09l-1.5,2.82h-1.95l2.56-4.29Zm2.6-2.46,1.92,4h-1.53l-2.79-4Z"/><path class="cls-23" d="M492.59,246.1c0-1.5,0-2.73-.12-3.93h2.31l.12,2.34H495a5,5,0,0,1,4.56-2.67,4.29,4.29,0,0,1,4.11,2.91h.06a6,6,0,0,1,1.62-1.89,5,5,0,0,1,3.21-1c1.92,0,4.77,1.26,4.77,6.3v8.55h-2.58v-8.22c0-2.79-1-4.47-3.15-4.47a3.42,3.42,0,0,0-3.12,2.4,4.35,4.35,0,0,0-.21,1.32v9h-2.58V248c0-2.31-1-4-3-4a3.93,3.93,0,0,0-3.48,3.93v8.76h-2.58Z"/><path class="cls-23" d="M525.66,253.66a8.82,8.82,0,0,0,4.32,1.23c3.39,0,4.44-2.16,4.41-3.78,0-2.73-2.49-3.9-5-3.9h-1.47v-2h1.47c1.92,0,4.35-1,4.35-3.3,0-1.56-1-2.94-3.42-2.94a7.16,7.16,0,0,0-3.9,1.29l-.69-1.92a9.27,9.27,0,0,1,5.1-1.5c3.84,0,5.58,2.28,5.58,4.65,0,2-1.2,3.72-3.6,4.59v.06a5.08,5.08,0,0,1,4.35,5c0,3.12-2.43,5.85-7.11,5.85a9.91,9.91,0,0,1-5.07-1.32Z"/><path class="cls-23" d="M553.38,246.73c0,6.63-2.46,10.29-6.78,10.29-3.81,0-6.39-3.57-6.45-10s2.82-10.14,6.78-10.14C551,236.86,553.38,240.52,553.38,246.73Zm-10.59.3c0,5.07,1.56,7.95,4,7.95,2.7,0,4-3.15,4-8.13,0-4.8-1.23-7.95-4-7.95C544.47,238.9,542.79,241.72,542.79,247Z"/><path class="cls-23" d="M564.91,246.1c0-1.5,0-2.73-.12-3.93h2.31l.12,2.34h.09a5,5,0,0,1,4.56-2.67,4.29,4.29,0,0,1,4.11,2.91H576a6,6,0,0,1,1.62-1.89,5,5,0,0,1,3.21-1c1.92,0,4.77,1.26,4.77,6.3v8.55h-2.58v-8.22c0-2.79-1-4.47-3.15-4.47a3.42,3.42,0,0,0-3.12,2.4,4.35,4.35,0,0,0-.21,1.32v9H574V248c0-2.31-1-4-3-4a3.93,3.93,0,0,0-3.48,3.93v8.76h-2.58Z"/><path class="cls-23" d="M603.07,249.31c0,5.37-3.72,7.71-7.23,7.71-3.93,0-7-2.88-7-7.47,0-4.86,3.18-7.71,7.2-7.71S603.07,244.87,603.07,249.31Zm-11.52.15c0,3.18,1.83,5.58,4.41,5.58s4.41-2.37,4.41-5.64c0-2.46-1.23-5.58-4.35-5.58S591.55,246.7,591.55,249.46Zm8.37-13.56-3.66,4.29h-1.89L597,235.9Z"/><path class="cls-23" d="M606.4,246.1c0-1.5,0-2.73-.12-3.93h2.34l.15,2.4h.06a5.34,5.34,0,0,1,4.8-2.73c2,0,5.13,1.2,5.13,6.18v8.67h-2.64v-8.37c0-2.34-.87-4.29-3.36-4.29a3.75,3.75,0,0,0-3.54,2.7A3.8,3.8,0,0,0,609,248v8.73H606.4Z"/><path class="cls-23" d="M639.35,256.69l-.21-1.83h-.09a5.41,5.41,0,0,1-4.44,2.16,4.14,4.14,0,0,1-4.44-4.17c0-3.51,3.12-5.43,8.73-5.4v-.3c0-1.2-.33-3.36-3.3-3.36a7.23,7.23,0,0,0-3.78,1.08l-.6-1.74a9,9,0,0,1,4.77-1.29c4.44,0,5.52,3,5.52,5.94v5.43a20.44,20.44,0,0,0,.24,3.48Zm-5.16-20.46a2.19,2.19,0,0,0,2.16,2.07,2.13,2.13,0,0,0,2.16-2.07h1.56a3.72,3.72,0,0,1-7.44,0ZM639,249.28c-2.88-.06-6.15.45-6.15,3.27a2.34,2.34,0,0,0,2.49,2.52,3.61,3.61,0,0,0,3.51-2.43,2.76,2.76,0,0,0,.15-.84Z"/><path class="cls-23" d="M645.77,246.1c0-1.5,0-2.73-.12-3.93H648l.15,2.4h.06a5.34,5.34,0,0,1,4.8-2.73c2,0,5.13,1.2,5.13,6.18v8.67h-2.64v-8.37c0-2.34-.87-4.29-3.36-4.29a3.75,3.75,0,0,0-3.54,2.7,3.8,3.8,0,0,0-.18,1.23v8.73h-2.64Z"/><path class="cls-23" d="M113,278.17c-.06,1.05-.12,2.22-.12,4v8.43c0,3.33-.66,5.37-2.07,6.63a7.7,7.7,0,0,1-5.28,1.74,9.37,9.37,0,0,1-4.83-1.2l.66-2a8.19,8.19,0,0,0,4.26,1.14c2.7,0,4.68-1.41,4.68-5.07V290.2h-.06a5.18,5.18,0,0,1-4.62,2.43c-3.6,0-6.18-3.06-6.18-7.08,0-4.92,3.21-7.71,6.54-7.71a4.83,4.83,0,0,1,4.53,2.52h.06l.12-2.19Zm-2.73,5.73a3.76,3.76,0,0,0-.15-1.2,3.8,3.8,0,0,0-3.69-2.79c-2.52,0-4.32,2.13-4.32,5.49,0,2.85,1.44,5.22,4.29,5.22a3.86,3.86,0,0,0,3.66-2.7,4.59,4.59,0,0,0,.21-1.41Z"/><path class="cls-23" d="M120,274.09a1.64,1.64,0,0,1-3.27,0,1.61,1.61,0,0,1,1.65-1.65A1.57,1.57,0,0,1,120,274.09Zm-2.94,18.6V278.17h2.64v14.52Z"/><path class="cls-23" d="M132.16,292.69l-.21-1.83h-.09a5.41,5.41,0,0,1-4.44,2.16,4.14,4.14,0,0,1-4.44-4.17c0-3.51,3.12-5.43,8.73-5.4v-.3c0-1.2-.33-3.36-3.3-3.36a7.23,7.23,0,0,0-3.78,1.08l-.6-1.74a9,9,0,0,1,4.77-1.29c4.44,0,5.52,3,5.52,5.94v5.43a20.44,20.44,0,0,0,.24,3.48Zm-.39-7.41c-2.88-.06-6.15.45-6.15,3.27a2.34,2.34,0,0,0,2.49,2.52,3.61,3.61,0,0,0,3.51-2.43,2.76,2.76,0,0,0,.15-.84Z"/><path class="cls-23" d="M157.48,276.13v12.81c0,1.29,0,2.76.12,3.75h-2.37l-.12-2.52h-.06a5.37,5.37,0,0,1-5,2.85c-3.51,0-6.21-3-6.21-7.38,0-4.83,3-7.8,6.51-7.8a4.85,4.85,0,0,1,4.38,2.22h.06v-3.93h-5.91v-1.65h5.91v-3.09h2.64v3.09h2.31v1.65Zm-2.64,7.95a4.66,4.66,0,0,0-.12-1.11,3.88,3.88,0,0,0-3.81-3.06c-2.73,0-4.35,2.4-4.35,5.61,0,2.94,1.44,5.37,4.29,5.37a4,4,0,0,0,3.87-3.15,4.59,4.59,0,0,0,.12-1.14Z"/><path class="cls-23" d="M161.74,271.9l2.64,4.29h-1.86l-3.66-4.29Zm.12,20.79V278.17h2.64v14.52Z"/><path class="cls-23" d="M168.88,282.1c0-1.5,0-2.73-.12-3.93h2.34l.15,2.4h.06a5.34,5.34,0,0,1,4.8-2.73c2,0,5.13,1.2,5.13,6.18v8.67H178.6v-8.37c0-2.34-.87-4.29-3.36-4.29a3.75,3.75,0,0,0-3.54,2.7,3.8,3.8,0,0,0-.18,1.23v8.73h-2.64Z"/><path class="cls-23" d="M185.53,271.39h2.64v9.06h.06a4.9,4.9,0,0,1,1.89-1.86,5.43,5.43,0,0,1,2.7-.75c2,0,5.07,1.2,5.07,6.21v8.64h-2.64v-8.34c0-2.34-.87-4.32-3.36-4.32a3.79,3.79,0,0,0-3.54,2.64,3.2,3.2,0,0,0-.18,1.26v8.76h-2.64Z"/><path class="cls-23" d="M201.55,291.13a1.77,1.77,0,0,1,1.8-1.89,1.89,1.89,0,1,1-1.8,1.89Z"/><path class="cls-23" d="M217.45,272.47v8.46h9.78v-8.46h2.64v20.22h-2.64v-9.48h-9.78v9.48h-2.61V272.47Z"/><path class="cls-23" d="M242.35,292.69l-.21-1.83h-.09a5.41,5.41,0,0,1-4.44,2.16,4.14,4.14,0,0,1-4.44-4.17c0-3.51,3.12-5.43,8.73-5.4v-.3c0-1.2-.33-3.36-3.3-3.36a7.23,7.23,0,0,0-3.78,1.08l-.6-1.74a9,9,0,0,1,4.77-1.29c4.44,0,5.52,3,5.52,5.94v5.43a20.44,20.44,0,0,0,.24,3.48Zm-6.78-17c-.06-1.95.75-3.12,2-3.12a3.69,3.69,0,0,1,1.86.66,3,3,0,0,0,1.26.51c.48,0,.75-.27.84-1.29H243c.06,2-.63,3-2,3a4,4,0,0,1-1.83-.6,2.67,2.67,0,0,0-1.29-.54c-.48,0-.72.51-.78,1.35Zm6.39,9.6c-2.88-.06-6.15.45-6.15,3.27a2.34,2.34,0,0,0,2.49,2.52,3.61,3.61,0,0,0,3.51-2.43,2.76,2.76,0,0,0,.15-.84Z"/><path class="cls-23" d="M249.49,278.17l3.18,8.58c.33,1,.69,2.1.93,3h.06c.27-.87.57-2,.93-3l2.88-8.52h2.79l-4,10.35c-1.89,5-3.18,7.53-5,9.09a7.15,7.15,0,0,1-3.24,1.71l-.66-2.22a7,7,0,0,0,2.31-1.29,8,8,0,0,0,2.22-2.94,1.9,1.9,0,0,0,.21-.63,2.3,2.3,0,0,0-.18-.69l-5.37-13.38Z"/><path class="cls-23" d="M281.56,276.13v12.81c0,1.29,0,2.76.12,3.75h-2.37l-.12-2.52h-.06a5.37,5.37,0,0,1-4.95,2.85c-3.51,0-6.21-3-6.21-7.38,0-4.83,3-7.8,6.51-7.8a4.85,4.85,0,0,1,4.38,2.22h.06v-3.93H273v-1.65h5.91v-3.09h2.64v3.09h2.31v1.65Zm-2.64,7.95a4.66,4.66,0,0,0-.12-1.11,3.88,3.88,0,0,0-3.81-3.06c-2.73,0-4.35,2.4-4.35,5.61,0,2.94,1.44,5.37,4.29,5.37a4,4,0,0,0,3.87-3.15,4.59,4.59,0,0,0,.12-1.14Z"/><path class="cls-23" d="M287.41,285.91c.06,3.57,2.34,5,5,5a9.55,9.55,0,0,0,4-.75l.45,1.89a11.76,11.76,0,0,1-4.83.9c-4.47,0-7.14-2.94-7.14-7.32s2.58-7.83,6.81-7.83c4.74,0,6,4.17,6,6.84a10,10,0,0,1-.09,1.23Zm7.74-1.89c0-1.68-.69-4.29-3.66-4.29-2.67,0-3.84,2.46-4.05,4.29Zm-2.7-12.12,2.58,4.29h-2l-1.53-2.82h-.06l-1.53,2.82H288l2.52-4.29Zm2.16,1.41c.48-1.26,1.53-1.53,1.53-2.46a1,1,0,0,0-1-1c-.6,0-1.08.57-1.41,1.08l-1-.6a3.18,3.18,0,0,1,2.88-1.92,2.24,2.24,0,0,1,2.37,2.13c0,1.47-1.26,1.74-2,3.09Z"/><path class="cls-23" d="M307.33,271.39H310v21.3h-2.64Z"/><path class="cls-23" d="M322.45,292.69l-.21-1.83h-.09a5.41,5.41,0,0,1-4.44,2.16,4.14,4.14,0,0,1-4.44-4.17c0-3.51,3.12-5.43,8.73-5.4v-.3c0-1.2-.33-3.36-3.3-3.36a7.23,7.23,0,0,0-3.78,1.08l-.6-1.74a9,9,0,0,1,4.77-1.29c4.44,0,5.52,3,5.52,5.94v5.43a20.44,20.44,0,0,0,.24,3.48Zm-.39-7.41c-2.88-.06-6.15.45-6.15,3.27a2.34,2.34,0,0,0,2.49,2.52,3.61,3.61,0,0,0,3.51-2.43,2.76,2.76,0,0,0,.15-.84Zm-1.14,11.34a1.5,1.5,0,0,1-1.5,1.56,1.55,1.55,0,0,1,0-3.09A1.49,1.49,0,0,1,320.92,296.62Z"/><path class="cls-23" d="M331.81,274.09a1.64,1.64,0,0,1-3.27,0,1.61,1.61,0,0,1,1.65-1.65A1.57,1.57,0,0,1,331.81,274.09Zm-2.94,18.6V278.17h2.64v14.52Z"/><path class="cls-23" d="M343.72,285.91c.06,3.57,2.34,5,5,5a9.55,9.55,0,0,0,4-.75l.45,1.89a11.76,11.76,0,0,1-4.83.9c-4.47,0-7.14-2.94-7.14-7.32s2.58-7.83,6.81-7.83c4.74,0,6,4.17,6,6.84a10,10,0,0,1-.09,1.23Zm7.74-1.89c0-1.68-.69-4.29-3.66-4.29-2.67,0-3.84,2.46-4.05,4.29Z"/><path class="cls-23" d="M357.28,282.1c0-1.5,0-2.73-.12-3.93h2.31l.12,2.34h.09a5,5,0,0,1,4.56-2.67,4.29,4.29,0,0,1,4.11,2.91h.06a6,6,0,0,1,1.62-1.89,5,5,0,0,1,3.21-1c1.92,0,4.77,1.26,4.77,6.3v8.55h-2.58v-8.22c0-2.79-1-4.47-3.15-4.47a3.42,3.42,0,0,0-3.12,2.4,4.35,4.35,0,0,0-.21,1.32v9h-2.58V284c0-2.31-1-4-3-4a3.93,3.93,0,0,0-3.48,3.93v8.76h-2.58Z"/><path class="cls-23" d="M390.34,292.69l-.21-1.83H390A5.41,5.41,0,0,1,385.6,293a4.14,4.14,0,0,1-4.44-4.17c0-3.51,3.12-5.43,8.73-5.4v-.3c0-1.2-.33-3.36-3.3-3.36a7.23,7.23,0,0,0-3.78,1.08l-.6-1.74a9,9,0,0,1,4.77-1.29c4.44,0,5.52,3,5.52,5.94v5.43a20.44,20.44,0,0,0,.24,3.48Zm-.39-7.41c-2.88-.06-6.15.45-6.15,3.27a2.34,2.34,0,0,0,2.49,2.52,3.61,3.61,0,0,0,3.51-2.43,2.76,2.76,0,0,0,.15-.84Z"/><path class="cls-23" d="M399.7,274.09a1.64,1.64,0,0,1-3.27,0,1.61,1.61,0,0,1,1.65-1.65A1.57,1.57,0,0,1,399.7,274.09Zm-2.94,18.6V278.17h2.64v14.52Z"/><path class="cls-23" d="M403.78,271.39h2.64v21.3h-2.64Z"/><path class="cls-23" d="M429.76,276.13v12.81c0,1.29,0,2.76.12,3.75h-2.37l-.12-2.52h-.06a5.37,5.37,0,0,1-4.95,2.85c-3.51,0-6.21-3-6.21-7.38,0-4.83,3-7.8,6.51-7.8a4.85,4.85,0,0,1,4.38,2.22h.06v-3.93h-5.91v-1.65h5.91v-3.09h2.64v3.09h2.31v1.65Zm-2.64,7.95A4.66,4.66,0,0,0,427,283a3.88,3.88,0,0,0-3.81-3.06c-2.73,0-4.35,2.4-4.35,5.61,0,2.94,1.44,5.37,4.29,5.37a4,4,0,0,0,3.87-3.15,4.59,4.59,0,0,0,.12-1.14Z"/><path class="cls-23" d="M435.61,285.91c.06,3.57,2.34,5,5,5a9.55,9.55,0,0,0,4-.75l.45,1.89a11.76,11.76,0,0,1-4.83.9c-4.47,0-7.14-2.94-7.14-7.32s2.58-7.83,6.81-7.83c4.74,0,6,4.17,6,6.84a10,10,0,0,1-.09,1.23Zm7.74-1.89c0-1.68-.69-4.29-3.66-4.29-2.67,0-3.84,2.46-4.05,4.29Zm-2.7-12.12,2.58,4.29h-2l-1.53-2.82h-.06l-1.53,2.82h-1.92l2.52-4.29Zm2.16,1.41c.48-1.26,1.53-1.53,1.53-2.46a1,1,0,0,0-1-1c-.6,0-1.08.57-1.41,1.08l-1-.6a3.18,3.18,0,0,1,2.88-1.92,2.24,2.24,0,0,1,2.37,2.13c0,1.47-1.26,1.74-2,3.09Z"/><path class="cls-23" d="M455.53,282.1c0-1.5,0-2.73-.12-3.93h2.34l.15,2.4H458a5.34,5.34,0,0,1,4.8-2.73c2,0,5.13,1.2,5.13,6.18v8.67h-2.64v-8.37c0-2.34-.87-4.29-3.36-4.29a3.75,3.75,0,0,0-3.54,2.7,3.8,3.8,0,0,0-.18,1.23v8.73h-2.64Z"/><path class="cls-23" d="M472.18,271.39h2.64v9.06h.06a4.9,4.9,0,0,1,1.89-1.86,5.43,5.43,0,0,1,2.7-.75c1.95,0,5.07,1.2,5.07,6.21v8.64H481.9v-8.34c0-2.34-.87-4.32-3.36-4.32a3.79,3.79,0,0,0-3.54,2.64,3.2,3.2,0,0,0-.18,1.26v8.76h-2.64Z"/><path class="cls-23" d="M496.87,292.69l-.21-1.83h-.09a5.41,5.41,0,0,1-4.44,2.16,4.14,4.14,0,0,1-4.44-4.17c0-3.51,3.12-5.43,8.73-5.4v-.3c0-1.2-.33-3.36-3.3-3.36a7.23,7.23,0,0,0-3.78,1.08l-.6-1.74a9,9,0,0,1,4.77-1.29c4.44,0,5.52,3,5.52,5.94v5.43a20.44,20.44,0,0,0,.24,3.48Zm-2.1-20.79,2.85,4.29h-2l-1.74-2.85h-.06l-1.74,2.85h-1.95l2.82-4.29Zm1.71,13.38c-2.88-.06-6.15.45-6.15,3.27a2.34,2.34,0,0,0,2.49,2.52,3.61,3.61,0,0,0,3.51-2.43,2.76,2.76,0,0,0,.15-.84Zm-1.14,11.34a1.5,1.5,0,0,1-1.5,1.56,1.55,1.55,0,0,1,0-3.09A1.49,1.49,0,0,1,495.34,296.62Z"/><path class="cls-23" d="M503.29,282.1c0-1.5,0-2.73-.12-3.93h2.34l.15,2.4h.06a5.34,5.34,0,0,1,4.8-2.73c2,0,5.13,1.2,5.13,6.18v8.67H513v-8.37c0-2.34-.87-4.29-3.36-4.29a3.75,3.75,0,0,0-3.54,2.7,3.8,3.8,0,0,0-.18,1.23v8.73h-2.64Z"/><path class="cls-23" d="M536.2,290.44h-.06A5.17,5.17,0,0,1,531.4,293c-3.39,0-6.15-2.94-6.15-7.35,0-5.43,3.51-7.83,6.57-7.83a4.77,4.77,0,0,1,4.47,2.52h.06l.09-2.19h2.49c-.06,1.23-.09,2.49-.09,4v16.47H536.2Zm0-6.39a4.5,4.5,0,0,0-.12-1.11,3.86,3.86,0,0,0-3.78-3c-2.73,0-4.38,2.31-4.38,5.58,0,2.88,1.38,5.4,4.29,5.4A3.93,3.93,0,0,0,536,288a4.43,4.43,0,0,0,.21-1.26Z"/><path class="cls-23" d="M555.34,288.73c0,1.5,0,2.82.12,4h-2.34l-.15-2.37h-.06a5.46,5.46,0,0,1-4.8,2.7c-2.28,0-5-1.26-5-6.36v-8.49h2.64v8c0,2.76.84,4.62,3.24,4.62a3.82,3.82,0,0,0,3.48-2.4,3.86,3.86,0,0,0,.24-1.35v-8.91h2.64Z"/><path class="cls-23" d="M567.76,292.69l-.21-1.83h-.09A5.41,5.41,0,0,1,563,293a4.14,4.14,0,0,1-4.44-4.17c0-3.51,3.12-5.43,8.73-5.4v-.3c0-1.2-.33-3.36-3.3-3.36a7.23,7.23,0,0,0-3.78,1.08l-.6-1.74a9,9,0,0,1,4.77-1.29c4.44,0,5.52,3,5.52,5.94v5.43a20.44,20.44,0,0,0,.24,3.48Zm-4.47-20.79,2.61,4.29H564l-3.66-4.29Zm4.08,13.38c-2.88-.06-6.15.45-6.15,3.27a2.34,2.34,0,0,0,2.49,2.52,3.61,3.61,0,0,0,3.51-2.43,2.76,2.76,0,0,0,.15-.84Z"/><path class="cls-23" d="M573.67,291.16a1.76,1.76,0,0,1,1.77-1.86,1.86,1.86,0,0,1,0,3.72A1.76,1.76,0,0,1,573.67,291.16Zm.75-4.29-.42-14.4h2.88l-.42,14.4Z"/><g id="green_button" class="cls-24"><rect id="shadow" class="cls-25" x="158.36" y="342.99" width="426.81" height="72.07" rx="33.28"/><g id="button"><rect class="cls-26" x="158.36" y="340.02" width="426.81" height="72.07" rx="33.28"/><rect class="cls-27" x="158.36" y="336.33" width="426.81" height="72.07" rx="33.28"/><path class="cls-28" d="M503.12,336.33H240.4c-45.31,0-82,16.13-82,36h0c0,4.52,1.91,8.85,5.38,12.84C175.53,371.65,205.39,362,240.4,362H503.12c35,0,64.88,9.63,76.66,23.19,3.47-4,5.39-8.32,5.39-12.84h0C585.17,352.46,548.43,336.33,503.12,336.33Z"/><path class="cls-28" d="M240.4,362H503.12c31.32,0,58.51,7.71,72.33,19-13.83-12.89-41-21.66-72.33-21.66H240.4c-31.3,0-58.5,8.77-72.33,21.66C181.89,369.73,209.08,362,240.4,362Z"/><path class="cls-29" d="M503.12,340c40.61,0,73.65,14.51,73.65,32.35s-33,32.35-73.65,32.35H240.4c-40.61,0-73.65-14.52-73.65-32.35S199.79,340,240.4,340H503.12m0-3.69H240.4c-45.31,0-82,16.13-82,36h0c0,19.9,36.73,36,82,36H503.12c45.31,0,82-16.13,82-36h0c0-19.91-36.74-36-82-36Z"/><g class="cls-30"><rect class="cls-31" x="275.65" y="336.33" width="192.22" height="3.69"/></g><g class="cls-32"><rect class="cls-33" x="245.72" y="404.72" width="252.09" height="3.69"/></g><ellipse class="cls-34" cx="219.78" cy="345.56" rx="11.9" ry="2.21" transform="translate(-37.59 27.01) rotate(-6.48)"/><ellipse class="cls-34" cx="201.49" cy="349.32" rx="4.81" ry="2.11"/><ellipse class="cls-34" cx="522.76" cy="345.56" rx="4.81" ry="2.11"/><path class="cls-34" d="M539.62,347.67c0,.81-1.5,1.47-3.35,1.47s-3.35-.66-3.35-1.47,1.5-1.47,3.35-1.47S539.62,346.86,539.62,347.67Z"/></g></g><text class="cls-35" transform="translate(180.49 385.21)">Email:</text><path class="cls-23" d="M195.65,376H187.6v5.2h9v4.06h-14V363.32h13.51v4.06H187.6v4.55h8.05Z"/><path class="cls-23" d="M199.81,374.39c0-2-.06-3.67-.13-5.06h4.16l.23,2.14h.09A5.52,5.52,0,0,1,209,369a4.49,4.49,0,0,1,4.35,2.7h.07a6.87,6.87,0,0,1,2.05-1.92,5.71,5.71,0,0,1,3-.78c3,0,5.36,2.14,5.36,6.89v9.35H219v-8.64c0-2.31-.75-3.64-2.34-3.64a2.41,2.41,0,0,0-2.27,1.72,4.16,4.16,0,0,0-.2,1.27v9.29h-4.81v-8.9c0-2-.71-3.38-2.27-3.38a2.5,2.5,0,0,0-2.3,1.79,3.12,3.12,0,0,0-.2,1.23v9.26h-4.81Z"/><path class="cls-23" d="M236.78,385.21l-.3-1.59h-.09a5.72,5.72,0,0,1-4.55,1.95,4.86,4.86,0,0,1-5.13-4.87c0-4.13,3.7-6.11,9.32-6.08v-.23c0-.84-.46-2-2.89-2a8.93,8.93,0,0,0-4.39,1.2l-.91-3.18A13.1,13.1,0,0,1,234,369c5.29,0,7,3.12,7,6.85v5.52a23.73,23.73,0,0,0,.23,3.87Zm-.59-7.5c-2.6,0-4.61.58-4.61,2.5a1.77,1.77,0,0,0,1.95,1.88,2.69,2.69,0,0,0,2.56-1.82,3.28,3.28,0,0,0,.1-.84Z"/><path class="cls-23" d="M250,364.91a2.48,2.48,0,0,1-2.67,2.47,2.49,2.49,0,1,1,0-5A2.48,2.48,0,0,1,250,364.91Zm-5.1,20.3V369.33h4.93v15.88Z"/><path class="cls-23" d="M253.8,362.15h4.93v23.06H253.8Z"/><path class="cls-23" d="M262.37,372.12a2.91,2.91,0,1,1,2.89,3A2.83,2.83,0,0,1,262.37,372.12Zm0,10.49a2.91,2.91,0,1,1,2.89,3A2.85,2.85,0,0,1,262.37,382.61Z"/><path class="cls-23" d="M285.43,387.65v1.62H269.19v-1.62Z"/><path class="cls-23" d="M301.67,387.65v1.62H285.43v-1.62Z"/><path class="cls-23" d="M317.92,387.65v1.62H301.68v-1.62Z"/><path class="cls-23" d="M334.16,387.65v1.62H317.92v-1.62Z"/><path class="cls-23" d="M350.4,387.65v1.62H334.16v-1.62Z"/><path class="cls-23" d="M366.64,387.65v1.62H350.4v-1.62Z"/><path class="cls-23" d="M382.88,387.65v1.62H366.64v-1.62Z"/><path class="cls-23" d="M399.12,387.65v1.62H382.88v-1.62Z"/><path class="cls-23" d="M415.36,387.65v1.62H399.12v-1.62Z"/><path class="cls-23" d="M431.6,387.65v1.62H415.36v-1.62Z"/><path class="cls-23" d="M447.84,387.65v1.62H431.6v-1.62Z"/><path class="cls-23" d="M464.08,387.65v1.62H447.84v-1.62Z"/><path class="cls-23" d="M480.33,387.65v1.62H464.09v-1.62Z"/><path class="cls-23" d="M496.57,387.65v1.62H480.33v-1.62Z"/><path class="cls-23" d="M512.81,387.65v1.62H496.57v-1.62Z"/><path class="cls-23" d="M529.05,387.65v1.62H512.81v-1.62Z"/><path class="cls-23" d="M545.29,387.65v1.62H529.05v-1.62Z"/><path class="cls-23" d="M561.53,387.65v1.62H545.29v-1.62Z"/></g></g></g></svg>