<svg xmlns="http://www.w3.org/2000/svg" xmlns:xlink="http://www.w3.org/1999/xlink" viewBox="0 0 742.1 543.45"><defs><style>.cls-1{mask:url(#mask);filter:url(#luminosity-noclip-5);}.cls-2,.cls-4,.cls-6,.cls-8{mix-blend-mode:multiply;}.cls-2{fill:url(#linear-gradient);}.cls-3{mask:url(#mask-2);filter:url(#luminosity-noclip-6);}.cls-4{fill:url(#linear-gradient-2);}.cls-5{mask:url(#mask-3);filter:url(#luminosity-noclip-7);}.cls-6{fill:url(#linear-gradient-3);}.cls-7{mask:url(#mask-4);filter:url(#luminosity-noclip-8);}.cls-8{fill:url(#linear-gradient-4);}.cls-9{isolation:isolate;}.cls-10{fill:#b8725c;}.cls-11,.cls-12{opacity:0.51;mix-blend-mode:screen;}.cls-11{fill:url(#Degradado_sin_nombre_28);}.cls-12{fill:url(#Degradado_sin_nombre_28-2);}.cls-13{fill:#9e5f4d;}.cls-14{fill:#fce385;}.cls-15,.cls-23{opacity:0.64;}.cls-15{fill:url(#linear-gradient-5);}.cls-16{fill:#ec2227;}.cls-17{opacity:0.31;}.cls-18{fill:url(#Degradado_sin_nombre_9);}.cls-19{fill:url(#Degradado_sin_nombre_9-2);}.cls-20{fill:url(#Degradado_sin_nombre_9-3);}.cls-21,.cls-25,.cls-41,.cls-46,.cls-52{fill:#fff;}.cls-21{opacity:0.14;}.cls-22{font-size:54.87px;fill:#f7f5f6;}.cls-22,.cls-27,.cls-28,.cls-41{stroke:#fff;}.cls-22,.cls-25,.cls-41{stroke-linecap:round;stroke-linejoin:round;}.cls-22,.cls-29{stroke-width:7px;}.cls-22,.cls-25{font-family:iCielSoupofJustice, iCiel Soup of Justice;}.cls-24{fill:#7a481d;}.cls-25{font-size:52.1px;stroke:#f9f9fa;stroke-width:8px;}.cls-26{fill:#ef4250;}.cls-27,.cls-29{fill:none;}.cls-27,.cls-28,.cls-29,.cls-30{stroke-miterlimit:10;}.cls-27,.cls-28{stroke-width:14px;}.cls-28,.cls-30{font-size:40.82px;fill:#f05455;font-family:Roboto-Regular, Roboto Regular;}.cls-29,.cls-30{stroke:#f05455;}.cls-30{stroke-width:3px;}.cls-31{fill:#231f20;}.cls-32{opacity:0.72;}.cls-33{fill:#010101;opacity:0.3;}.cls-34{fill:url(#linear-gradient-6);}.cls-35{fill:url(#linear-gradient-7);}.cls-36{fill:url(#linear-gradient-8);}.cls-37{mask:url(#mask-5);}.cls-38{fill:url(#linear-gradient-9);}.cls-39{mask:url(#mask-6);}.cls-40{fill:url(#linear-gradient-10);}.cls-41{font-size:30px;stroke-width:4px;font-family:MyriadPro-Bold, Myriad Pro;font-weight:700;}.cls-42{letter-spacing:0.01em;}.cls-43{opacity:0.62;}.cls-44{fill:url(#linear-gradient-11);}.cls-45{fill:url(#linear-gradient-12);}.cls-46{opacity:0.1;}.cls-47{fill:url(#linear-gradient-13);}.cls-48{mask:url(#mask-7);}.cls-49{fill:url(#linear-gradient-14);}.cls-50{mask:url(#mask-8);}.cls-51{fill:url(#linear-gradient-15);}.cls-52{opacity:0.5;}.cls-53{letter-spacing:-0.03em;}.cls-54{letter-spacing:0em;}.cls-55{filter:url(#luminosity-noclip-4);}.cls-56{filter:url(#luminosity-noclip-3);}.cls-57{filter:url(#luminosity-noclip-2);}.cls-58{filter:url(#luminosity-noclip);}</style><filter id="luminosity-noclip" x="173.74" y="-7377.56" width="116.05" height="32766" filterUnits="userSpaceOnUse" color-interpolation-filters="sRGB"><feFlood flood-color="#fff" result="bg"/><feBlend in="SourceGraphic" in2="bg"/></filter><mask id="mask" x="173.74" y="-7377.56" width="116.05" height="32766" maskUnits="userSpaceOnUse"><g class="cls-58"/></mask><linearGradient id="linear-gradient" x1="173.74" y1="388.91" x2="289.8" y2="388.91" gradientUnits="userSpaceOnUse"><stop offset="0"/><stop offset="0.5" stop-color="#fff"/><stop offset="0.83" stop-color="#515151"/><stop offset="1"/></linearGradient><filter id="luminosity-noclip-2" x="155.67" y="-7377.56" width="152.2" height="32766" filterUnits="userSpaceOnUse" color-interpolation-filters="sRGB"><feFlood flood-color="#fff" result="bg"/><feBlend in="SourceGraphic" in2="bg"/></filter><mask id="mask-2" x="155.67" y="-7377.56" width="152.2" height="32766" maskUnits="userSpaceOnUse"><g class="cls-57"/></mask><linearGradient id="linear-gradient-2" x1="155.67" y1="452.08" x2="307.87" y2="452.08" xlink:href="#linear-gradient"/><filter id="luminosity-noclip-3" x="456.02" y="-7377.56" width="116.05" height="32766" filterUnits="userSpaceOnUse" color-interpolation-filters="sRGB"><feFlood flood-color="#fff" result="bg"/><feBlend in="SourceGraphic" in2="bg"/></filter><mask id="mask-3" x="456.02" y="-7377.56" width="116.05" height="32766" maskUnits="userSpaceOnUse"><g class="cls-56"/></mask><linearGradient id="linear-gradient-3" x1="456.02" y1="391.99" x2="572.07" y2="391.99" xlink:href="#linear-gradient"/><filter id="luminosity-noclip-4" x="437.94" y="-7377.56" width="152.2" height="32766" filterUnits="userSpaceOnUse" color-interpolation-filters="sRGB"><feFlood flood-color="#fff" result="bg"/><feBlend in="SourceGraphic" in2="bg"/></filter><mask id="mask-4" x="437.94" y="-7377.56" width="152.2" height="32766" maskUnits="userSpaceOnUse"><g class="cls-55"/></mask><linearGradient id="linear-gradient-4" x1="437.94" y1="455.15" x2="590.14" y2="455.15" xlink:href="#linear-gradient"/><linearGradient id="Degradado_sin_nombre_28" x1="-1308.63" y1="2713.5" x2="-1026.08" y2="2224.11" gradientTransform="matrix(0, 1, 1, 0, -2262.38, 1278.48)" gradientUnits="userSpaceOnUse"><stop offset="0" stop-color="#d08e64"/><stop offset="0.06" stop-color="#d08e64" stop-opacity="0.93"/><stop offset="0.53" stop-color="#d08e64" stop-opacity="0.44"/><stop offset="0.85" stop-color="#d08e64" stop-opacity="0.12"/><stop offset="1" stop-color="#d08e64" stop-opacity="0"/></linearGradient><linearGradient id="Degradado_sin_nombre_28-2" x1="-9196.89" y1="2640.08" x2="-8991.78" y2="2284.81" gradientTransform="translate(-2340.38 -8867.86) rotate(-90)" xlink:href="#Degradado_sin_nombre_28"/><linearGradient id="linear-gradient-5" x1="32.74" y1="271.08" x2="709.36" y2="271.08" gradientUnits="userSpaceOnUse"><stop offset="0" stop-color="#f3eded"/><stop offset="0.18" stop-color="#ecdad2" stop-opacity="0.8"/><stop offset="0.59" stop-color="#ddb297" stop-opacity="0.37"/><stop offset="0.87" stop-color="#d49872" stop-opacity="0.1"/><stop offset="1" stop-color="#d08e64" stop-opacity="0"/></linearGradient><linearGradient id="Degradado_sin_nombre_9" x1="375.95" y1="5.84" x2="375.95" y2="104.25" gradientUnits="userSpaceOnUse"><stop offset="0" stop-color="#fff"/><stop offset="0.08" stop-color="#fff" stop-opacity="0.76"/><stop offset="0.22" stop-color="#fff" stop-opacity="0.36"/><stop offset="0.31" stop-color="#fff" stop-opacity="0.1"/><stop offset="0.36" stop-color="#fff" stop-opacity="0"/></linearGradient><linearGradient id="Degradado_sin_nombre_9-2" x1="575.19" y1="12.65" x2="575.19" y2="13.02" xlink:href="#Degradado_sin_nombre_9"/><linearGradient id="Degradado_sin_nombre_9-3" x1="176.72" y1="12.65" x2="176.72" y2="13.02" xlink:href="#Degradado_sin_nombre_9"/><linearGradient id="linear-gradient-6" x1="102.93" y1="423.9" x2="360.61" y2="423.9" gradientUnits="userSpaceOnUse"><stop offset="0" stop-color="#283379"/><stop offset="0.5" stop-color="#558db7"/><stop offset="0.55" stop-color="#5083b0"/><stop offset="1" stop-color="#283379"/></linearGradient><linearGradient id="linear-gradient-7" x1="231.77" y1="453.78" x2="231.77" y2="387.21" gradientUnits="userSpaceOnUse"><stop offset="0" stop-color="#5281b0"/><stop offset="0.1" stop-color="#5b8bb8"/><stop offset="1" stop-color="#a8dbf6"/></linearGradient><linearGradient id="linear-gradient-8" x1="231.77" y1="453.78" x2="231.77" y2="387.21" gradientUnits="userSpaceOnUse"><stop offset="0" stop-color="#015499"/><stop offset="0.5" stop-color="#579ac9"/><stop offset="1" stop-color="#a8dbf6"/></linearGradient><filter id="luminosity-noclip-5" x="173.74" y="387.21" width="116.05" height="3.41" filterUnits="userSpaceOnUse" color-interpolation-filters="sRGB"><feFlood flood-color="#fff" result="bg"/><feBlend in="SourceGraphic" in2="bg"/></filter><mask id="mask-5" x="173.74" y="387.21" width="116.05" height="3.41" maskUnits="userSpaceOnUse"><g class="cls-1"><rect class="cls-2" x="173.74" y="387.21" width="116.05" height="3.41"/></g></mask><linearGradient id="linear-gradient-9" x1="173.74" y1="388.91" x2="289.8" y2="388.91" gradientUnits="userSpaceOnUse"><stop offset="0" stop-color="#c5e6dd"/><stop offset="0.5" stop-color="#c5e6dd"/><stop offset="1" stop-color="#c5e6dd"/></linearGradient><filter id="luminosity-noclip-6" x="155.67" y="450.37" width="152.2" height="3.41" filterUnits="userSpaceOnUse" color-interpolation-filters="sRGB"><feFlood flood-color="#fff" result="bg"/><feBlend in="SourceGraphic" in2="bg"/></filter><mask id="mask-6" x="155.67" y="450.37" width="152.2" height="3.41" maskUnits="userSpaceOnUse"><g class="cls-3"><rect class="cls-4" x="155.67" y="450.37" width="152.2" height="3.41"/></g></mask><linearGradient id="linear-gradient-10" x1="155.67" y1="452.08" x2="307.87" y2="452.08" xlink:href="#linear-gradient-9"/><linearGradient id="linear-gradient-11" x1="385.2" y1="426.98" x2="642.88" y2="426.98" gradientUnits="userSpaceOnUse"><stop offset="0" stop-color="#32823f"/><stop offset="0.5" stop-color="#7bb742"/><stop offset="1" stop-color="#32823f"/></linearGradient><linearGradient id="linear-gradient-12" x1="514.04" y1="456.85" x2="514.04" y2="390.29" gradientUnits="userSpaceOnUse"><stop offset="0" stop-color="#6daf44"/><stop offset="0.02" stop-color="#6fb044"/><stop offset="1" stop-color="#bfd730"/></linearGradient><linearGradient id="linear-gradient-13" x1="514.04" y1="456.85" x2="514.04" y2="390.29" gradientUnits="userSpaceOnUse"><stop offset="0" stop-color="#5d9a42"/><stop offset="0.18" stop-color="#6fa53f"/><stop offset="1" stop-color="#bfd730"/></linearGradient><filter id="luminosity-noclip-7" x="456.02" y="390.29" width="116.05" height="3.41" filterUnits="userSpaceOnUse" color-interpolation-filters="sRGB"><feFlood flood-color="#fff" result="bg"/><feBlend in="SourceGraphic" in2="bg"/></filter><mask id="mask-7" x="456.02" y="390.29" width="116.05" height="3.41" maskUnits="userSpaceOnUse"><g class="cls-5"><rect class="cls-6" x="456.02" y="390.29" width="116.05" height="3.41"/></g></mask><linearGradient id="linear-gradient-14" x1="456.02" y1="391.99" x2="572.07" y2="391.99" gradientUnits="userSpaceOnUse"><stop offset="0" stop-color="#dbeaba"/><stop offset="0.5" stop-color="#dbeaba"/><stop offset="1" stop-color="#dbeaba"/></linearGradient><filter id="luminosity-noclip-8" x="437.94" y="453.45" width="152.2" height="3.41" filterUnits="userSpaceOnUse" color-interpolation-filters="sRGB"><feFlood flood-color="#fff" result="bg"/><feBlend in="SourceGraphic" in2="bg"/></filter><mask id="mask-8" x="437.94" y="453.45" width="152.2" height="3.41" maskUnits="userSpaceOnUse"><g class="cls-7"><rect class="cls-8" x="437.94" y="453.45" width="152.2" height="3.41"/></g></mask><linearGradient id="linear-gradient-15" x1="437.94" y1="455.15" x2="590.14" y2="455.15" xlink:href="#linear-gradient-14"/></defs><title>failed</title><g class="cls-9"><g id="Layer_2" data-name="Layer 2"><g id="Layer_1-2" data-name="Layer 1"><path class="cls-10" d="M0,452.64V87.71A64.86,64.86,0,0,1,64.86,22.85l3.06-.46a2063.41,2063.41,0,0,1,606.26,0l3.06.46A64.86,64.86,0,0,1,742.1,87.71v373c0,31.49-25.59,60.25-56.87,63.92l-8,.94a2628.46,2628.46,0,0,1-612.38,0h0C29.19,521.38,0,488.56,0,452.64Z"/><path class="cls-11" d="M6.86,330.55S453.07,269.88,469.58,1.81c0,0-187.71-10.92-397.25,21.82,0,0-48.7-3.8-63.63,49.39,0,0-1.84,9.08-1.84,24.59Z"/><path class="cls-12" d="M0,27.68S248.8,78.54,304.84,291.17c8.69,33-17.55,64.77-51.6,62.9C198,351,117.86,346.74,65.48,338c0,0-41.47,2.18-63.64-52.8,0,0-1.84-9.08-1.84-24.59Z"/><path class="cls-13" d="M17.46,444.13V96.37A61.81,61.81,0,0,1,79.27,34.56l2.92-.43a1965.23,1965.23,0,0,1,577.72,0l2.92.43a61.81,61.81,0,0,1,61.81,61.81V451.8c0,30-24.39,57.43-54.19,60.92l-7.62.89a2504.44,2504.44,0,0,1-583.56,0h0C45.28,509.63,17.46,478.36,17.46,444.13Z"/><path class="cls-14" d="M32.74,436.68V104A59.14,59.14,0,0,1,91.88,44.81l2.79-.42a1881,1881,0,0,1,552.76,0l2.79.42A59.14,59.14,0,0,1,709.36,104V444c0,28.71-23.33,54.94-51.85,58.29l-7.29.85a2397,2397,0,0,1-558.34,0h0C59.35,499.35,32.74,469.43,32.74,436.68Z"/><path class="cls-15" d="M32.74,436V103.3A59.14,59.14,0,0,1,91.88,44.16l2.79-.41a1881,1881,0,0,1,552.76,0l2.79.41a59.14,59.14,0,0,1,59.14,59.14V443.38c0,28.71-23.33,54.94-51.85,58.29l-7.29.85a2397,2397,0,0,1-558.34,0h0C59.35,498.71,32.74,468.79,32.74,436Z"/><path class="cls-16" d="M556.84,5.92H195.06a21.67,21.67,0,0,0-9.25,1.32l-.24,0,.17,0a26.07,26.07,0,0,0-8.81,5.38c1.79-1.52,9.14-7.12,17.34-4.59a13.22,13.22,0,0,1,6.89,5.27c5.6,7.94,13.44,23.09,17.73,49.31a49.52,49.52,0,0,0,48.83,41.61H484.18A49.35,49.35,0,0,0,533,63c4.49-27.83,13-43.26,18.65-50.86a11,11,0,0,1,4.18-3.5h0c.49-.13,1-.29,1.7-.5,8.25-2.61,15.65,3,17.45,4.56C566.22,4.65,556.84,5.92,556.84,5.92Z"/><path class="cls-16" d="M575,12.65c.14.12.28.23.42.37S575.25,12.87,575,12.65Z"/><path class="cls-16" d="M176.93,12.65c-.27.22-.42.37-.42.37S176.79,12.77,176.93,12.65Z"/><g class="cls-17"><path class="cls-18" d="M556.84,5.92H195.06a21.67,21.67,0,0,0-9.25,1.32l-.24,0,.17,0a26.07,26.07,0,0,0-8.81,5.38c1.79-1.52,9.14-7.12,17.34-4.59a13.22,13.22,0,0,1,6.89,5.27c5.6,7.94,13.44,23.09,17.73,49.31a49.52,49.52,0,0,0,48.83,41.61H484.18A49.35,49.35,0,0,0,533,63c4.49-27.83,13-43.26,18.65-50.86a11,11,0,0,1,4.18-3.5h0c.49-.13,1-.29,1.7-.5,8.25-2.61,15.65,3,17.45,4.56C566.22,4.65,556.84,5.92,556.84,5.92Z"/><path class="cls-19" d="M575,12.65c.14.12.28.23.42.37S575.25,12.87,575,12.65Z"/><path class="cls-20" d="M176.93,12.65c-.27.22-.42.37-.42.37S176.79,12.77,176.93,12.65Z"/></g><path class="cls-21" d="M234.91,8.5s-10.35,0-12.93,7.77S247.85,29.21,253,24,253,8.5,234.91,8.5Z"/><path class="cls-21" d="M358.6,14.61a84.07,84.07,0,0,0-34.38-5.83c-16.67.57-42.71,2.29-47.9,7.49-7.76,7.76,13,39.11,80.22,18.11C380.2,27,370.91,19.59,358.6,14.61Z"/><text class="cls-22" transform="translate(257.09 67.01)">mini game</text><g class="cls-23"><path class="cls-24" d="M281.88,33.7l9.87-.88,1.87,34-11.85-.49L282,53.84l-2.53,8.06-5.59-.16-3-7.9-.22,12.67-11.41.39,1.37-32.81L271,33.15l5.49,13.06Z"/><path class="cls-24" d="M309.37,66.84H297.24l2-33.3,10-.61Z"/><path class="cls-24" d="M329.89,33.15l10.43.94,1.37,32.81-11.85.27-6.26-15.91L324,67l-11-.17,1.87-34,9.87.88,5.6,14.1Z"/><path class="cls-24" d="M356.73,66.84H344.6l2-33.3,10-.61Z"/><path class="cls-24" d="M401.45,62.4c-5.93,4.06-12,5.32-18.11,3.84a13.89,13.89,0,0,1-9.77-8.45,21.93,21.93,0,0,1-1.81-6.59,30.14,30.14,0,0,1,1-9.05c1.15-3.57,3.78-6.75,7.85-9.49a21.09,21.09,0,0,1,13.66-.77,23.31,23.31,0,0,1,5.82,2.41L397,44.46A9.26,9.26,0,0,0,394.59,43a8.26,8.26,0,0,0-6-.17,7.4,7.4,0,0,0-4.88,7.8c.66,4.44,2.91,6.09,6.8,5l-.55-5.38c.28-.05.77-.11,1.43-.27l8-1.48Z"/><path class="cls-24" d="M403.42,66.29l8.45-33.08L426.8,33l8,33.36-10.48,1L423,60.75h-7.68l-1.26,6.59Zm17.67-14.21L419,41.82l-1.81,10.43Z"/><path class="cls-24" d="M460.44,33.7l9.87-.88,1.87,34-11.85-.49.22-12.51L458,61.9l-5.6-.16-3-7.9-.22,12.67-11.42.39,1.38-32.81,10.42-.94,5.49,13.06Z"/><path class="cls-24" d="M500,66.57l-24.81.22,1.27-33.42,23-.16L499.18,38c-.11,2.46-.17,4.06-.17,4.77l-11.41,0v3l8.5-.11L495.34,54l-8.12.28-.17,2.63,3.35,0c1.31,0,2.3,0,3-.06,4.34,0,6.48,0,6.42-.11Z"/></g><text class="cls-25" transform="translate(282.3 165.3)">RẤT TIẾC<tspan x="-206.59" y="62.53">CHƯA VƯỢT QUA MINI GAME</tspan></text><path class="cls-26" d="M307.73,158.9l-5.89,7.19L294.59,160l0,5.06-10.32-.42L285,133l7.72-.37c6.25-.36,10.63,1.36,13.08,5.16,1,1.72,1.46,4.33,1.3,7.82-.21,4.27-1.56,7.34-4,9.27Zm-9.49-15.59a3.92,3.92,0,0,0-3.75-2.39l.05,7.92.52-.11a2.86,2.86,0,0,1,.47-.1C297.56,148,298.5,146.18,298.24,143.31Z"/><path class="cls-26" d="M308,164.63l8-31.42,14.17-.21,7.61,31.68-10,.94-1.25-6.26h-7.3l-1.2,6.26ZM323.2,126.9l-4.64,3.8-4.95-2.55,7.35-6.36,4.27-.05,7.71,6.05-5.31,3.12Zm-2.55-7.29-2.51-3.91,9.7-6.72,4,4.53Zm4.11,31.52-2-9.74-1.72,9.9Z"/><path class="cls-26" d="M361,139.2l-4.33.26.16,25.69H345.34L346.91,140l-6.88.37.26-7.61,20.53-1Z"/><path class="cls-26" d="M396.35,139.2l-4.32.26.15,25.69H380.67L382.23,140l-6.88.37.26-7.61,20.54-1Z"/><path class="cls-26" d="M411.2,165.15H399.69l1.87-31.63,9.49-.58Z"/><path class="cls-26" d="M437.57,164.89,414,165.1l1.2-31.74,21.89-.15-.26,4.58c-.11,2.35-.16,3.86-.16,4.53l-10.84.06v2.86l8.08-.1-.73,7.81-7.71.27-.16,2.5,3.18-.06c1.25,0,2.19,0,2.81,0,4.12,0,6.15-.05,6.1-.1Zm-11.83-38.35-4.64,3.8-5-2.55,7.35-6.36,4.22-.05,7.76,6-5.31,3.13Zm-4.38-6.93-2.5-3.91,9.69-6.72,4,4.53Z"/><path class="cls-26" d="M468.36,161c0,.52-1.72,1.41-5.21,2.71a21.3,21.3,0,0,1-12.56.88,13.06,13.06,0,0,1-9.22-8.33,21.56,21.56,0,0,1-1.67-6.52,18,18,0,0,1,.31-6.25,12.86,12.86,0,0,1,8-9.38c3.23-1.41,7.29-1.77,12.14-1.15a50.49,50.49,0,0,1,6.36,1.31l-2.92,9.64a9.14,9.14,0,0,0-2.3-1.36,7.79,7.79,0,0,0-5.73-.15,7,7,0,0,0-4.63,7.4c.41,2.76,1.56,4.42,3.43,4.89s4.28-.26,7.3-2.13Z"/><path class="cls-26" d="M105,223.51c0,.52-1.72,1.4-5.21,2.71a21.38,21.38,0,0,1-12.56.88,13.07,13.07,0,0,1-9.22-8.34,21.41,21.41,0,0,1-1.67-6.51,17.78,17.78,0,0,1,.31-6.25,12.82,12.82,0,0,1,8-9.38c3.23-1.41,7.29-1.77,12.14-1.15a49.86,49.86,0,0,1,6.35,1.3l-2.91,9.64a8.83,8.83,0,0,0-2.3-1.35,7.85,7.85,0,0,0-5.73-.16,7,7,0,0,0-4.64,7.4c.42,2.76,1.57,4.43,3.44,4.9s4.28-.26,7.3-2.14Z"/><path class="cls-26" d="M124.37,195.68l9.9.89,1.3,31.16-11.25.26.21-12.67h-5.16l-.58,12.51-10.47-.16,1.77-32.3,9.38.83-.1,11.62,4.95.05Z"/><path class="cls-26" d="M163.55,217.15a10.54,10.54,0,0,1-2.55,6.77c-2.24,2.82-5.32,4-9.33,3.65-5-.47-8.59-2.4-10.63-5.68a11,11,0,0,1-1.61-4.9L138,196l10.78-.57,1.05,19.39c.36,1.92,1.19,2.81,2.5,2.65s2-1.09,2-2.91V195.37l9.9.47v.52a.19.19,0,0,1,.16-.05c.78-.21,1.25-.58,1.3-1.05s-.31-1.51-1.25-2.71l3.44-3.33c.57-.05,1.2.68,1.93,2.19a9.07,9.07,0,0,1,.88,5.05,5.57,5.57,0,0,1-3.12,4.22,8.68,8.68,0,0,1-2.56.94l-1,.16Z"/><path class="cls-26" d="M166.26,227.15l8-31.42,14.17-.21,7.61,31.69-10,.93-1.25-6.25h-7.29l-1.2,6.25ZM183,213.66l-2-9.75-1.72,9.9Z"/><path class="cls-26" d="M208.88,195.84l10.84-.47,2.66,20.68,2.92-20.58,11.25.57-5.26,32-16.31.47Z"/><path class="cls-26" d="M264.74,217.15a10.54,10.54,0,0,1-2.55,6.77c-2.24,2.82-5.32,4-9.33,3.65-5.06-.47-8.6-2.4-10.63-5.68a11.16,11.16,0,0,1-1.62-4.9l-1.46-21,10.79-.57,1,19.39c.37,1.92,1.2,2.81,2.5,2.65s2-1.09,2-2.91V195.37l9.9.47v.52a.18.18,0,0,1,.15-.05c.78-.21,1.25-.58,1.31-1.05s-.32-1.51-1.25-2.71l3.44-3.33c.57-.05,1.19.68,1.92,2.19a9.08,9.08,0,0,1,.89,5.05,5.56,5.56,0,0,1-3.13,4.22,8.61,8.61,0,0,1-2.55.94l-1,.16Z"/><path class="cls-26" d="M299.44,201.88a29.41,29.41,0,0,1,1.36,4.69,25.6,25.6,0,0,1-.79,12.09,11.48,11.48,0,0,1-3.23,5.52c-1,.89-1.66,1.31-2.08,1.31-3.91,1.45-5.94,2.18-6.1,2.24q-4.07.86-10.32-.63c-4.32-1.09-7.39-3.86-9.22-8.34a22,22,0,0,1-1.67-6.51,17.78,17.78,0,0,1,.32-6.25,12.79,12.79,0,0,1,8-9.38c6-2.66,11.2-3.18,15.63-1.62a14.09,14.09,0,0,1,2.82,1.36,1.87,1.87,0,0,0,.52-.05c.78-.21,1.25-.58,1.3-1.05s-.31-1.51-1.25-2.71l3.44-3.33c.57-.05,1.2.68,1.93,2.19a9.07,9.07,0,0,1,.88,5.05,5.44,5.44,0,0,1-2.55,3.86C298.76,200.79,299.08,201.31,299.44,201.88Zm-20.58,10.27c.36,2.55,1.35,4.17,2.92,4.84a9,9,0,0,0,5.05,0,6.11,6.11,0,0,0,3.81-2.5c.67-1.2.83-3.18.46-5.89a4.29,4.29,0,0,0-2.76-3.8,8.56,8.56,0,0,0-5.1.1,6,6,0,0,0-3.29,2.45A6.81,6.81,0,0,0,278.86,212.15Zm3.23,19.75a2.73,2.73,0,0,1,2.29-1.31,4.36,4.36,0,0,1,2.56.68,2.33,2.33,0,0,1,1.14,2.14,4.16,4.16,0,0,1-1.14,2.81,3.4,3.4,0,0,1-2.56,1.35c-2.14,0-3.18-1-3.18-2.91A4.6,4.6,0,0,1,282.09,231.9Z"/><path class="cls-26" d="M324.66,201.72l-4.33.27.16,25.68H309l1.57-25.11-6.88.36.26-7.6,20.53-1Z"/><path class="cls-26" d="M342.68,224.18a11.64,11.64,0,0,1-3.23-5.52,25.48,25.48,0,0,1-.78-12.09,28.4,28.4,0,0,1,1.36-4.69,15.66,15.66,0,0,1,8.13-6.88c4.43-1.56,9.64-1,15.63,1.62a13,13,0,0,1,8,9.38,22.61,22.61,0,0,1,0,8.54A20.33,20.33,0,0,1,370,219.6l5.79,4.22-8.5,6.62-3.44-4.28a11,11,0,0,1-2.71.94q-6.26,1.49-10.31.63c-.16-.06-2.19-.79-6.1-2.24C344.35,225.49,343.67,225.07,342.68,224.18Zm17.83-11.62.1-.41a6.86,6.86,0,0,0-1.09-4.8,6,6,0,0,0-3.29-2.45,7.09,7.09,0,0,0-4.27.26,6.52,6.52,0,0,0-3.6,3.44c-.36,4.54,1.05,7.35,4.28,8.39a9.06,9.06,0,0,0,4.17.26l-2.66-3.38,3.18-3.65Z"/><path class="cls-26" d="M400,217.15a10.54,10.54,0,0,1-2.55,6.77c-2.24,2.82-5.32,4-9.33,3.65-5.05-.47-8.6-2.4-10.63-5.68a11.16,11.16,0,0,1-1.62-4.9l-1.45-21,10.78-.57,1,19.39c.37,1.92,1.2,2.81,2.51,2.65s2-1.09,2-2.91V195.37l9.9.47Z"/><path class="cls-26" d="M402.71,227.15l8-31.42,14.18-.21,7.6,31.69-9.95.93-1.25-6.25H414l-1.2,6.25Zm16.78-13.49-2-9.75-1.72,9.9Z"/><path class="cls-26" d="M467.68,196.2l9.38-.83,1.77,32.3-11.25-.46.21-11.89-2.4,7.67-5.31-.16-2.87-7.51-.21,12-10.84.37,1.31-31.16,9.9-.89,5.21,12.4Z"/><path class="cls-26" d="M493.79,227.67H482.27L484.15,196l9.48-.57Z"/><path class="cls-26" d="M513.27,195.68l9.9.89,1.31,31.16-11.26.26-5.94-15.11.42,15-10.47-.16,1.77-32.3,9.38.83,5.31,13.39Z"/><path class="cls-26" d="M538.75,227.67H527.24L529.11,196l9.49-.57Z"/><path class="cls-26" d="M581.22,223.45c-5.63,3.86-11.36,5.06-17.2,3.65a13.17,13.17,0,0,1-9.27-8,20.5,20.5,0,0,1-1.72-6.26,28.49,28.49,0,0,1,.94-8.59c1.09-3.39,3.59-6.41,7.45-9a20,20,0,0,1,13-.73,21.76,21.76,0,0,1,5.52,2.29L577,206.41a8.83,8.83,0,0,0-2.3-1.35,7.84,7.84,0,0,0-5.73-.16,7.05,7.05,0,0,0-4.64,7.4c.63,4.22,2.77,5.79,6.47,4.74l-.52-5.1c.26-.05.72-.11,1.35-.26l7.56-1.41Z"/><path class="cls-26" d="M583.09,227.15l8-31.42,14.17-.21,7.61,31.69-10,.93-1.25-6.25H594.4l-1.2,6.25Zm16.78-13.49-2-9.75-1.72,9.9Z"/><path class="cls-26" d="M637.23,196.2l9.38-.83,1.77,32.3-11.25-.46.2-11.89L634.94,223l-5.32-.16-2.87-7.51-.2,12-10.84.37,1.3-31.16,9.9-.89,5.21,12.4Z"/><path class="cls-26" d="M674.74,227.41l-23.55.21,1.2-31.73,21.89-.16-.27,4.59q-.15,3.51-.15,4.53L663,204.9v2.87l8.08-.11-.73,7.82-7.71.26-.16,2.5,3.18-.05c1.25,0,2.19,0,2.81-.05,4.12,0,6.15,0,6.1-.11Z"/><path class="cls-27" d="M188,159.54,214,114.61a3.92,3.92,0,0,1,6.79,0l25.95,44.93a3.92,3.92,0,0,1-3.4,5.88H191.41A3.92,3.92,0,0,1,188,159.54Z"/><text class="cls-28" transform="translate(212.65 155.32)">!</text><path class="cls-29" d="M188,159.54,214,114.61a3.92,3.92,0,0,1,6.79,0l25.95,44.93a3.92,3.92,0,0,1-3.4,5.88H191.41A3.92,3.92,0,0,1,188,159.54Z"/><text class="cls-30" transform="translate(212.65 155.32)">!</text><path class="cls-31" d="M87.48,259.82H81.33V257.6h15v2.22H90.12v18H87.48Z"/><path class="cls-31" d="M97.11,267.83c0-1.71,0-3.18-.12-4.53H99.3l.09,2.85h.12a4.36,4.36,0,0,1,4-3.18,2.86,2.86,0,0,1,.75.09v2.49a4,4,0,0,0-.9-.09c-1.86,0-3.18,1.41-3.54,3.39a7.43,7.43,0,0,0-.12,1.23v7.74H97.11Z"/><path class="cls-31" d="M119.76,270.44c0,5.37-3.72,7.71-7.23,7.71-3.93,0-7-2.88-7-7.47,0-4.86,3.18-7.71,7.2-7.71C116.94,263,119.76,266,119.76,270.44Zm-11.52.15c0,3.18,1.83,5.58,4.41,5.58s4.41-2.37,4.41-5.64c0-2.46-1.23-5.58-4.35-5.58S108.24,267.83,108.24,270.59Z"/><path class="cls-31" d="M123.09,267.23c0-1.5,0-2.73-.12-3.93h2.34l.15,2.4h.06a5.34,5.34,0,0,1,4.8-2.73c2,0,5.13,1.2,5.13,6.18v8.67h-2.64v-8.37c0-2.34-.87-4.29-3.36-4.29a3.75,3.75,0,0,0-3.54,2.7,3.8,3.8,0,0,0-.18,1.23v8.73h-2.64Z"/><path class="cls-31" d="M152.25,263.3c-.06,1.05-.12,2.22-.12,4v8.43c0,3.33-.66,5.37-2.07,6.63a7.7,7.7,0,0,1-5.28,1.74,9.37,9.37,0,0,1-4.83-1.2l.66-2a8.19,8.19,0,0,0,4.26,1.14c2.7,0,4.68-1.41,4.68-5.07v-1.62h-.06a5.18,5.18,0,0,1-4.62,2.43c-3.6,0-6.18-3.06-6.18-7.08,0-4.92,3.21-7.71,6.54-7.71a4.83,4.83,0,0,1,4.53,2.52h.06l.12-2.19ZM149.52,269a3.76,3.76,0,0,0-.15-1.2,3.8,3.8,0,0,0-3.69-2.79c-2.52,0-4.32,2.13-4.32,5.49,0,2.85,1.44,5.22,4.29,5.22a3.86,3.86,0,0,0,3.66-2.7,4.59,4.59,0,0,0,.21-1.41Z"/><path class="cls-31" d="M162.74,263.3l2.85,8.16a37.34,37.34,0,0,1,1.17,3.72h.09c.33-1.2.75-2.4,1.23-3.72l2.82-8.16h2.76L168,277.82h-2.52l-5.52-14.52Z"/><path class="cls-31" d="M189,270.44c0,5.37-3.72,7.71-7.23,7.71-3.93,0-7-2.88-7-7.47,0-4.86,3.18-7.71,7.2-7.71S189,266,189,270.44Zm-11.52.15c0,3.18,1.83,5.58,4.41,5.58s4.41-2.37,4.41-5.64c0-2.46-1.23-5.58-4.35-5.58S177.47,267.83,177.47,270.59ZM180.92,257l2.61,4.29h-1.86L178,257Z"/><path class="cls-31" d="M192.32,267.23c0-1.5,0-2.73-.12-3.93h2.34l.15,2.4h.06a5.34,5.34,0,0,1,4.8-2.73c2,0,5.13,1.2,5.13,6.18v8.67H202v-8.37c0-2.34-.87-4.29-3.36-4.29a3.75,3.75,0,0,0-3.54,2.7,3.8,3.8,0,0,0-.18,1.23v8.73h-2.64Z"/><path class="cls-31" d="M221.48,263.3c-.06,1.05-.12,2.22-.12,4v8.43c0,3.33-.66,5.37-2.07,6.63a7.7,7.7,0,0,1-5.28,1.74,9.37,9.37,0,0,1-4.83-1.2l.66-2A8.19,8.19,0,0,0,214.1,282c2.7,0,4.68-1.41,4.68-5.07v-1.62h-.06a5.18,5.18,0,0,1-4.62,2.43c-3.6,0-6.18-3.06-6.18-7.08,0-4.92,3.21-7.71,6.54-7.71a4.83,4.83,0,0,1,4.53,2.52h.06l.12-2.19ZM218.75,269a3.76,3.76,0,0,0-.15-1.2,3.8,3.8,0,0,0-3.69-2.79c-2.52,0-4.32,2.13-4.32,5.49,0,2.85,1.44,5.22,4.29,5.22a3.86,3.86,0,0,0,3.66-2.7,4.59,4.59,0,0,0,.21-1.41Z"/><path class="cls-31" d="M235.84,260.78h-.06l-3.39,1.83-.51-2,4.26-2.28h2.25v19.5h-2.55Z"/><path class="cls-31" d="M257.14,260.54H249.7l-.75,5a10.43,10.43,0,0,1,1.59-.12,8.24,8.24,0,0,1,4.2,1.05,5.56,5.56,0,0,1,2.79,5c0,3.81-3,6.66-7.26,6.66a9.55,9.55,0,0,1-4.86-1.2l.66-2a8.73,8.73,0,0,0,4.17,1.08c2.49,0,4.62-1.62,4.62-4.23s-1.71-4.32-5.61-4.32a20.17,20.17,0,0,0-2.7.21l1.26-9.36h9.33Z"/><path class="cls-31" d="M279.45,263.3c-.06,1.05-.12,2.22-.12,4v8.43c0,3.33-.66,5.37-2.07,6.63a7.7,7.7,0,0,1-5.28,1.74,9.37,9.37,0,0,1-4.83-1.2l.66-2a8.19,8.19,0,0,0,4.26,1.14c2.7,0,4.68-1.41,4.68-5.07v-1.62h-.06a5.18,5.18,0,0,1-4.62,2.43c-3.6,0-6.18-3.06-6.18-7.08,0-4.92,3.21-7.71,6.54-7.71a4.83,4.83,0,0,1,4.53,2.52H277l.12-2.19ZM276.72,269a3.76,3.76,0,0,0-.15-1.2,3.8,3.8,0,0,0-3.69-2.79c-2.52,0-4.32,2.13-4.32,5.49,0,2.85,1.44,5.22,4.29,5.22a3.86,3.86,0,0,0,3.66-2.7,4.59,4.59,0,0,0,.21-1.41Z"/><path class="cls-31" d="M286.47,259.22a1.64,1.64,0,0,1-3.27,0,1.61,1.61,0,0,1,1.65-1.65A1.57,1.57,0,0,1,286.47,259.22Zm-2.94,18.6V263.3h2.64v14.52Z"/><path class="cls-31" d="M298.59,277.82l-.21-1.83h-.09a5.41,5.41,0,0,1-4.44,2.16,4.14,4.14,0,0,1-4.44-4.17c0-3.51,3.12-5.43,8.73-5.4v-.3c0-1.2-.33-3.36-3.3-3.36a7.23,7.23,0,0,0-3.78,1.08l-.6-1.74a9,9,0,0,1,4.77-1.29c4.44,0,5.52,3,5.52,5.94v5.43a20.44,20.44,0,0,0,.24,3.48ZM296.34,257l2.88,4.29h-2l-1.74-2.85h-.06l-1.74,2.85h-2l2.82-4.29Zm1.86,13.38c-2.88-.06-6.15.45-6.15,3.27a2.34,2.34,0,0,0,2.49,2.52,3.61,3.61,0,0,0,3.51-2.43,2.76,2.76,0,0,0,.15-.84Z"/><path class="cls-31" d="M305.73,263.3l3.18,8.58c.33,1,.69,2.1.93,3h.06c.27-.87.57-2,.93-3l2.88-8.52h2.79l-4,10.35c-1.89,5-3.18,7.53-5,9.09a7.15,7.15,0,0,1-3.24,1.71l-.66-2.22a7,7,0,0,0,2.31-1.29,8,8,0,0,0,2.22-2.94,1.9,1.9,0,0,0,.21-.63,2.3,2.3,0,0,0-.18-.69l-5.37-13.38Z"/><path class="cls-31" d="M324.12,256.52h2.63v9.06h.07a4.9,4.9,0,0,1,1.89-1.86,5.4,5.4,0,0,1,2.7-.75c1.95,0,5.07,1.2,5.07,6.21v8.64h-2.65v-8.34c0-2.34-.86-4.32-3.35-4.32a3.78,3.78,0,0,0-3.54,2.64,3.19,3.19,0,0,0-.19,1.26v8.76h-2.63Z"/><path class="cls-31" d="M348.81,277.82,348.6,276h-.09a5.41,5.41,0,0,1-4.44,2.16,4.14,4.14,0,0,1-4.44-4.17c0-3.51,3.12-5.43,8.73-5.4v-.3c0-1.2-.33-3.36-3.3-3.36a7.23,7.23,0,0,0-3.78,1.08l-.6-1.74a9,9,0,0,1,4.77-1.29c4.44,0,5.52,3,5.52,5.94v5.43a20.44,20.44,0,0,0,.24,3.48Zm-6.78-17c-.06-1.95.75-3.12,2-3.12a3.69,3.69,0,0,1,1.86.66,3,3,0,0,0,1.26.51c.48,0,.75-.27.84-1.29h1.38c.06,2-.63,3-2,3a4,4,0,0,1-1.83-.6,2.67,2.67,0,0,0-1.29-.54c-.48,0-.72.51-.78,1.35Zm6.38,9.6c-2.87-.06-6.14.45-6.14,3.27a2.34,2.34,0,0,0,2.49,2.52,3.61,3.61,0,0,0,3.51-2.43,2.74,2.74,0,0,0,.14-.84Z"/><path class="cls-31" d="M356,263.3l3.18,8.58c.33,1,.69,2.1.93,3h.06c.27-.87.57-2,.93-3l2.87-8.52h2.8l-4,10.35c-1.88,5-3.17,7.53-5,9.09a7.15,7.15,0,0,1-3.24,1.71l-.66-2.22a7,7,0,0,0,2.31-1.29,8,8,0,0,0,2.22-2.94,1.9,1.9,0,0,0,.21-.63,2.3,2.3,0,0,0-.18-.69l-5.37-13.38Z"/><path class="cls-31" d="M374.21,277.82c.06-1,.12-2.46.12-3.75V256.52h2.61v9.12H377A5.41,5.41,0,0,1,382,263c3.6,0,6.15,3,6.12,7.41,0,5.19-3.27,7.77-6.51,7.77a5.17,5.17,0,0,1-4.86-2.73h-.09l-.12,2.4Zm2.73-5.82a4.94,4.94,0,0,0,.12,1,4.07,4.07,0,0,0,4,3.09c2.76,0,4.41-2.25,4.41-5.58,0-2.91-1.5-5.4-4.32-5.4a4.21,4.21,0,0,0-4,3.24,5.2,5.2,0,0,0-.15,1.08Z"/><path class="cls-31" d="M399.44,277.82l-.21-1.83h-.09a5.41,5.41,0,0,1-4.44,2.16,4.14,4.14,0,0,1-4.44-4.17c0-3.51,3.12-5.43,8.73-5.4v-.3c0-1.2-.33-3.36-3.3-3.36a7.23,7.23,0,0,0-3.78,1.08l-.6-1.74a9,9,0,0,1,4.77-1.29c4.44,0,5.52,3,5.52,5.94v5.43a20.44,20.44,0,0,0,.24,3.48ZM394,258.11a2.33,2.33,0,0,0,2.37,2.07,2.26,2.26,0,0,0,2.4-2.07h1.47a3.87,3.87,0,0,1-7.74,0Zm5.1,12.3c-2.88-.06-6.15.45-6.15,3.27a2.34,2.34,0,0,0,2.49,2.52,3.61,3.61,0,0,0,3.51-2.43,2.76,2.76,0,0,0,.15-.84Zm1.08-15.78-3.33,3.93h-1.59l2.4-3.93Z"/><path class="cls-31" d="M408.92,259.13v4.17h3.78v2h-3.78v7.83c0,1.8.51,2.82,2,2.82a5.87,5.87,0,0,0,1.53-.18l.12,2a6.46,6.46,0,0,1-2.34.36,3.66,3.66,0,0,1-2.85-1.11c-.75-.78-1-2.07-1-3.78v-7.92h-2.25v-2h2.25v-3.48Z"/><path class="cls-31" d="M426.25,257l-3.66,4.29H420.7l2.64-4.29Zm-5.37,20.79V263.3h2.64v14.52Z"/><path class="cls-31" d="M431.08,259.13v4.17h3.78v2h-3.78v7.83c0,1.8.51,2.82,2,2.82a5.87,5.87,0,0,0,1.53-.18l.12,2a6.46,6.46,0,0,1-2.34.36,3.66,3.66,0,0,1-2.85-1.11c-.75-.78-1-2.07-1-3.78v-7.92h-2.25v-2h2.25v-3.48Z"/><path class="cls-31" d="M443,267.23c0-1.5,0-2.73-.12-3.93h2.34l.15,2.4h.06a5.34,5.34,0,0,1,4.8-2.73c2,0,5.13,1.2,5.13,6.18v8.67h-2.64v-8.37c0-2.34-.87-4.29-3.36-4.29a3.75,3.75,0,0,0-3.54,2.7,3.8,3.8,0,0,0-.18,1.23v8.73H443Z"/><path class="cls-31" d="M459.69,256.52h2.64v9.06h.06a4.9,4.9,0,0,1,1.89-1.86A5.43,5.43,0,0,1,467,263c1.95,0,5.07,1.2,5.07,6.21v8.64h-2.64v-8.34c0-2.34-.87-4.32-3.36-4.32a3.79,3.79,0,0,0-3.54,2.64,3.2,3.2,0,0,0-.18,1.26v8.76h-2.64Z"/><path class="cls-31" d="M484.38,277.82l-.21-1.83h-.09a5.41,5.41,0,0,1-4.44,2.16A4.14,4.14,0,0,1,475.2,274c0-3.51,3.12-5.43,8.73-5.4v-.3c0-1.2-.33-3.36-3.3-3.36a7.23,7.23,0,0,0-3.78,1.08l-.6-1.74A9,9,0,0,1,481,263c4.44,0,5.52,3,5.52,5.94v5.43a20.44,20.44,0,0,0,.24,3.48ZM482.13,257l2.58,4.29h-2l-1.5-2.82h-.09l-1.53,2.82h-1.92l2.52-4.29ZM484,270.41c-2.88-.06-6.15.45-6.15,3.27a2.34,2.34,0,0,0,2.49,2.52,3.61,3.61,0,0,0,3.51-2.43,2.76,2.76,0,0,0,.15-.84Zm4.41-15.84-3,4h-1.53l2.07-4Z"/><path class="cls-31" d="M493.86,259.13v4.17h3.78v2h-3.78v7.83c0,1.8.51,2.82,2,2.82a5.87,5.87,0,0,0,1.53-.18l.12,2a6.46,6.46,0,0,1-2.34.36A3.66,3.66,0,0,1,492.3,277c-.75-.78-1-2.07-1-3.78v-7.92H489v-2h2.25v-3.48Z"/><path class="cls-31" d="M510.71,260.78h-.06l-3.39,1.83-.51-2,4.26-2.28h2.25v19.5h-2.55Z"/><path class="cls-31" d="M532,260.54h-7.44l-.75,5a10.43,10.43,0,0,1,1.59-.12,8.24,8.24,0,0,1,4.2,1.05,5.56,5.56,0,0,1,2.79,5c0,3.81-3,6.66-7.26,6.66a9.55,9.55,0,0,1-4.86-1.2l.66-2a8.73,8.73,0,0,0,4.17,1.08c2.49,0,4.62-1.62,4.62-4.23s-1.71-4.32-5.61-4.32a20.17,20.17,0,0,0-2.7.21l1.26-9.36H532Z"/><path class="cls-31" d="M541.46,275.12a6.91,6.91,0,0,0,3.47,1.05c1.92,0,2.82-1,2.82-2.16s-.75-1.95-2.69-2.67c-2.61-.93-3.84-2.37-3.84-4.11,0-2.34,1.88-4.26,5-4.26a7.28,7.28,0,0,1,3.57.9l-.66,1.92a5.69,5.69,0,0,0-3-.84c-1.56,0-2.42.9-2.42,2s.86,1.74,2.75,2.46c2.52,1,3.82,2.22,3.82,4.38,0,2.55-2,4.35-5.43,4.35a8.28,8.28,0,0,1-4.08-1Z"/><path class="cls-31" d="M561.73,277.82l-.21-1.83h-.09a5.41,5.41,0,0,1-4.44,2.16,4.14,4.14,0,0,1-4.44-4.17c0-3.51,3.12-5.43,8.73-5.4v-.3c0-1.2-.33-3.36-3.3-3.36A7.23,7.23,0,0,0,554.2,266l-.6-1.74a9,9,0,0,1,4.77-1.29c4.44,0,5.52,3,5.52,5.94v5.43a20.44,20.44,0,0,0,.24,3.48Zm-.39-7.41c-2.88-.06-6.15.45-6.15,3.27a2.34,2.34,0,0,0,2.49,2.52,3.61,3.61,0,0,0,3.51-2.43,2.76,2.76,0,0,0,.15-.84Zm-3.6-8.85c.36-1.32,1.71-1.71,1.71-2.82a1,1,0,0,0-1-1,1.84,1.84,0,0,0-1.44,1l-1-.6a3.17,3.17,0,0,1,2.91-2,2.35,2.35,0,0,1,2.55,2.25c0,1.68-1.59,2.16-2.28,3.51Z"/><path class="cls-31" d="M568.16,267.23c0-1.5,0-2.73-.12-3.93h2.34l.14,2.4h.06a5.37,5.37,0,0,1,4.81-2.73c2,0,5.12,1.2,5.12,6.18v8.67h-2.64v-8.37c0-2.34-.87-4.29-3.36-4.29a3.73,3.73,0,0,0-3.53,2.7,3.54,3.54,0,0,0-.18,1.23v8.73h-2.64Z"/><path class="cls-31" d="M590,268c0-1.86,0-3.36-.11-4.74h2.36l.13,2.49h.06A5.7,5.7,0,0,1,597.6,263c3.51,0,6.15,3,6.15,7.38,0,5.22-3.17,7.8-6.59,7.8a5.12,5.12,0,0,1-4.48-2.28h0v7.89H590Zm2.62,3.87a6,6,0,0,0,.11,1.08,4.09,4.09,0,0,0,4,3.09c2.78,0,4.4-2.28,4.4-5.61,0-2.91-1.53-5.4-4.31-5.4a4.2,4.2,0,0,0-4,3.27,4.28,4.28,0,0,0-.18,1.08Z"/><path class="cls-31" d="M607.08,256.52h2.65v9.06h.06a4.94,4.94,0,0,1,1.88-1.86,5.5,5.5,0,0,1,2.71-.75c2,0,5.07,1.2,5.07,6.21v8.64h-2.64v-8.34c0-2.34-.88-4.32-3.36-4.32a3.79,3.79,0,0,0-3.54,2.64,3,3,0,0,0-.18,1.26v8.76h-2.65Z"/><path class="cls-31" d="M631.77,277.82l-.21-1.83h-.09a5.41,5.41,0,0,1-4.44,2.16,4.14,4.14,0,0,1-4.44-4.17c0-3.51,3.12-5.43,8.73-5.4v-.3c0-1.2-.33-3.36-3.3-3.36a7.23,7.23,0,0,0-3.78,1.08l-.6-1.74a9,9,0,0,1,4.77-1.29c4.44,0,5.52,3,5.52,5.94v5.43a20.44,20.44,0,0,0,.24,3.48ZM629.49,257l2.58,4.29h-2l-1.53-2.82h-.06l-1.53,2.82H625l2.52-4.29Zm1.89,13.38c-2.88-.06-6.15.45-6.15,3.27a2.34,2.34,0,0,0,2.49,2.52,3.61,3.61,0,0,0,3.51-2.43,2.76,2.76,0,0,0,.15-.84Zm.72-15.84,1.92,4h-1.53l-2.79-4Z"/><path class="cls-31" d="M638.19,267.23c0-1.5,0-2.73-.11-3.93h2.31l.11,2.34h.09a5,5,0,0,1,4.57-2.67,4.27,4.27,0,0,1,4.1,2.91h.07a5.84,5.84,0,0,1,1.61-1.89,5,5,0,0,1,3.22-1c1.92,0,4.76,1.26,4.76,6.3v8.55h-2.58V269.6c0-2.79-1-4.47-3.15-4.47a3.4,3.4,0,0,0-3.11,2.4,4.05,4.05,0,0,0-.22,1.32v9h-2.58v-8.7c0-2.31-1-4-3-4a3.6,3.6,0,0,0-3.26,2.64,3.43,3.43,0,0,0-.22,1.29v8.76h-2.58Z"/><path class="cls-31" d="M93.9,313.28a9.72,9.72,0,0,1-4.17.84c-4.38,0-7.23-3-7.23-7.41A7.38,7.38,0,0,1,90.3,299a8.82,8.82,0,0,1,3.66.75l-.6,2a6.12,6.12,0,0,0-3.06-.69c-3.33,0-5.13,2.46-5.13,5.49,0,3.36,2.16,5.43,5,5.43a7.5,7.5,0,0,0,3.24-.72Z"/><path class="cls-31" d="M97,292.52h2.64v9.06h.06a4.9,4.9,0,0,1,1.89-1.86,5.43,5.43,0,0,1,2.7-.75c2,0,5.07,1.2,5.07,6.21v8.64h-2.64v-8.34c0-2.34-.87-4.32-3.36-4.32a3.79,3.79,0,0,0-3.54,2.64,3.2,3.2,0,0,0-.18,1.26v8.76H97Z"/><path class="cls-31" d="M126.78,306.44c0,5.37-3.72,7.71-7.23,7.71-3.93,0-7-2.88-7-7.47,0-4.86,3.18-7.71,7.2-7.71S126.78,302,126.78,306.44Zm-11.52.15c0,3.18,1.83,5.58,4.41,5.58s4.41-2.37,4.41-5.64c0-2.46-1.23-5.58-4.35-5.58S115.26,303.83,115.26,306.59Z"/><path class="cls-31" d="M144.84,299.3l2.85,8.16a37.34,37.34,0,0,1,1.17,3.72H149c.33-1.2.75-2.4,1.23-3.72L153,299.3h2.76l-5.7,14.52h-2.52L142,299.3Z"/><path class="cls-31" d="M166.17,313.82,166,312h-.09a5.41,5.41,0,0,1-4.44,2.16A4.14,4.14,0,0,1,157,310c0-3.51,3.12-5.43,8.73-5.4v-.3c0-1.2-.33-3.36-3.3-3.36a7.23,7.23,0,0,0-3.78,1.08l-.6-1.74a9,9,0,0,1,4.77-1.29c4.44,0,5.52,3,5.52,5.94v5.43a20.44,20.44,0,0,0,.24,3.48ZM161.7,293l2.61,4.29h-1.86L158.79,293Zm4.08,13.38c-2.88-.06-6.15.45-6.15,3.27a2.34,2.34,0,0,0,2.49,2.52,3.61,3.61,0,0,0,3.51-2.43,2.76,2.76,0,0,0,.15-.84Z"/><path class="cls-31" d="M185.73,306.44c0,5.37-3.72,7.71-7.23,7.71-3.93,0-7-2.88-7-7.47,0-4.86,3.18-7.71,7.2-7.71S185.73,302,185.73,306.44Zm-11.52.15c0,3.18,1.83,5.58,4.41,5.58s4.41-2.37,4.41-5.64c0-2.46-1.23-5.58-4.35-5.58S174.21,303.83,174.21,306.59Z"/><path class="cls-31" d="M215.28,299.3c-.06,1.05-.12,2.22-.12,4v8.43c0,3.33-.66,5.37-2.07,6.63a7.7,7.7,0,0,1-5.28,1.74,9.37,9.37,0,0,1-4.83-1.2l.66-2A8.19,8.19,0,0,0,207.9,318c2.7,0,4.68-1.41,4.68-5.07v-1.62h-.06a5.18,5.18,0,0,1-4.62,2.43c-3.6,0-6.18-3.06-6.18-7.08,0-4.92,3.21-7.71,6.54-7.71a4.83,4.83,0,0,1,4.53,2.52h.06l.12-2.19ZM212.55,305a3.76,3.76,0,0,0-.15-1.2,3.8,3.8,0,0,0-3.69-2.79c-2.52,0-4.32,2.13-4.32,5.49,0,2.85,1.44,5.22,4.29,5.22a3.86,3.86,0,0,0,3.66-2.7,4.59,4.59,0,0,0,.21-1.41Z"/><path class="cls-31" d="M222.3,295.22a1.64,1.64,0,0,1-3.27,0,1.61,1.61,0,0,1,1.65-1.65A1.57,1.57,0,0,1,222.3,295.22Zm-2.94,18.6V299.3H222v14.52Z"/><path class="cls-31" d="M239.52,306.44c0,5.37-3.72,7.71-7.23,7.71-3.93,0-7-2.88-7-7.47,0-4.86,3.18-7.71,7.2-7.71S239.52,302,239.52,306.44Zm-11.52.15c0,3.18,1.83,5.58,4.41,5.58s4.41-2.37,4.41-5.64c0-2.46-1.23-5.58-4.35-5.58S228,303.83,228,306.59Zm3.42-9c.36-1.32,1.71-1.71,1.71-2.82a1,1,0,0,0-1-1,1.84,1.84,0,0,0-1.44,1l-1-.6a3.14,3.14,0,0,1,2.91-2,2.35,2.35,0,0,1,2.55,2.25c0,1.68-1.59,2.16-2.28,3.51Z"/><path class="cls-31" d="M256.56,292.52h2.64v9.06h.06a4.9,4.9,0,0,1,1.89-1.86,5.43,5.43,0,0,1,2.7-.75c1.95,0,5.07,1.2,5.07,6.21v8.64h-2.64v-8.34c0-2.34-.87-4.32-3.36-4.32a3.79,3.79,0,0,0-3.54,2.64,3.2,3.2,0,0,0-.18,1.26v8.76h-2.64Z"/><path class="cls-31" d="M281.25,313.82,281,312H281a5.41,5.41,0,0,1-4.44,2.16,4.14,4.14,0,0,1-4.44-4.17c0-3.51,3.12-5.43,8.73-5.4v-.3c0-1.2-.33-3.36-3.3-3.36a7.23,7.23,0,0,0-3.78,1.08l-.6-1.74a9,9,0,0,1,4.77-1.29c4.44,0,5.52,3,5.52,5.94v5.43a20.44,20.44,0,0,0,.24,3.48ZM276.78,293l2.61,4.29h-1.86L273.87,293Zm4.08,13.38c-2.88-.06-6.15.45-6.15,3.27a2.34,2.34,0,0,0,2.49,2.52,3.61,3.61,0,0,0,3.51-2.43,2.76,2.76,0,0,0,.15-.84Z"/><path class="cls-31" d="M287.67,303.23c0-1.5,0-2.73-.12-3.93h2.34l.15,2.4h.06a5.34,5.34,0,0,1,4.8-2.73c2,0,5.13,1.2,5.13,6.18v8.67h-2.64v-8.37c0-2.34-.87-4.29-3.36-4.29a3.75,3.75,0,0,0-3.54,2.7,3.8,3.8,0,0,0-.18,1.23v8.73h-2.64Z"/><path class="cls-31" d="M316.83,299.3c-.06,1.05-.12,2.22-.12,4v8.43c0,3.33-.66,5.37-2.07,6.63a7.7,7.7,0,0,1-5.28,1.74,9.37,9.37,0,0,1-4.83-1.2l.66-2a8.19,8.19,0,0,0,4.26,1.14c2.7,0,4.68-1.41,4.68-5.07v-1.62h-.06a5.18,5.18,0,0,1-4.62,2.43c-3.6,0-6.18-3.06-6.18-7.08,0-4.92,3.21-7.71,6.54-7.71a4.83,4.83,0,0,1,4.53,2.52h.06l.12-2.19ZM314.1,305a3.76,3.76,0,0,0-.15-1.2,3.8,3.8,0,0,0-3.69-2.79c-2.52,0-4.32,2.13-4.32,5.49,0,2.85,1.44,5.22,4.29,5.22a3.86,3.86,0,0,0,3.66-2.7,4.59,4.59,0,0,0,.21-1.41Z"/><path class="cls-31" d="M318.93,317.51a43.16,43.16,0,0,0,1.8-7.17l2.94-.3a36.57,36.57,0,0,1-2.85,7.29Z"/><path class="cls-31" d="M340.44,313.82c.06-1,.12-2.46.12-3.75V292.52h2.61v9.12h.06a5.41,5.41,0,0,1,4.95-2.67c3.6,0,6.15,3,6.12,7.41,0,5.19-3.27,7.77-6.51,7.77a5.17,5.17,0,0,1-4.86-2.73h-.09l-.12,2.4Zm2.73-5.82a4.94,4.94,0,0,0,.12,1,4.07,4.07,0,0,0,4,3.09c2.76,0,4.41-2.25,4.41-5.58,0-2.91-1.5-5.4-4.32-5.4a4.21,4.21,0,0,0-4,3.24,5.2,5.2,0,0,0-.15,1.08Z"/><path class="cls-31" d="M365.67,313.82l-.21-1.83h-.09a5.41,5.41,0,0,1-4.44,2.16,4.14,4.14,0,0,1-4.44-4.17c0-3.51,3.12-5.43,8.73-5.4v-.3c0-1.2-.33-3.36-3.3-3.36a7.23,7.23,0,0,0-3.78,1.08l-.6-1.74a9,9,0,0,1,4.77-1.29c4.44,0,5.52,3,5.52,5.94v5.43a20.44,20.44,0,0,0,.24,3.48Zm-.39-7.41c-2.88-.06-6.15.45-6.15,3.27a2.34,2.34,0,0,0,2.49,2.52,3.61,3.61,0,0,0,3.51-2.43,2.76,2.76,0,0,0,.15-.84Zm-1.14,11.34a1.5,1.5,0,0,1-1.5,1.56,1.55,1.55,0,0,1,0-3.09A1.49,1.49,0,0,1,364.14,317.75Z"/><path class="cls-31" d="M372.09,303.23c0-1.5,0-2.73-.12-3.93h2.34l.15,2.4h.06a5.34,5.34,0,0,1,4.8-2.73c2,0,5.13,1.2,5.13,6.18v8.67h-2.64v-8.37c0-2.34-.87-4.29-3.36-4.29a3.75,3.75,0,0,0-3.54,2.7,3.8,3.8,0,0,0-.18,1.23v8.73h-2.64Z"/><path class="cls-31" d="M402.09,311.12a6.93,6.93,0,0,0,3.49,1.05c1.91,0,2.82-1,2.82-2.16s-.75-1.95-2.71-2.67c-2.61-.93-3.84-2.37-3.84-4.11,0-2.34,1.89-4.26,5-4.26a7.25,7.25,0,0,1,3.57.9l-.66,1.92a5.62,5.62,0,0,0-3-.84c-1.56,0-2.43.9-2.43,2s.87,1.74,2.76,2.46c2.53,1,3.81,2.22,3.81,4.38,0,2.55-2,4.35-5.43,4.35a8.28,8.28,0,0,1-4.08-1Z"/><path class="cls-31" d="M415.8,307c.06,3.57,2.35,5,5,5a9.51,9.51,0,0,0,4-.75l.45,1.89a11.68,11.68,0,0,1-4.83.9c-4.47,0-7.14-2.94-7.14-7.32s2.58-7.83,6.81-7.83c4.74,0,6,4.17,6,6.84A10,10,0,0,1,426,307Zm7.74-1.89c0-1.68-.69-4.29-3.66-4.29-2.67,0-3.84,2.46-4.05,4.29ZM416,296.81c-.05-1.95.75-3.12,2-3.12a3.65,3.65,0,0,1,1.86.66,3,3,0,0,0,1.26.51c.48,0,.78-.27.84-1.29h1.41c0,2-.66,3-2.07,3a4,4,0,0,1-1.83-.6,2.67,2.67,0,0,0-1.29-.54c-.48,0-.72.51-.77,1.35Z"/><path class="cls-31" d="M443.08,303.23c0-1.5,0-2.73-.12-3.93h2.34l.15,2.4h.06a5.34,5.34,0,0,1,4.8-2.73c2,0,5.13,1.2,5.13,6.18v8.67H452.8v-8.37c0-2.34-.87-4.29-3.36-4.29a3.75,3.75,0,0,0-3.54,2.7,3.8,3.8,0,0,0-.18,1.23v8.73h-2.64Z"/><path class="cls-31" d="M459.73,292.52h2.64v9.06h.06a4.9,4.9,0,0,1,1.89-1.86A5.43,5.43,0,0,1,467,299c2,0,5.07,1.2,5.07,6.21v8.64h-2.64v-8.34c0-2.34-.87-4.32-3.36-4.32a3.79,3.79,0,0,0-3.54,2.64,3.2,3.2,0,0,0-.18,1.26v8.76h-2.64Z"/><path class="cls-31" d="M484.42,313.82l-.21-1.83h-.09a5.41,5.41,0,0,1-4.44,2.16,4.14,4.14,0,0,1-4.44-4.17c0-3.51,3.12-5.43,8.73-5.4v-.3c0-1.2-.33-3.36-3.3-3.36a7.23,7.23,0,0,0-3.78,1.08l-.6-1.74a9,9,0,0,1,4.77-1.29c4.44,0,5.52,3,5.52,5.94v5.43a20.44,20.44,0,0,0,.24,3.48ZM482.32,293l2.85,4.29h-2l-1.74-2.85h-.06l-1.74,2.85h-1.95l2.82-4.29ZM484,306.41c-2.88-.06-6.15.45-6.15,3.27a2.34,2.34,0,0,0,2.49,2.52,3.61,3.61,0,0,0,3.51-2.43,2.76,2.76,0,0,0,.15-.84Zm-1.14,11.34a1.5,1.5,0,0,1-1.5,1.56,1.55,1.55,0,0,1,0-3.09A1.49,1.49,0,0,1,482.89,317.75Z"/><path class="cls-31" d="M490.84,303.23c0-1.5,0-2.73-.12-3.93h2.34l.15,2.4h.06a5.34,5.34,0,0,1,4.8-2.73c2,0,5.13,1.2,5.13,6.18v8.67h-2.64v-8.37c0-2.34-.87-4.29-3.36-4.29a3.75,3.75,0,0,0-3.54,2.7,3.8,3.8,0,0,0-.18,1.23v8.73h-2.64Z"/><path class="cls-31" d="M533.74,297.26v12.81c0,1.29,0,2.76.12,3.75h-2.37l-.12-2.52h-.06a5.37,5.37,0,0,1-4.95,2.85c-3.51,0-6.21-3-6.21-7.38,0-4.83,3-7.8,6.51-7.8a4.85,4.85,0,0,1,4.38,2.22h.06v-3.93h-5.91v-1.65h5.91v-3.09h2.64v3.09h2.31v1.65Zm-2.64,7.95a4.66,4.66,0,0,0-.12-1.11,3.88,3.88,0,0,0-3.81-3.06c-2.73,0-4.35,2.4-4.35,5.61,0,2.94,1.44,5.37,4.29,5.37a4,4,0,0,0,3.87-3.15,4.59,4.59,0,0,0,.12-1.14Z"/><path class="cls-31" d="M552.61,296.06a4.52,4.52,0,0,1,.54,2.16,2.47,2.47,0,0,1-2.55,2.52l-.33,0v9.09c0,1.5,0,2.82.12,4h-2.34l-.15-2.37h-.06a5.46,5.46,0,0,1-4.8,2.7c-2.28,0-5-1.26-5-6.36V299.3h2.64v8c0,2.76.84,4.62,3.24,4.62a3.82,3.82,0,0,0,3.48-2.4,3.86,3.86,0,0,0,.24-1.35V299.3h2.07c1,0,1.41-.42,1.41-1.17a3.75,3.75,0,0,0-.51-1.74Z"/><path class="cls-31" d="M568.57,296.84a5,5,0,0,1,.51,2.19,2.41,2.41,0,0,1-2.79,2.61,7.58,7.58,0,0,1,1.5,4.8c0,5.37-3.72,7.71-7.23,7.71-3.93,0-7-2.88-7-7.47,0-4.86,3.18-7.71,7.2-7.71a7.61,7.61,0,0,1,2.49.42,9.07,9.07,0,0,0,2.55.78A1.08,1.08,0,0,0,567,299a3.79,3.79,0,0,0-.48-1.77Zm-12.3,9.75c0,3.18,1.83,5.58,4.41,5.58s4.41-2.37,4.41-5.64c0-2.46-1.23-5.58-4.35-5.58S556.27,303.83,556.27,306.59Zm5.94,11.16a1.51,1.51,0,0,1-1.53,1.56,1.55,1.55,0,0,1,.06-3.09A1.51,1.51,0,0,1,562.21,317.75Z"/><path class="cls-31" d="M581.59,313.28a9.72,9.72,0,0,1-4.17.84c-4.38,0-7.23-3-7.23-7.41A7.38,7.38,0,0,1,578,299a8.82,8.82,0,0,1,3.66.75l-.6,2a6.12,6.12,0,0,0-3.06-.69c-3.33,0-5.13,2.46-5.13,5.49,0,3.36,2.16,5.43,5,5.43a7.5,7.5,0,0,0,3.24-.72Z"/><path class="cls-31" d="M598.39,304c0-1.86-.06-3.36-.12-4.74h2.37l.12,2.49h.06A5.71,5.71,0,0,1,606,299c3.51,0,6.15,3,6.15,7.38,0,5.22-3.18,7.8-6.6,7.8a5.09,5.09,0,0,1-4.47-2.28H601v7.89h-2.61Zm2.61,3.87a5.94,5.94,0,0,0,.12,1.08,4.07,4.07,0,0,0,4,3.09c2.79,0,4.41-2.28,4.41-5.61,0-2.91-1.53-5.4-4.32-5.4a4.21,4.21,0,0,0-4,3.27,4.28,4.28,0,0,0-.18,1.08Z"/><path class="cls-31" d="M615.46,292.52h2.64v9.06h.06a4.9,4.9,0,0,1,1.89-1.86,5.43,5.43,0,0,1,2.7-.75c2,0,5.07,1.2,5.07,6.21v8.64h-2.64v-8.34c0-2.34-.87-4.32-3.36-4.32a3.79,3.79,0,0,0-3.54,2.64,3.2,3.2,0,0,0-.18,1.26v8.76h-2.64Z"/><path class="cls-31" d="M640.15,313.82l-.21-1.83h-.09a5.41,5.41,0,0,1-4.44,2.16A4.14,4.14,0,0,1,631,310c0-3.51,3.12-5.43,8.73-5.4v-.3c0-1.2-.33-3.36-3.3-3.36a7.23,7.23,0,0,0-3.78,1.08l-.6-1.74a9,9,0,0,1,4.77-1.29c4.44,0,5.52,3,5.52,5.94v5.43a20.44,20.44,0,0,0,.24,3.48ZM637.87,293l2.58,4.29h-2l-1.53-2.82h-.06l-1.53,2.82H633.4l2.52-4.29Zm1.89,13.38c-2.88-.06-6.15.45-6.15,3.27a2.34,2.34,0,0,0,2.49,2.52,3.61,3.61,0,0,0,3.51-2.43,2.76,2.76,0,0,0,.15-.84Zm.72-15.84,1.92,4h-1.53l-2.79-4Z"/><path class="cls-31" d="M646.57,303.23c0-1.5,0-2.73-.12-3.93h2.34l.15,2.4H649a5.34,5.34,0,0,1,4.8-2.73c2,0,5.13,1.2,5.13,6.18v8.67h-2.64v-8.37c0-2.34-.88-4.29-3.36-4.29a3.75,3.75,0,0,0-3.54,2.7,3.8,3.8,0,0,0-.18,1.23v8.73h-2.64Z"/><path class="cls-31" d="M86.73,331.13v4.17h3.78v2H86.73v7.83c0,1.8.51,2.82,2,2.82a5.87,5.87,0,0,0,1.53-.18l.12,2a6.46,6.46,0,0,1-2.34.36A3.66,3.66,0,0,1,85.17,349c-.75-.78-1-2.07-1-3.78v-7.92H81.9v-2h2.25v-3.48Z"/><path class="cls-31" d="M93.48,328.52h2.64v9.06h.06a4.9,4.9,0,0,1,1.89-1.86,5.43,5.43,0,0,1,2.7-.75c2,0,5.07,1.2,5.07,6.21v8.64H103.2v-8.34c0-2.34-.87-4.32-3.36-4.32a3.79,3.79,0,0,0-3.54,2.64,3.2,3.2,0,0,0-.18,1.26v8.76H93.48Z"/><path class="cls-31" d="M124.62,332.06a4.52,4.52,0,0,1,.54,2.16,2.47,2.47,0,0,1-2.55,2.52l-.33,0v9.09c0,1.5,0,2.82.12,4h-2.34l-.15-2.37h-.06a5.46,5.46,0,0,1-4.8,2.7c-2.28,0-5-1.26-5-6.36V335.3h2.64v8c0,2.76.84,4.62,3.24,4.62a3.82,3.82,0,0,0,3.48-2.4,3.86,3.86,0,0,0,.24-1.35V335.3h2.07c1.05,0,1.41-.42,1.41-1.17a3.75,3.75,0,0,0-.51-1.74Z"/><path class="cls-31" d="M140.58,332.84a5,5,0,0,1,.51,2.19,2.41,2.41,0,0,1-2.79,2.61,7.58,7.58,0,0,1,1.5,4.8c0,5.37-3.72,7.71-7.23,7.71-3.93,0-7-2.88-7-7.47,0-4.86,3.18-7.71,7.2-7.71a7.61,7.61,0,0,1,2.49.42,9.07,9.07,0,0,0,2.55.78,1.08,1.08,0,0,0,1.2-1.2,3.79,3.79,0,0,0-.48-1.77Zm-12.3,9.75c0,3.18,1.83,5.58,4.41,5.58s4.41-2.37,4.41-5.64c0-2.46-1.23-5.58-4.35-5.58S128.28,339.83,128.28,342.59Zm3.42-9c.36-1.32,1.71-1.71,1.71-2.82a1,1,0,0,0-1-1,1.8,1.8,0,0,0-1.44,1l-1-.6a3.14,3.14,0,0,1,2.91-2,2.35,2.35,0,0,1,2.55,2.25c0,1.68-1.59,2.16-2.28,3.51Z"/><path class="cls-31" d="M143.25,339.23c0-1.5,0-2.73-.12-3.93h2.34l.15,2.4h.06a5.34,5.34,0,0,1,4.8-2.73c2,0,5.13,1.2,5.13,6.18v8.67H153v-8.37c0-2.34-.87-4.29-3.36-4.29a3.75,3.75,0,0,0-3.54,2.7,3.8,3.8,0,0,0-.18,1.23v8.73h-2.64Z"/><path class="cls-31" d="M172.41,335.3c-.06,1.05-.12,2.22-.12,4v8.43c0,3.33-.66,5.37-2.07,6.63a7.7,7.7,0,0,1-5.28,1.74,9.37,9.37,0,0,1-4.83-1.2l.66-2A8.19,8.19,0,0,0,165,354c2.7,0,4.68-1.41,4.68-5.07v-1.62h-.06a5.18,5.18,0,0,1-4.62,2.43c-3.6,0-6.18-3.06-6.18-7.08,0-4.92,3.21-7.71,6.54-7.71a4.83,4.83,0,0,1,4.53,2.52H170l.12-2.19ZM169.68,341a3.76,3.76,0,0,0-.15-1.2,3.8,3.8,0,0,0-3.69-2.79c-2.52,0-4.32,2.13-4.32,5.49,0,2.85,1.44,5.22,4.29,5.22a3.86,3.86,0,0,0,3.66-2.7,4.59,4.59,0,0,0,.21-1.41Z"/><path class="cls-31" d="M182.91,349.82c.06-1,.12-2.46.12-3.75V328.52h2.61v9.12h.06a5.41,5.41,0,0,1,5-2.67c3.6,0,6.15,3,6.12,7.41,0,5.19-3.27,7.77-6.51,7.77a5.17,5.17,0,0,1-4.86-2.73h-.09l-.12,2.4Zm2.73-5.82a4.94,4.94,0,0,0,.12,1,4.07,4.07,0,0,0,4,3.09c2.76,0,4.41-2.25,4.41-5.58,0-2.91-1.5-5.4-4.32-5.4a4.21,4.21,0,0,0-4,3.24,5.2,5.2,0,0,0-.15,1.08Z"/><path class="cls-31" d="M208.14,349.82l-.22-1.83h-.09a5.37,5.37,0,0,1-4.43,2.16A4.14,4.14,0,0,1,199,346c0-3.51,3.12-5.43,8.73-5.4v-.3c0-1.2-.33-3.36-3.3-3.36a7.23,7.23,0,0,0-3.78,1.08l-.6-1.74a9,9,0,0,1,4.77-1.29c4.44,0,5.52,3,5.52,5.94v5.43a21.6,21.6,0,0,0,.23,3.48ZM205.89,329l2.58,4.29h-2L205,330.5h-.09l-1.54,2.82h-1.92l2.53-4.29Zm1.85,13.38c-2.87-.06-6.14.45-6.14,3.27a2.33,2.33,0,0,0,2.48,2.52,3.6,3.6,0,0,0,3.51-2.43,2.48,2.48,0,0,0,.15-.84Zm4.42-15.84-3,4h-1.53l2.07-4Z"/><path class="cls-31" d="M217.62,331.13v4.17h3.78v2h-3.78v7.83c0,1.8.51,2.82,2,2.82a6,6,0,0,0,1.54-.18l.11,2a6.4,6.4,0,0,1-2.33.36,3.64,3.64,0,0,1-2.85-1.11c-.75-.78-1-2.07-1-3.78v-7.92h-2.25v-2H215v-3.48Z"/><path class="cls-31" d="M230.73,339.23c0-1.5,0-2.73-.13-3.93h2.34l.15,2.4h.07A5.31,5.31,0,0,1,238,335c2,0,5.13,1.2,5.13,6.18v8.67h-2.64v-8.37c0-2.34-.86-4.29-3.36-4.29a3.75,3.75,0,0,0-3.54,2.7,3.8,3.8,0,0,0-.18,1.23v8.73h-2.63Z"/><path class="cls-31" d="M259.88,335.3c-.05,1.05-.12,2.22-.12,4v8.43c0,3.33-.66,5.37-2.07,6.63a7.7,7.7,0,0,1-5.28,1.74,9.37,9.37,0,0,1-4.83-1.2l.66-2A8.19,8.19,0,0,0,252.5,354c2.7,0,4.68-1.41,4.68-5.07v-1.62h-.06a5.18,5.18,0,0,1-4.62,2.43c-3.59,0-6.17-3.06-6.17-7.08,0-4.92,3.2-7.71,6.53-7.71a4.83,4.83,0,0,1,4.53,2.52h.06l.13-2.19ZM257.16,341a3.75,3.75,0,0,0-.16-1.2,3.79,3.79,0,0,0-3.68-2.79c-2.53,0-4.33,2.13-4.33,5.49,0,2.85,1.44,5.22,4.29,5.22a3.85,3.85,0,0,0,3.66-2.7,4.61,4.61,0,0,0,.22-1.41Z"/><path class="cls-31" d="M278.06,332.84a5,5,0,0,1,.51,2.19,2.41,2.41,0,0,1-2.79,2.61,7.58,7.58,0,0,1,1.5,4.8c0,5.37-3.72,7.71-7.23,7.71-3.93,0-7-2.88-7-7.47,0-4.86,3.18-7.71,7.2-7.71a7.61,7.61,0,0,1,2.49.42,9.07,9.07,0,0,0,2.55.78,1.08,1.08,0,0,0,1.2-1.2,3.79,3.79,0,0,0-.48-1.77Zm-12.3,9.75c0,3.18,1.83,5.58,4.41,5.58s4.41-2.37,4.41-5.64c0-2.46-1.23-5.58-4.35-5.58S265.76,339.83,265.76,342.59ZM269.24,329l2.64,4.29H270L266.36,329Z"/><path class="cls-31" d="M290.27,331.13v4.17h3.78v2h-3.78v7.83c0,1.8.51,2.82,2,2.82a5.87,5.87,0,0,0,1.53-.18l.12,2a6.46,6.46,0,0,1-2.34.36,3.66,3.66,0,0,1-2.85-1.11c-.75-.78-1-2.07-1-3.78v-7.92h-2.25v-2h2.25v-3.48Z"/><path class="cls-31" d="M311.51,332.06a4.52,4.52,0,0,1,.54,2.16,2.47,2.47,0,0,1-2.55,2.52l-.33,0v9.09c0,1.5,0,2.82.12,4H307l-.15-2.37h-.06a5.46,5.46,0,0,1-4.8,2.7c-2.28,0-5-1.26-5-6.36V335.3h2.64v8c0,2.76.84,4.62,3.24,4.62a3.82,3.82,0,0,0,3.48-2.4,3.86,3.86,0,0,0,.24-1.35V335.3h2.07c1,0,1.41-.42,1.41-1.17a3.75,3.75,0,0,0-.51-1.74Zm-9.42-3,2.64,4.29h-1.86L299.21,329Z"/><path class="cls-31" d="M323.27,343.46l-2.1,6.36h-2.7l6.87-20.22h3.15l6.9,20.22H332.6l-2.16-6.36Zm6.63-2-2-5.82c-.45-1.32-.75-2.52-1.05-3.69h-.06c-.3,1.2-.63,2.43-1,3.66l-2,5.85Z"/><path class="cls-31" d="M334.61,354a4.27,4.27,0,0,0,2.88-1.11c.72-.84,1-2,1-5.46V335.3h2.64v13.17c0,2.82-.45,4.65-1.74,6a6.7,6.7,0,0,1-4.5,1.65Zm6.81-22.8a1.55,1.55,0,0,1-1.65,1.62,1.58,1.58,0,0,1-1.62-1.62,1.62,1.62,0,0,1,1.68-1.65A1.56,1.56,0,0,1,341.42,331.22Z"/><path class="cls-31" d="M348.38,331.22a1.64,1.64,0,0,1-3.27,0,1.61,1.61,0,0,1,1.65-1.65A1.57,1.57,0,0,1,348.38,331.22Zm-2.94,18.6V335.3h2.64v14.52Z"/><path class="cls-31" d="M352.46,339.23c0-1.5,0-2.73-.12-3.93h2.34l.15,2.4h.06a5.34,5.34,0,0,1,4.8-2.73c2,0,5.13,1.2,5.13,6.18v8.67h-2.64v-8.37c0-2.34-.87-4.29-3.36-4.29a3.75,3.75,0,0,0-3.54,2.7,3.8,3.8,0,0,0-.18,1.23v8.73h-2.64Z"/><path class="cls-31" d="M382.25,342.44c0,5.37-3.72,7.71-7.23,7.71-3.93,0-7-2.88-7-7.47,0-4.86,3.18-7.71,7.2-7.71C379.43,335,382.25,338,382.25,342.44Zm-11.52.15c0,3.18,1.83,5.58,4.41,5.58s4.41-2.37,4.41-5.64c0-2.46-1.23-5.58-4.35-5.58S370.73,339.83,370.73,342.59Z"/><path class="cls-31" d="M385.58,339.23c0-1.5,0-2.73-.12-3.93h2.31l.12,2.34H388a5,5,0,0,1,4.56-2.67,4.29,4.29,0,0,1,4.11,2.91h.06a6,6,0,0,1,1.62-1.89,5,5,0,0,1,3.21-1c1.92,0,4.77,1.26,4.77,6.3v8.55h-2.58V341.6c0-2.79-1-4.47-3.15-4.47a3.42,3.42,0,0,0-3.12,2.4,4.35,4.35,0,0,0-.21,1.32v9h-2.58v-8.7c0-2.31-1-4-3-4a3.93,3.93,0,0,0-3.48,3.93v8.76h-2.58Z"/><path class="cls-31" d="M423.74,342.44c0,5.37-3.72,7.71-7.23,7.71-3.93,0-7-2.88-7-7.47,0-4.86,3.18-7.71,7.2-7.71C420.92,335,423.74,338,423.74,342.44Zm-11.52.15c0,3.18,1.83,5.58,4.41,5.58s4.41-2.37,4.41-5.64c0-2.46-1.23-5.58-4.35-5.58S412.22,339.83,412.22,342.59Z"/><path class="cls-31" d="M430.25,331.13v4.17H434v2h-3.78v7.83c0,1.8.51,2.82,2,2.82a5.87,5.87,0,0,0,1.53-.18l.12,2a6.46,6.46,0,0,1-2.34.36,3.66,3.66,0,0,1-2.85-1.11c-.75-.78-1-2.07-1-3.78v-7.92h-2.25v-2h2.25v-3.48Z"/><path class="cls-31" d="M450,342.44c0,5.37-3.72,7.71-7.23,7.71-3.93,0-7-2.88-7-7.47,0-4.86,3.18-7.71,7.2-7.71S450,338,450,342.44Zm-11.52.15c0,3.18,1.83,5.58,4.41,5.58s4.41-2.37,4.41-5.64c0-2.46-1.23-5.58-4.35-5.58S438.44,339.83,438.44,342.59Z"/><path class="cls-31" d="M463.1,349.82l-6.6-20.22h2.82l3.15,10c.87,2.73,1.62,5.19,2.16,7.56h.06c.57-2.34,1.41-4.89,2.31-7.53l3.42-10h2.79L466,349.82Z"/><path class="cls-31" d="M477.77,331.22a1.64,1.64,0,0,1-3.27,0,1.61,1.61,0,0,1,1.65-1.65A1.57,1.57,0,0,1,477.77,331.22Zm-2.94,18.6V335.3h2.64v14.52Z"/><path class="cls-31" d="M483.32,343c.06,3.57,2.34,5,5,5a9.55,9.55,0,0,0,4-.75l.45,1.89a11.76,11.76,0,0,1-4.83.9c-4.47,0-7.14-2.94-7.14-7.32s2.58-7.83,6.81-7.83c4.74,0,6,4.17,6,6.84a10,10,0,0,1-.09,1.23Zm7.74-1.89c0-1.68-.69-4.29-3.66-4.29-2.67,0-3.84,2.46-4,4.29Zm-3-12.12,2.88,4.29h-2l-1.74-2.85h-.06l-1.74,2.85h-1.95l2.82-4.29Zm.6,24.72a1.51,1.51,0,0,1-1.53,1.56,1.55,1.55,0,0,1,.06-3.09A1.51,1.51,0,0,1,488.66,353.75Z"/><path class="cls-31" d="M500.06,331.13v4.17h3.78v2h-3.78v7.83c0,1.8.51,2.82,2,2.82a5.87,5.87,0,0,0,1.53-.18l.12,2a6.46,6.46,0,0,1-2.34.36A3.66,3.66,0,0,1,498.5,349c-.75-.78-1-2.07-1-3.78v-7.92h-2.25v-2h2.25v-3.48Z"/><path class="cls-31" d="M513.26,349.82V329.6h2.85l6.48,10.23a57.24,57.24,0,0,1,3.63,6.57l.06,0c-.24-2.7-.3-5.16-.3-8.31V329.6h2.46v20.22H525.8l-6.42-10.26a64.18,64.18,0,0,1-3.78-6.75l-.09,0c.15,2.55.21,5,.21,8.34v8.64Z"/><path class="cls-31" d="M541,349.82l-.21-1.83h-.09a5.41,5.41,0,0,1-4.44,2.16,4.14,4.14,0,0,1-4.44-4.17c0-3.51,3.12-5.43,8.73-5.4v-.3c0-1.2-.33-3.36-3.3-3.36a7.23,7.23,0,0,0-3.78,1.08l-.6-1.74a9,9,0,0,1,4.77-1.29c4.44,0,5.52,3,5.52,5.94v5.43a20.44,20.44,0,0,0,.24,3.48Zm-.39-7.41c-2.88-.06-6.15.45-6.15,3.27a2.34,2.34,0,0,0,2.49,2.52,3.61,3.61,0,0,0,3.51-2.43,2.76,2.76,0,0,0,.15-.84Z"/><path class="cls-31" d="M547.37,339.23c0-1.5,0-2.73-.12-3.93h2.31l.12,2.34h.09a5,5,0,0,1,4.56-2.67,4.29,4.29,0,0,1,4.11,2.91h.06a6,6,0,0,1,1.62-1.89,5,5,0,0,1,3.21-1c1.92,0,4.77,1.26,4.77,6.3v8.55h-2.58V341.6c0-2.79-1-4.47-3.15-4.47a3.42,3.42,0,0,0-3.12,2.4,4.35,4.35,0,0,0-.21,1.32v9h-2.58v-8.7c0-2.31-1-4-3-4a3.93,3.93,0,0,0-3.48,3.93v8.76h-2.58Z"/><path class="cls-31" d="M571.88,348.29a1.76,1.76,0,0,1,1.77-1.86,1.86,1.86,0,0,1,0,3.72A1.76,1.76,0,0,1,571.88,348.29Zm.75-4.29-.42-14.4h2.88l-.42,14.4Z"/><g id="blue_button" class="cls-32"><rect id="shadow" class="cls-33" x="102.93" y="393.36" width="257.68" height="66.57" rx="33.28"/><g id="button"><rect class="cls-34" x="102.93" y="390.62" width="257.68" height="66.57" rx="33.28"/><rect class="cls-35" x="102.93" y="387.21" width="257.68" height="66.57" rx="33.28"/><path class="cls-36" d="M311.08,390.62c24.52,0,44.46,13.4,44.46,29.87s-19.94,29.88-44.46,29.88H152.46C128,450.37,108,437,108,420.49s20-29.87,44.46-29.87H311.08m0-3.41H152.46c-27.35,0-49.53,14.9-49.53,33.28h0c0,18.39,22.18,33.29,49.53,33.29H311.08c27.35,0,49.53-14.9,49.53-33.29h0c0-18.38-22.18-33.28-49.53-33.28Z"/><g class="cls-37"><rect class="cls-38" x="173.74" y="387.21" width="116.05" height="3.41"/></g><g class="cls-39"><rect class="cls-40" x="155.67" y="450.37" width="152.2" height="3.41"/></g></g></g><text class="cls-41" transform="translate(173.74 432.65)">CHƠI <tspan class="cls-42" x="74.64" y="0">L</tspan><tspan x="90.15" y="0">ẠI</tspan></text><path class="cls-31" d="M190.57,432.07a13,13,0,0,1-5.19.87c-7,0-10.59-4.34-10.59-10.1,0-6.9,4.92-10.74,11-10.74a11.92,11.92,0,0,1,5,.9l-.93,3.63a9.87,9.87,0,0,0-3.84-.75c-3.63,0-6.45,2.19-6.45,6.69,0,4.05,2.4,6.6,6.49,6.6a11.67,11.67,0,0,0,3.8-.66Z"/><path class="cls-31" d="M198.16,412.43v7.77h7.53v-7.77h4.56v20.22h-4.56v-8.46h-7.53v8.46h-4.58V412.43Z"/><path class="cls-31" d="M233.5,409.79a6.77,6.77,0,0,1,.72,3.06,3,3,0,0,1-3.15,3.3,11.44,11.44,0,0,1,1.68,6.18c0,6.63-4,10.65-9.93,10.65s-9.51-4.54-9.51-10.29c0-6.06,3.87-10.59,9.84-10.59a11.81,11.81,0,0,1,3.69.6,11.83,11.83,0,0,0,3,1.05c.75,0,1.11-.39,1.11-1.2a4.47,4.47,0,0,0-.66-2.19Zm-5.58,12.69c0-3.63-1.74-6.75-4.89-6.75s-4.89,3.09-4.89,6.84,1.83,6.78,4.92,6.78S227.92,426.41,227.92,422.48Z"/><path class="cls-31" d="M240.34,412.43v20.22h-4.59V412.43Z"/><path class="cls-31" d="M250.36,412.43H255v16.38h8v3.84H250.36Z"/><path class="cls-31" d="M270.58,427.46l-1.44,5.19H264.4l6.18-20.22h6l6.27,20.22h-4.92l-1.56-5.19Zm5.13-3.42-1.26-4.29c-.36-1.2-.72-2.7-1-3.9h-.06c-.3,1.2-.6,2.73-.93,3.9l-1.2,4.29Zm-.12,13.14a2.06,2.06,0,0,1-2.07,2.1,2.12,2.12,0,1,1,0-4.24A2,2,0,0,1,275.59,437.18Z"/><path class="cls-31" d="M290.14,412.43v20.22h-4.59V412.43Z"/><g id="green_button" class="cls-43"><rect id="shadow-2" data-name="shadow" class="cls-33" x="385.2" y="396.44" width="257.68" height="66.57" rx="33.28"/><g id="button-2" data-name="button"><rect class="cls-44" x="385.2" y="393.69" width="257.68" height="66.57" rx="33.28"/><rect class="cls-45" x="385.2" y="390.29" width="257.68" height="66.57" rx="33.28"/><path class="cls-46" d="M593.35,390.29H434.74c-27.36,0-49.54,14.9-49.54,33.28h0a23.87,23.87,0,0,0,3.25,11.86C395.57,422.91,413.6,414,434.74,414H593.35c21.13,0,39.17,8.9,46.28,21.42a23.87,23.87,0,0,0,3.25-11.86h0C642.88,405.19,620.71,390.29,593.35,390.29Z"/><path class="cls-46" d="M434.74,414H593.35c18.91,0,35.32,7.13,43.67,17.59-8.35-11.9-24.77-20-43.67-20H434.74c-18.9,0-35.32,8.1-43.67,20C399.41,421.14,415.83,414,434.74,414Z"/><path class="cls-47" d="M593.35,393.69c24.52,0,44.46,13.41,44.46,29.88s-19.94,29.88-44.46,29.88H434.74c-24.52,0-44.47-13.41-44.47-29.88s20-29.88,44.47-29.88H593.35m0-3.4H434.74c-27.36,0-49.54,14.9-49.54,33.28h0c0,18.38,22.18,33.28,49.54,33.28H593.35c27.36,0,49.53-14.9,49.53-33.28h0c0-18.38-22.17-33.28-49.53-33.28Z"/><g class="cls-48"><rect class="cls-49" x="456.02" y="390.29" width="116.05" height="3.41"/></g><g class="cls-50"><rect class="cls-51" x="437.94" y="453.45" width="152.2" height="3.41"/></g><ellipse class="cls-52" cx="422.29" cy="398.81" rx="7.25" ry="2.02" transform="translate(-64.67 82.19) rotate(-10.33)"/><ellipse class="cls-52" cx="411.25" cy="402.29" rx="2.9" ry="1.95"/><ellipse class="cls-52" cx="605.2" cy="398.81" rx="2.9" ry="1.95"/><path class="cls-52" d="M615.39,400.76c0,.75-.91,1.36-2,1.36s-2-.61-2-1.36.9-1.36,2-1.36S615.39,400,615.39,400.76Z"/></g></g><text class="cls-41" transform="translate(469.06 434.6)">BỎ Q<tspan class="cls-53" x="67.2" y="0">U</tspan><tspan class="cls-54" x="86.76" y="0">A</tspan></text><path class="cls-31" d="M471,415.48a36.43,36.43,0,0,1,5.91-.42c2.79,0,4.5.27,6,1.14a4.4,4.4,0,0,1,2.43,4,4.57,4.57,0,0,1-3.33,4.32v.06a5.06,5.06,0,0,1,4,5,5.39,5.39,0,0,1-2.1,4.29c-1.47,1.17-3.93,1.83-7.95,1.83a35.38,35.38,0,0,1-4.95-.3Zm4.53,7.74h1.5c2.4,0,3.69-1,3.69-2.49s-1.17-2.34-3.24-2.34a12.49,12.49,0,0,0-1.95.12Zm0,9a14.43,14.43,0,0,0,1.77.06c2.07,0,3.9-.78,3.9-2.91s-1.83-2.85-4.11-2.85h-1.56Z"/><path class="cls-31" d="M507.67,425.11c0,6.63-4,10.65-9.93,10.65s-9.51-4.53-9.51-10.29c0-6.06,3.87-10.59,9.84-10.59C504.28,414.88,507.67,419.53,507.67,425.11Zm-14.61.27c0,4,1.86,6.75,4.92,6.75s4.86-2.94,4.86-6.87c0-3.63-1.74-6.75-4.89-6.75S493.06,421.45,493.06,425.38Zm3.84-11.58c.45-1.35,1.47-1.59,1.47-2.58a.87.87,0,0,0-.9-.9c-.57,0-1.05.6-1.35,1l-1.44-.87a3.92,3.92,0,0,1,3.66-2.37,2.77,2.77,0,0,1,2.94,2.55c0,1.77-1.47,2.1-2.28,3.6Z"/><path class="cls-31" d="M534,438.91a69.83,69.83,0,0,1-8-2.85,4.56,4.56,0,0,0-1.41-.3c-4.56-.3-8.82-3.66-8.82-10.26,0-6.06,3.84-10.62,9.87-10.62,6.18,0,9.57,4.68,9.57,10.2,0,4.59-2.13,7.83-4.8,9v.12c1.56.45,3.3.81,4.89,1.14Zm-3.6-13.65c0-3.69-1.74-6.75-4.86-6.75s-4.92,3.06-4.92,6.84,1.83,6.78,4.89,6.78S530.41,429.22,530.41,425.26Z"/><path class="cls-31" d="M542.8,415.21v11.64c0,3.48,1.32,5.25,3.66,5.25s3.72-1.68,3.72-5.25V415.21h4.56v11.34c0,6.24-3.15,9.21-8.43,9.21-5.1,0-8.1-2.82-8.1-9.27V415.21Z"/><path class="cls-31" d="M562.51,430.24l-1.44,5.19h-4.74l6.18-20.22h6l6.27,20.22h-4.92l-1.56-5.19Zm5.13-3.42-1.26-4.29c-.36-1.2-.72-2.7-1-3.9h-.06c-.3,1.2-.6,2.73-.93,3.9l-1.2,4.29Z"/></g></g></g></svg>