<svg xmlns="http://www.w3.org/2000/svg" xmlns:xlink="http://www.w3.org/1999/xlink" viewBox="0 0 302.78 174.19"><defs><style>.cls-1{isolation:isolate;}.cls-2{fill:#b8725c;}.cls-3,.cls-4{opacity:0.51;mix-blend-mode:screen;}.cls-3{fill:url(#Degradado_sin_nombre_28);}.cls-4{fill:url(#Degradado_sin_nombre_28-2);}.cls-5{fill:#9e5f4d;}.cls-6{fill:#fce385;}.cls-15,.cls-7{opacity:0.64;}.cls-7{fill:url(#linear-gradient);}.cls-8{fill:#ec2227;}.cls-9{opacity:0.31;}.cls-10{fill:url(#Degradado_sin_nombre_9);}.cls-11{fill:url(#Degradado_sin_nombre_9-2);}.cls-12{fill:url(#Degradado_sin_nombre_9-3);}.cls-13{fill:#fff;opacity:0.14;}.cls-14{font-size:31.37px;fill:#f7f5f6;stroke:#fff;stroke-linecap:round;stroke-linejoin:round;stroke-width:7px;font-family:iCielSoupofJustice, iCiel Soup of Justice;}.cls-16{fill:#7a481d;}</style><linearGradient id="Degradado_sin_nombre_28" x1="341.24" y1="815.48" x2="457.41" y2="614.25" gradientTransform="matrix(0, 1, 1, 0, -633.94, -349.96)" gradientUnits="userSpaceOnUse"><stop offset="0" stop-color="#d08e64"/><stop offset="0.06" stop-color="#d08e64" stop-opacity="0.93"/><stop offset="0.53" stop-color="#d08e64" stop-opacity="0.44"/><stop offset="0.85" stop-color="#d08e64" stop-opacity="0.12"/><stop offset="1" stop-color="#d08e64" stop-opacity="0"/></linearGradient><linearGradient id="Degradado_sin_nombre_28-2" x1="-4489.75" y1="829.57" x2="-4413.04" y2="696.7" gradientTransform="translate(-711.94 -4315.91) rotate(-90)" xlink:href="#Degradado_sin_nombre_28"/><linearGradient id="linear-gradient" x1="13.88" y1="88.29" x2="289.94" y2="88.29" gradientUnits="userSpaceOnUse"><stop offset="0" stop-color="#f3eded"/><stop offset="0.18" stop-color="#ecdad2" stop-opacity="0.8"/><stop offset="0.59" stop-color="#ddb297" stop-opacity="0.37"/><stop offset="0.87" stop-color="#d49872" stop-opacity="0.1"/><stop offset="1" stop-color="#d08e64" stop-opacity="0"/></linearGradient><linearGradient id="Degradado_sin_nombre_9" x1="154.8" y1="4.57" x2="154.8" y2="49.62" gradientUnits="userSpaceOnUse"><stop offset="0" stop-color="#fff"/><stop offset="0.08" stop-color="#fff" stop-opacity="0.76"/><stop offset="0.22" stop-color="#fff" stop-opacity="0.36"/><stop offset="0.31" stop-color="#fff" stop-opacity="0.1"/><stop offset="0.36" stop-color="#fff" stop-opacity="0"/></linearGradient><linearGradient id="Degradado_sin_nombre_9-2" x1="255.73" y1="7.68" x2="255.73" y2="7.85" xlink:href="#Degradado_sin_nombre_9"/><linearGradient id="Degradado_sin_nombre_9-3" x1="53.87" y1="7.68" x2="53.87" y2="7.85" xlink:href="#Degradado_sin_nombre_9"/></defs><title>time</title><g class="cls-1"><g id="Layer_2" data-name="Layer 2"><g id="Layer_1-2" data-name="Layer 1"><path class="cls-2" d="M0,145.62V30.79C0,19.52,11.85,10.38,26.46,10.38l1.25-.14a1088.31,1088.31,0,0,1,247.35,0l1.25.14c14.62,0,26.47,9.14,26.47,20.41V148.15c0,9.91-10.44,19-23.2,20.12l-3.27.29a1388.19,1388.19,0,0,1-249.85,0h0C11.91,167.24,0,156.92,0,145.62Z"/><path class="cls-3" d="M0,141.55S182.05,118.43,188.79,3.83c0,0-77.08-3.59-162.07,6.51,0,0-19.87-1.62-26,21.12A61.18,61.18,0,0,0,0,42Z"/><path class="cls-4" d="M0,70.74s101.51,16,124.38,82.9c3.54,10.38-7.17,20.38-21.06,19.79-22.52-1-55.23-2.3-76.6-5.05,0,0-16.92.69-26-16.61A33.57,33.57,0,0,1,0,144Z"/><path class="cls-5" d="M7.12,142.94V33.51c0-10.74,11.3-19.44,25.22-19.44l1.19-.14a1038,1038,0,0,1,235.71,0l1.19.14c13.93,0,25.22,8.7,25.22,19.44V145.35c0,9.45-9.95,18.07-22.11,19.17l-3.11.28a1322.21,1322.21,0,0,1-238.09,0h0C18.47,163.55,7.12,153.71,7.12,142.94Z"/><path class="cls-6" d="M13.36,140.6V35.9c0-10.28,10.8-18.61,24.13-18.61l1.14-.13a992.31,992.31,0,0,1,225.52,0l1.14.13c13.33,0,24.13,8.33,24.13,18.61v107c0,9-9.52,17.28-21.16,18.33l-3,.27a1265.17,1265.17,0,0,1-227.8,0h0C24.22,160.31,13.36,150.9,13.36,140.6Z"/><path class="cls-7" d="M13.88,140.19V35.5c0-10.28,10.8-18.61,24.13-18.61l1.14-.13a992.31,992.31,0,0,1,225.52,0l1.14.13c13.33,0,24.13,8.33,24.13,18.61v107c0,9-9.52,17.29-21.15,18.34l-3,.27a1265.17,1265.17,0,0,1-227.8,0h0C24.74,159.91,13.88,150.5,13.88,140.19Z"/><path class="cls-8" d="M246.44,4.6H63.16a12.21,12.21,0,0,0-4.69.61l-.12,0h.09A13.64,13.64,0,0,0,54,7.68c.91-.69,4.63-3.25,8.79-2.09A6.64,6.64,0,0,1,66.25,8c2.84,3.63,6.81,10.57,9,22.57,2,11,12.44,19,24.74,19H209.63c12.24,0,22.76-8,24.71-18.9,2.28-12.74,6.59-19.81,9.45-23.28a5.45,5.45,0,0,1,2.12-1.6h0l.87-.23C251,4.4,254.71,7,255.63,7.68A13.18,13.18,0,0,0,246.44,4.6Z"/><path class="cls-8" d="M255.63,7.68l.21.17Z"/><path class="cls-8" d="M54,7.68l-.21.17Z"/><g class="cls-9"><path class="cls-10" d="M246.44,4.6H63.16a12.21,12.21,0,0,0-4.69.61l-.12,0h.09A13.64,13.64,0,0,0,54,7.68c.91-.69,4.63-3.25,8.79-2.09A6.64,6.64,0,0,1,66.25,8c2.84,3.63,6.81,10.57,9,22.57,2,11,12.44,19,24.74,19H209.63c12.24,0,22.76-8,24.71-18.9,2.28-12.74,6.59-19.81,9.45-23.28a5.45,5.45,0,0,1,2.12-1.6h0l.87-.23C251,4.4,254.71,7,255.63,7.68A13.18,13.18,0,0,0,246.44,4.6Z"/><path class="cls-11" d="M255.63,7.68l.21.17Z"/><path class="cls-12" d="M54,7.68l-.21.17Z"/></g><path class="cls-13" d="M83.35,5.79s-5.24,0-6.56,3.55S89.9,15.27,92.53,12.9,92.53,5.79,83.35,5.79Z"/><path class="cls-13" d="M146,8.59a46.44,46.44,0,0,0-17.42-2.67c-8.45.26-21.63,1-24.26,3.42-3.94,3.56,6.6,17.91,40.64,8.29C157,14.25,152.24,10.87,146,8.59Z"/><text class="cls-14" transform="translate(88.62 35.2)">thời gian</text><g class="cls-15"><path class="cls-16" d="M101.06,19.49l-2.61.15.1,15.47H91.61l1-15.12-4.15.22.16-4.58L100.93,15Z"/><path class="cls-16" d="M113.17,15.85l6,.53.78,18.76-6.78.16.13-7.63h-3.11l-.34,7.53-6.31-.09,1.07-19.45,5.65.5-.07,7,3,0Z"/><path class="cls-16" d="M140.52,19.58a16.9,16.9,0,0,1,.82,2.82,15.43,15.43,0,0,1-.47,7.28,7,7,0,0,1-2,3.33c-.59.53-1,.78-1.25.78-2.36.88-3.58,1.32-3.67,1.35a14.41,14.41,0,0,1-6.21-.38,7.86,7.86,0,0,1-5.56-5,13.23,13.23,0,0,1-1-3.93,10.45,10.45,0,0,1,.19-3.76,7.74,7.74,0,0,1,4.8-5.65c3.6-1.6,6.74-1.91,9.41-1a8.24,8.24,0,0,1,1.69.82.88.88,0,0,0,.32,0c.47-.12.75-.34.78-.62a2.55,2.55,0,0,0-.75-1.63l2.07-2c.34,0,.72.41,1.16,1.31a5.47,5.47,0,0,1,.53,3.05,3.25,3.25,0,0,1-1.54,2.32C140.11,18.92,140.3,19.24,140.52,19.58Zm-6.59-8.38-1.38,2.45-6.3-3.23L127.53,7Zm-5.8,14.56a3.41,3.41,0,0,0,1.76,2.92,5.47,5.47,0,0,0,3,0,3.71,3.71,0,0,0,2.29-1.51,6,6,0,0,0,.28-3.54,2.58,2.58,0,0,0-1.66-2.29,5.2,5.2,0,0,0-3.07.06,3.57,3.57,0,0,0-2,1.48A4,4,0,0,0,128.13,25.76Z"/><path class="cls-16" d="M149.78,35.11h-6.94l1.13-19,5.71-.35Z"/><path class="cls-16" d="M175.34,32.57A12.49,12.49,0,0,1,165,34.76a7.93,7.93,0,0,1-5.58-4.83,12.24,12.24,0,0,1-1-3.76,17.17,17.17,0,0,1,.57-5.18,10.64,10.64,0,0,1,4.48-5.42,12,12,0,0,1,7.81-.44,13,13,0,0,1,3.33,1.38l-1.76,5.8a5.25,5.25,0,0,0-1.38-.82A4.69,4.69,0,0,0,168,21.4a3.93,3.93,0,0,0-2,1.54,4,4,0,0,0-.75,2.92c.38,2.54,1.66,3.48,3.89,2.85l-.31-3.07c.15,0,.43-.07.81-.16l4.55-.85Z"/><path class="cls-16" d="M183.85,35.11h-6.94l1.13-19,5.71-.35Z"/><path class="cls-16" d="M185.48,34.8l4.83-18.92,8.53-.13,4.58,19.08-6,.56-.75-3.76h-4.4l-.72,3.76Zm10.1-8.13-1.23-5.87-1,6Z"/><path class="cls-16" d="M214.34,15.85l6,.53.78,18.76-6.77.16-3.58-9.1.25,9-6.31-.09,1.07-19.45,5.65.5,3.2,8.06Z"/></g></g></g></g></svg>