<svg xmlns="http://www.w3.org/2000/svg" xmlns:xlink="http://www.w3.org/1999/xlink" viewBox="0 0 175.56 170.5"><defs><style>.cls-1{isolation:isolate;}.cls-2{fill:#f4af81;}.cls-3{mix-blend-mode:multiply;}.cls-4{fill:#f5d6bf;}.cls-5{mix-blend-mode:screen;}.cls-6{fill:#fff;opacity:0.3;}.cls-7{fill:url(#linear-gradient);}.cls-8{fill:url(#linear-gradient-2);}</style><linearGradient id="linear-gradient" x1="16.66" y1="588.73" x2="51.71" y2="623.78" gradientTransform="matrix(1, 0, 0, 1, 80.44, -499.66)" gradientUnits="userSpaceOnUse"><stop offset="0" stop-color="#f68b26"/><stop offset="0.43" stop-color="#ec7726"/><stop offset="1" stop-color="#dc5526"/></linearGradient><linearGradient id="linear-gradient-2" x1="93.44" y1="244.62" x2="140.12" y2="291.3" gradientTransform="translate(-31.89 -109.52) rotate(-11.22)" gradientUnits="userSpaceOnUse"><stop offset="0" stop-color="#5ec3ab"/><stop offset="0.11" stop-color="#59c2a7"/><stop offset="0.62" stop-color="#48bd97"/><stop offset="1" stop-color="#42bb91"/></linearGradient></defs><title>handclick</title><g class="cls-1"><g id="Layer_2" data-name="Layer 2"><g id="Layer_1-2" data-name="Layer 1"><path class="cls-2" d="M98.36,120.7s-1.48-7.49-16.7-9.12S43.41,94.65,43.41,94.65,33.2,80.54,18.72,74.47C12.25,71.76,9.36,66,13.48,60.65s16.59,1.81,34,12.07c0,0,2.82,1.09-4.29-7.32S4.37,16.55,4.37,16.55s-8.76-9-1.47-14.76C9.54-3.45,13.54,4.13,16.55,8S42.78,41.13,42.78,41.13s2.24.53,1.79-1.41L30.64,22s-4.81-5.57-.13-9.36c5.53-4.5,8.55-1,10.45,1.46L55,31.94s2.57,1.09,2-1.55L44.63,14.72S41.38,10.9,46.36,7,54.2,7,54.2,7L66.92,23.18s1.71.92,1.66-1.32L60,10.92s-2.39-3.66,2.55-7.34,7.86.17,7.86.17L120,66.88s7.43,8.69,5,14.93,6.24,13,6.24,13Z"/><g class="cls-3"><path class="cls-4" d="M124.93,75.6a7.79,7.79,0,0,1-.45,3.59,7.14,7.14,0,0,0,.1,5.07,6.55,6.55,0,0,1,.42-2.45A9.45,9.45,0,0,0,124.93,75.6Z"/><path class="cls-4" d="M97.84,118.08s-1.48-7.49-16.7-9.13S42.89,92,42.89,92,32.68,77.92,18.2,71.85A11.81,11.81,0,0,1,11.63,66c.1,3.5,2.76,6.7,7.09,8.51C33.2,80.54,43.41,94.65,43.41,94.65s23,15.3,38.25,16.93,16.7,9.12,16.7,9.12l32.88-25.85a23,23,0,0,1-1.8-1.62Z"/></g><g class="cls-5"><path class="cls-6" d="M57,30.39c.29,1.26-.15,1.65-.67,1.74l1.6,2s2.57,1.09,2-1.55L47.53,17s-3.25-3.83,1.73-7.75c2.32-1.82,4.15-1.92,5.48-1.53L54.2,7s-2.84-3.93-7.84,0-1.73,7.74-1.73,7.74Z"/><path class="cls-6" d="M44.57,39.72c.21.93-.19,1.28-.66,1.4l1.77,2.25s2.23.53,1.79-1.41L33.55,24.25s-4.83-5.58-.14-9.37c2.83-2.3,5-2.48,6.7-1.8-1.93-2.21-4.82-4.31-9.6-.43s.13,9.36.13,9.36Z"/><path class="cls-6" d="M68.58,21.86c0,.81-.2,1.2-.47,1.37l1.71,2.19s1.71.91,1.67-1.32l-8.62-11S60.48,9.5,65.42,5.81C67.74,4.09,69.6,4,70.94,4.47l-.56-.72s-2.93-3.84-7.86-.17S60,10.92,60,10.92Z"/><path class="cls-6" d="M16.38,62.89C20.53,57.58,33,64.7,50.34,75c0,0,2.81,1.1-4.3-7.31S7.27,18.78,7.27,18.78-1.49,9.74,5.8,4C8.43,2,10.63,1.9,12.54,2.82,10.07.2,7-1.43,2.9,1.79-4.39,7.51,4.37,16.55,4.37,16.55S36,57,43.14,65.4s4.29,7.32,4.29,7.32C30.07,62.46,17.63,55.34,13.48,60.65c-3.72,4.81-1.7,10,3.49,12.92C14.1,70.6,13.47,66.64,16.38,62.89Z"/></g><rect class="cls-7" x="87.68" y="98.49" width="53.9" height="16.19" transform="translate(-41.69 98.48) rotate(-39.95)"/><polygon class="cls-8" points="175.56 129 143.47 90.77 94 132.21 126.18 170.5 175.56 129"/></g></g></g></svg>